SplineFontDB: 2.0
FontName: Sawasdee-Bold
FullName: Sawasdee Bold
FamilyName: Sawasdee
Weight: Bold
Copyright: Created by Pol Udomwittayanukul,,, with FontForge 2.0 (http://fontforge.sf.net)
Version: 001.000
ItalicAngle: 0
UnderlinePosition: -75
UnderlineWidth: 50
Ascent: 750
Descent: 250
NeedsXUIDChange: 1
XUID: [1021 180 1442959360 14105406]
UniqueID: 4256560
FSType: 8
OS2Version: 0
OS2_WeightWidthSlopeOnly: 0
OS2_UseTypoMetrics: 1
CreationTime: 1178430034
ModificationTime: 1181038022
PfmFamily: 17
TTFWeight: 700
TTFWidth: 5
LineGap: 90
VLineGap: 0
OS2TypoAscent: 0
OS2TypoAOffset: 1
OS2TypoDescent: 0
OS2TypoDOffset: 1
OS2TypoLinegap: 90
OS2WinAscent: 0
OS2WinAOffset: 1
OS2WinDescent: 0
OS2WinDOffset: 1
HheadAscent: 2
HheadAOffset: 1
HheadDescent: 40
HheadDOffset: 1
OS2Vendor: 'PfEd'
Lookup: 4 0 1 "'liga' Standard Ligatures in Latin lookup 0"  {"'liga' Standard Ligatures in Latin lookup 0"  } ['liga' ('latn' <'dflt' > ) ]
Lookup: 4 0 0 "'frac' Diagonal Fractions in Latin lookup 42"  {"'frac' Diagonal Fractions in Latin lookup 42"  } ['frac' ('latn' <'dflt' > ) ]
Lookup: 6 0 0 "'ccmp' Glyph Composition/Decomposition in Thai lookup 0"  {"'ccmp' Glyph Composition/Decomposition in Thai lookup 0"  } ['ccmp' ('thai' <'KUY ' 'PAL ' 'THA ' 'dflt' > ) ]
Lookup: 6 0 0 "'ccmp' Glyph Composition/Decomposition in Thai lookup 1"  {"'ccmp' Glyph Composition/Decomposition in Thai lookup 1"  } ['ccmp' ('thai' <'KUY ' 'PAL ' 'THA ' 'dflt' > ) ]
Lookup: 5 0 0 "Required Feature in Thai lookup 2"  {"Required Feature in Thai lookup 2"  } [' RQD' ('thai' <'PAL ' > ) ]
Lookup: 1 0 0 "Single Substitution lookup 3"  {"Single Substitution lookup 3"  } []
Lookup: 1 0 0 "Single Substitution lookup 4"  {"Single Substitution lookup 4"  } []
Lookup: 2 0 0 "Multiple Substitution lookup 5"  {"Multiple Substitution lookup 5"  } []
Lookup: 1 0 0 "Single Substitution lookup 6"  {"Single Substitution lookup 6"  } []

StartChar: exclam
Encoding: 1 33 1
Width: 192
Flags: W
HStem: -4 80<67.4445 124.556> 479 20G<63.7041 128.296>
VStem: 56 80<7.44446 64.5555> 63.7041 64.5919<391.017 499> 74.2891 43.4219<118 225.983>
Fore
96 76 m 0xe0
 117.966 76 136 57.9775 136 36 c 0
 136 14.0342 117.977 -4 96 -4 c 0
 74.0342 -4 56 14.0225 56 36 c 0
 56 57.9658 74.0225 76 96 76 c 0xe0
117.711 118 m 1xc8
 74.2891 118 l 1xc8
 63.7041 499 l 1
 128.296 499 l 1xd0
 117.711 118 l 1xc8
EndSplineSet
EndChar
StartChar: quotedbl
Encoding: 2 34 2
Width: 256
Flags: W
VStem: 55.0415 145.917<532 532>
Fore
109.112 378 m 1
 66.8876 378 l 1
 55.0415 532 l 1
 120.959 532 l 1
 109.112 378 l 1
189.112 378 m 1
 146.888 378 l 1
 135.041 532 l 1
 200.959 532 l 1
 189.112 378 l 1
EndSplineSet
EndChar
StartChar: numbersign
Encoding: 3 35 3
Width: 358
Flags: W
HStem: -1 21G<19.7979 75.4727 159.798 214.473> 143 54<-12 56.7983 124.198 196.798 264.198 335> 303 54<22 94.802 163.202 233.802 303.202 370> 481 20G<144.527 200.202 284.527 340.202>
Fore
214.473 -1 m 1
 159.798 -1 l 1
 196.798 143 l 1
 112.473 143 l 1
 75.4727 -1 l 1
 19.7979 -1 l 1
 56.7983 143 l 1
 -12 143 l 1
 -12 197 l 1
 69.5251 197 l 1
 94.802 303 l 1
 22 303 l 1
 22 357 l 1
 107.527 357 l 1
 144.527 501 l 1
 200.202 501 l 1
 163.202 357 l 1
 247.527 357 l 1
 284.527 501 l 1
 340.202 501 l 1
 303.202 357 l 1
 370 357 l 1
 370 303 l 1
 289.475 303 l 1
 264.198 197 l 1
 335 197 l 1
 335 143 l 1
 251.473 143 l 1
 214.473 -1 l 1
124.198 197 m 1
 208.525 197 l 1
 233.802 303 l 1
 149.475 303 l 1
 124.198 197 l 1
EndSplineSet
EndChar
StartChar: dollar
Encoding: 4 36 4
Width: 358
Flags: W
VStem: 13.9062 52.6739<94.2228 155.844> 53.585 52.92<344.433 421.775> 155.505 52.92<-45.8496 -5.52832 48.1748 240.276 319.998 447.75 503.438 547.85> 292.705 53.9<79.6756 211.41>
Fore
13.9062 155.844 m 1xb0
 66.5801 162.684 l 1xb0
 73.1426 116.198 88.5752 61.3457 155.505 47.6279 c 1
 155.505 263.622 l 1
 110.068 283.613 53.585 313.055 53.585 382.721 c 0x70
 53.585 441.031 93.6641 492.751 155.505 503.438 c 1
 155.505 547.85 l 1
 208.425 547.85 l 1
 208.425 503.116 l 1
 293.206 485.961 314.718 411.795 319.381 398.654 c 1
 269.823 381.416 l 1
 266.761 389.969 254.807 434.995 209.405 450.091 c 1
 209.405 298.675 l 1
 271.671 272.94 346.605 240.225 346.605 149.823 c 0
 346.605 67.9727 283.394 10.6543 209.405 -1.42871 c 1
 209.405 -45.8496 l 1
 155.505 -45.8496 l 1
 155.505 -5.52832 l 1
 90.8486 3.44531 29.167 45.0332 13.9062 155.844 c 1xb0
208.425 240.276 m 1
 208.425 48.1748 l 1
 254.862 59.3691 292.705 95.4229 292.705 147.914 c 0
 292.705 196.757 256.865 219.333 208.425 240.276 c 1
155.505 319.998 m 1
 155.505 447.75 l 1
 124.974 438.484 106.505 412.322 106.505 380.812 c 0x70
 106.505 352.828 125.174 335.655 155.505 319.998 c 1
EndSplineSet
EndChar
StartChar: percent
Encoding: 5 37 5
Width: 487
Flags: W
HStem: -5.85156 52.4981<327.327 407.716> 151.641 52.498<327.324 407.713> 295.861 52.498<84.2859 164.676> 453.354 52.498<84.2835 164.673>
VStem: 16.6797 52.9199<363.195 438.514> 179.36 52.92<363.199 438.518> 259.72 52.92<61.4817 136.801> 422.4 52.92<61.4842 136.805>
Fore
475.32 99.1436 m 0
 475.32 41.2598 426.95 -5.85156 367.52 -5.85156 c 0
 308.09 -5.85156 259.72 41.2598 259.72 99.1436 c 0
 259.72 157.027 308.09 204.139 367.52 204.139 c 0
 426.95 204.139 475.32 157.027 475.32 99.1436 c 0
312.64 99.1436 m 0
 312.64 70.1729 336.602 46.6465 367.52 46.6465 c 0
 398.44 46.6465 422.4 70.1748 422.4 99.1436 c 0
 422.4 128.114 398.438 151.641 367.52 151.641 c 0
 336.6 151.641 312.64 128.111 312.64 99.1436 c 0
232.28 400.856 m 0
 232.28 342.973 183.91 295.861 124.48 295.861 c 0
 65.0498 295.861 16.6797 342.973 16.6797 400.856 c 0
 16.6797 458.74 65.0498 505.852 124.48 505.852 c 0
 183.91 505.852 232.28 458.74 232.28 400.856 c 0
69.5996 400.856 m 0
 69.5996 371.886 93.5615 348.359 124.48 348.359 c 0
 155.4 348.359 179.36 371.889 179.36 400.856 c 0
 179.36 429.827 155.398 453.354 124.48 453.354 c 0
 93.5596 453.354 69.5996 429.824 69.5996 400.856 c 0
395.747 500.033 m 1
 460.853 500.033 l 1
 96.2529 -0.124023 l 1
 31.1475 -0.124023 l 1
 395.747 500.033 l 1
EndSplineSet
EndChar
StartChar: ampersand
Encoding: 6 38 6
Width: 504
Flags: W
HStem: -5.80566 50.5879<131.483 287.489> 454.263 51.543<200.577 282.334>
VStem: 38.4082 52.9199<84.3051 252.866> 136.408 52.92<377.507 443.133> 309.868 52.92<379.812 456.783> 377.488 54.88<151.326 192.73>
Fore
377.488 192.73 m 1
 432.368 192.73 l 1
 432.368 181.276 l 2
 432.368 145.496 421.61 112.271 403.504 84.1836 c 1
 466 -0.0332031 l 1
 400.85 -0.0332031 l 1
 368.086 43.4746 l 1
 333.277 12.6035 286.396 -5.80566 235.388 -5.80566 c 0
 127.147 -5.80566 38.4082 78.3359 38.4082 182.23 c 0
 38.4082 256.356 83.2793 320.365 148.06 351.107 c 1
 140.15 369.041 136.408 386.947 136.408 403.675 c 0
 136.408 464.544 184.895 505.806 248.128 505.806 c 0
 307.452 505.806 362.788 466.968 362.788 391.266 c 2
 362.788 379.812 l 1
 309.868 379.812 l 1
 309.868 391.266 l 2
 309.868 441.664 274.44 454.263 248.128 454.263 c 0
 211.55 454.263 189.328 434.027 189.328 403.675 c 0
 189.328 389.084 194.115 371.508 208.812 350.037 c 2
 368.593 131.281 l 1
 374.637 146.622 377.488 163.034 377.488 181.276 c 2
 377.488 192.73 l 1
337.716 85.0107 m 1
 175.347 305.698 l 1
 125.465 284.353 91.3281 236.345 91.3281 181.276 c 0
 91.3281 106.683 155.461 44.7822 235.388 44.7822 c 0
 275.466 44.7822 311.712 60.5088 337.716 85.0107 c 1
EndSplineSet
EndChar
StartChar: quoteright
Encoding: 300 8217 7
Width: 160
Flags: W
VStem: 36 88<439.76 499.556>
Fore
77.708 430.948 m 1
 58.7409 430.479 36 446.969 36 471 c 0
 36 492.966 54.0228 511 76 511 c 0
 97.85 511 124 494.4 124 458 c 0
 124 395.887 70.8296 357.939 70.012 357.262 c 1
 63 355 l 1
 13.4494 355 l 1
 41.7275 376.545 l 2
 57.4003 388.486 71.9961 412.588 77.708 430.948 c 1
EndSplineSet
EndChar
StartChar: parenleft
Encoding: 8 40 8
Width: 175
Flags: W
VStem: 12.9838 57.8907<56.6803 388.095>
Fore
12.9838 228.584 m 0
 12.9838 352.75 48.6523 452.413 94.7978 539 c 1
 143.465 539 l 1
 101.58 444.759 70.8745 350.368 70.8745 224.613 c 0
 70.8745 93.9678 105.293 -8.99687 145.21 -102 c 1
 96.4889 -102 l 1
 52.8646 -12.2102 12.9838 96.3504 12.9838 228.584 c 0
EndSplineSet
EndChar
StartChar: parenright
Encoding: 9 41 9
Width: 175
Flags: W
VStem: 104.126 57.89<56.6803 388.095>
Fore
162.016 228.584 m 0
 162.016 96.3504 121.079 -14.3779 78.5111 -102 c 1
 29.7903 -102 l 1
 68.8873 -10.9168 104.126 93.9678 104.126 224.613 c 0
 104.126 350.368 72.2669 447.344 31.5348 539 c 1
 80.2021 539 l 1
 126.205 452.689 162.016 352.75 162.016 228.584 c 0
EndSplineSet
EndChar
StartChar: asterisk
Encoding: 10 42 10
Width: 330
Flags: W
HStem: 393.29 210.71<137 206.768>
VStem: 137 56<537.269 604>
Fore
137 604 m 1
 193 604 l 1
 193 537.269 l 1
 263.844 554.501 l 1
 276.495 502.092 l 1
 209.625 486.304 l 1
 251.614 423.786 l 1
 206.768 393.29 l 1
 165 455.478 l 1
 123.232 393.29 l 1
 78.3859 423.786 l 1
 120.375 486.304 l 1
 53.5053 502.092 l 1
 66.1557 554.501 l 1
 137 537.269 l 1
 137 604 l 1
EndSplineSet
EndChar
StartChar: plus
Encoding: 11 43 11
Width: 314
Flags: W
HStem: 223 54<12 130 184 302>
VStem: 130 54<105 223 277 395>
Fore
184 105 m 1
 130 105 l 1
 130 223 l 1
 12 223 l 1
 12 277 l 1
 130 277 l 1
 130 395 l 1
 184 395 l 1
 184 277 l 1
 302 277 l 1
 302 223 l 1
 184 223 l 1
 184 105 l 1
EndSplineSet
EndChar
StartChar: comma
Encoding: 12 44 12
Width: 192
Flags: W
VStem: 95.748 48.252<-32.7336 22>
Fore
83 -81 m 1
 43.791 -81 l 1
 68.3721 -61.335 95.6667 -26.3333 95.748 -4.99902 c 1
 73.8965 -4.8623 56 13.1064 56 35 c 0
 56 56.9658 74.0225 75 96 75 c 0
 119.175 75 144 57.2002 144 22 c 0
 144 -49.3311 83.0439 -80.9639 83 -81 c 1
EndSplineSet
EndChar
StartChar: hyphen
Encoding: 13 45 13
Width: 302
Flags: W
HStem: 173 54<36 266>
Fore
266 227 m 1
 266 173 l 1
 36 173 l 1
 36 227 l 1
 266 227 l 1
EndSplineSet
EndChar
StartChar: period
Encoding: 14 46 14
Width: 192
Flags: W
HStem: -4 80<67.4445 124.556>
VStem: 56 80<7.44446 64.5555>
Fore
96 76 m 0
 117.966 76 136 57.9775 136 36 c 0
 136 14.0342 117.977 -4 96 -4 c 0
 74.0342 -4 56 14.0225 56 36 c 0
 56 57.9658 74.0225 76 96 76 c 0
EndSplineSet
EndChar
StartChar: slash
Encoding: 15 47 15
Width: 392
Flags: W
VStem: -23.237 438.474<-12 512>
Fore
348.803 512 m 1
 415.237 512 l 1
 43.197 -12 l 1
 -23.237 -12 l 1
 348.803 512 l 1
EndSplineSet
EndChar
StartChar: zero
Encoding: 16 48 16
Width: 396
VWidth: 965
Flags: W
HStem: -4.85156 51.543<125.37 273.25> 453.309 51.543<126.75 274.63>
VStem: 25.5596 52.9209<90.2482 411.686> 321.52 52.92<88.3138 409.752>
Fore
200 -4.85156 m 0
 95.3359 -4.85156 25.5596 117.266 25.5596 250 c 0
 25.5596 382.734 95.3359 504.852 200 504.852 c 0
 304.664 504.852 374.44 382.734 374.44 250 c 0
 374.44 117.266 304.664 -4.85156 200 -4.85156 c 0
78.4805 250 m 0
 78.4805 127.114 142.592 46.6914 200 46.6914 c 0
 256.346 46.6914 321.52 125.626 321.52 250 c 0
 321.52 372.886 257.408 453.309 200 453.309 c 0
 143.654 453.309 78.4805 374.374 78.4805 250 c 0
EndSplineSet
EndChar
StartChar: one
Encoding: 17 49 17
Width: 395
VWidth: 966
Flags: W
VStem: 171.863 53.854<0.129883 413.216>
Fore
171.863 413.216 m 1
 126.417 386.985 l 1
 99.9941 431.593 l 1
 225.717 505.063 l 1
 225.717 0.129883 l 1
 171.844 0.129883 l 1
 171.863 413.216 l 1
EndSplineSet
EndChar
StartChar: two
Encoding: 18 50 18
Width: 395
VWidth: 965
Flags: W
HStem: 0.0351562 51.5429<81.0762 368.5> 453.422 51.543<130.132 270.302>
VStem: 46.0801 52.9199<330.292 425.185> 301.86 51.94<186.549 425.203>
Fore
368.5 0.0351562 m 1
 25.5 0.0351562 l 1
 25.5 24.8516 l 2
 25.5 195.558 301.86 222.364 301.86 341.746 c 0
 301.86 405.944 254.291 453.422 200.92 453.422 c 0
 146.468 453.422 99 405.93 99 341.746 c 2
 99 330.292 l 1
 46.0801 330.292 l 1
 46.0801 341.746 l 2
 46.0801 430.269 113.19 504.965 199.94 504.965 c 0
 286.69 504.965 353.8 430.27 353.8 341.746 c 0
 353.8 194.885 113.407 162.313 81.0762 51.5781 c 1
 368.5 51.5781 l 1
 368.5 0.0351562 l 1
EndSplineSet
EndChar
StartChar: three
Encoding: 19 51 19
Width: 396
VWidth: 965
Flags: W
HStem: -4.85156 51.543<122.881 279.079> 260.5 51.543<189.22 255.67> 453.309 51.543<145.594 256.368>
VStem: 37.3203 53.8994<95.083 165.05> 71.6201 52.9199<368.358 432.331> 277.42 52.92<330.629 432.328> 310.74 51.94<77.5291 227.39>
Fore
37.3203 165.05 m 1xf2
 91.2197 165.05 l 1
 91.2197 153.596 l 2
 91.2197 95.083 140.904 46.6914 200.98 46.6914 c 0
 261.056 46.6914 310.74 95.083 310.74 153.596 c 0xf2
 310.74 212.108 261.056 260.5 200.98 260.5 c 2
 189.22 260.5 l 1
 189.22 312.043 l 1
 200.98 312.043 l 2
 243.049 312.043 277.42 338.98 277.42 379.812 c 0
 277.42 420.209 243.586 453.309 200.98 453.309 c 0
 158.375 453.309 124.54 420.211 124.54 379.812 c 2
 124.54 368.358 l 1
 71.6201 368.358 l 1
 71.6201 379.812 l 2
 71.6201 449.22 129.913 504.852 200.98 504.852 c 0
 272.047 504.852 330.34 449.219 330.34 379.812 c 0xec
 330.34 341.979 312.712 309.634 285.481 288.382 c 1
 331.787 260.576 362.68 210.361 362.68 153.596 c 0
 362.68 66.1406 289.791 -4.85156 200 -4.85156 c 0
 110.208 -4.85156 37.3203 66.1416 37.3203 153.596 c 2
 37.3203 165.05 l 1xf2
EndSplineSet
EndChar
StartChar: four
Encoding: 20 52 20
Width: 395
VWidth: 966
Flags: W
HStem: 89.3652 51.5428<86.1338 269.185 322.104 362.921>
VStem: 269.185 52.919<0.59668 89.3652 140.908 375.16>
Fore
269.185 140.908 m 1
 269.185 375.16 l 1
 86.1338 140.908 l 1
 269.185 140.908 l 1
322.104 0.59668 m 1
 269.185 0.59668 l 1
 269.185 89.3652 l 1
 -20.0635 89.3652 l 1
 322.104 529.104 l 1
 322.104 140.908 l 1
 380.561 140.908 l 1
 362.921 89.3652 l 1
 322.104 89.3652 l 1
 322.104 0.59668 l 1
EndSplineSet
EndChar
StartChar: five
Encoding: 21 53 21
Width: 395
VWidth: 965
Flags: W
HStem: -5.94238 51.543<122.033 285.058> 312.86 49.634<148.423 285.059> 448.399 51.543<106.917 313.318>
VStem: 322.482 52.92<81.0384 277.424>
Fore
199.002 312.86 m 0
 154.531 312.86 113.924 287.629 87.5508 238.409 c 1
 35.293 238.409 l 1
 57.8486 499.942 l 1
 330.958 499.942 l 1
 313.318 448.399 l 1
 106.917 448.399 l 1
 96.582 328.318 l 1
 125.01 349.409 160.095 362.494 199.002 362.494 c 0
 298.326 362.494 375.402 278.384 375.402 178.276 c 0
 375.402 78.168 298.325 -5.94238 199.002 -5.94238 c 0
 109.129 -5.94238 37.1514 63.832 24.6748 150.922 c 2
 22.8076 163.959 l 1
 75.6611 163.959 l 1
 77.3174 154.413 l 2
 88.2363 91.4941 139.795 45.6006 199.002 45.6006 c 0
 265.199 45.6006 322.482 103.698 322.482 179.23 c 0
 322.482 254.764 265.2 312.86 199.002 312.86 c 0
EndSplineSet
EndChar
StartChar: six
Encoding: 22 54 22
Width: 395
VWidth: 965
Flags: W
HStem: -4.98828 50.5889<112.944 285.057> 314.86 50.589<161.546 285.056>
VStem: 22.5996 52.9199<83.0384 279.424> 322.48 52.92<83.0371 279.423>
Fore
322.48 181.23 m 0
 322.48 256.763 265.197 314.86 199 314.86 c 0
 132.802 314.86 75.5195 256.764 75.5195 181.23 c 0
 75.5195 105.698 132.803 45.6006 199 45.6006 c 0
 265.198 45.6006 322.48 105.697 322.48 181.23 c 0
22.5996 181.23 m 0
 22.5996 279.25 83.5176 329.604 201.547 500.988 c 1
 265.193 500.988 l 1
 169.74 362.887 l 1
 179.328 364.562 189.143 365.449 199 365.449 c 0
 298.324 365.449 375.4 281.339 375.4 181.23 c 0
 375.4 81.1221 298.323 -4.98828 199 -4.98828 c 0
 99.6758 -4.98828 22.5996 81.1221 22.5996 181.23 c 0
EndSplineSet
EndChar
StartChar: seven
Encoding: 23 55 23
Width: 396
VWidth: 965
Flags: W
HStem: 448.536 51.543<49.793 323.318>
VStem: 32.1523 372.572<448.536 500.079>
Fore
49.793 500.079 m 1
 404.724 500.079 l 1
 174.666 -0.0791016 l 1
 116.539 -0.0791016 l 1
 323.318 448.536 l 1
 32.1523 448.536 l 1
 49.793 500.079 l 1
EndSplineSet
EndChar
StartChar: eight
Encoding: 24 56 24
Width: 396
VWidth: 965
Flags: W
HStem: -4.85156 51.543<121.901 278.099> 260.5 51.543<145.738 254.262> 453.309 51.543<145.738 254.262>
VStem: 37.3203 52.9199<77.5291 228.826> 71.6201 52.9199<334.191 432.323> 275.46 52.92<334.189 432.324> 309.76 52.92<77.5291 228.827>
Fore
328.38 382.676 m 0xec
 328.38 345.378 310.758 311.884 283.289 289.651 c 1
 330.69 261.934 362.68 211.466 362.68 153.596 c 0
 362.68 66.1406 289.791 -4.85156 200 -4.85156 c 0
 110.208 -4.85156 37.3203 66.1416 37.3203 153.596 c 0xf2
 37.3203 211.465 69.3076 261.934 116.708 289.652 c 1
 89.2412 311.884 71.6201 345.38 71.6201 382.676 c 0
 71.6201 450.396 130 504.852 200 504.852 c 0
 270 504.852 328.38 450.395 328.38 382.676 c 0xec
90.2402 153.596 m 0
 90.2402 95.083 139.924 46.6914 200 46.6914 c 0
 260.076 46.6914 309.76 95.083 309.76 153.596 c 0
 309.76 212.108 260.076 260.5 200 260.5 c 0
 139.924 260.5 90.2402 212.108 90.2402 153.596 c 0
200 312.043 m 0
 241.74 312.043 275.46 344.485 275.46 382.676 c 0
 275.46 420.867 241.74 453.309 200 453.309 c 0
 158.26 453.309 124.54 420.866 124.54 382.676 c 0xec
 124.54 344.484 158.26 312.043 200 312.043 c 0
EndSplineSet
EndChar
StartChar: nine
Encoding: 25 57 25
Width: 395
VWidth: 965
Flags: W
HStem: 135.551 50.589<112.944 232.35> 453.399 50.589<112.943 285.056>
VStem: 22.5996 52.9199<221.577 417.963> 322.48 52.92<221.576 417.962>
Fore
75.5195 319.77 m 0
 75.5195 244.237 132.803 186.14 199 186.14 c 0
 265.198 186.14 322.48 244.236 322.48 319.77 c 0
 322.48 395.302 265.197 453.399 199 453.399 c 0
 132.802 453.399 75.5195 395.303 75.5195 319.77 c 0
375.4 319.77 m 0
 375.4 221.75 314.482 171.396 196.453 0.0117188 c 1
 132.807 0.0117188 l 1
 228.26 138.113 l 1
 218.672 136.438 208.857 135.551 199 135.551 c 0
 99.6758 135.551 22.5996 219.661 22.5996 319.77 c 0
 22.5996 419.878 99.6768 503.988 199 503.988 c 0
 298.324 503.988 375.4 419.878 375.4 319.77 c 0
EndSplineSet
EndChar
StartChar: colon
Encoding: 26 58 26
Width: 192
Flags: W
HStem: -4 80<67.4445 124.556> 265 80<67.4445 124.556>
VStem: 56 80<7.44446 64.5555 276.444 333.556>
Fore
96 76 m 0
 117.966 76 136 57.9775 136 36 c 0
 136 14.0342 117.977 -4 96 -4 c 0
 74.0342 -4 56 14.0225 56 36 c 0
 56 57.9658 74.0225 76 96 76 c 0
96 345 m 0
 117.966 345 136 326.977 136 305 c 0
 136 283.034 117.977 265 96 265 c 0
 74.0342 265 56 283.023 56 305 c 0
 56 326.966 74.0225 345 96 345 c 0
EndSplineSet
EndChar
StartChar: semicolon
Encoding: 27 59 27
Width: 192
Flags: W
HStem: 265 80<67.4445 124.556>
VStem: 56 80<276.444 333.556> 95.748 48.252<-32.7336 22>
Fore
96 345 m 0xc0
 117.966 345 136 326.977 136 305 c 0
 136 283.034 117.977 265 96 265 c 0
 74.0342 265 56 283.023 56 305 c 0
 56 326.966 74.0225 345 96 345 c 0xc0
96 75 m 0
 119.175 75 144 57.2002 144 22 c 0
 144 -49.3311 83.0439 -80.9639 83 -81 c 1
 43.791 -81 l 1
 68.3721 -61.335 95.6667 -26.3333 95.748 -4.99902 c 1xa0
 73.8965 -4.8623 56 13.1064 56 35 c 0
 56 56.9658 74.0225 75 96 75 c 0
EndSplineSet
EndChar
StartChar: less
Encoding: 28 60 28
Width: 396
Flags: W
HStem: -1 364<286.622 390.625>
VStem: -11.002 401.627<-1 181>
Fore
390.625 -1 m 1
 286.622 -1 l 1
 -11.002 181 l 1
 286.622 363 l 1
 390.625 363 l 1
 93.002 181 l 1
 390.625 -1 l 1
EndSplineSet
EndChar
StartChar: equal
Encoding: 29 61 29
Width: 362
Flags: W
HStem: 133 54<36 326> 233 54<36 326>
Fore
326 287 m 1
 326 233 l 1
 36 233 l 1
 36 287 l 1
 326 287 l 1
326 187 m 1
 326 133 l 1
 36 133 l 1
 36 187 l 1
 326 187 l 1
EndSplineSet
EndChar
StartChar: greater
Encoding: 30 62 30
Width: 396
Flags: W
HStem: -1 364<5.375 109.378>
VStem: 5.375 401.627<-1 181>
Fore
109.378 -1 m 1
 5.375 -1 l 1
 302.998 181 l 1
 5.375 363 l 1
 109.378 363 l 1
 407.002 181 l 1
 109.378 -1 l 1
EndSplineSet
EndChar
StartChar: question
Encoding: 31 63 31
Width: 397
Flags: W
HStem: -4.85156 76.3604<163.215 219.185> 453.309 51.543<133.046 267.784>
VStem: 58.9004 52.9196<361.677 420.493> 152 78.4<6.07256 60.5849> 165.72 52.92<108.234 249.768> 290.18 52.92<298.447 436.104>
Fore
191.2 71.5088 m 0xf4
 212.727 71.5088 230.4 54.3057 230.4 33.3281 c 0
 230.4 12.3623 212.737 -4.85156 191.2 -4.85156 c 0
 169.673 -4.85156 152 12.3516 152 33.3281 c 0
 152 54.2949 169.662 71.5088 191.2 71.5088 c 0xf4
218.64 108.234 m 1xec
 165.72 108.234 l 1
 165.72 157.413 l 2
 165.72 273.864 290.18 315.682 290.18 373.131 c 0
 290.18 421.572 253.955 453.309 207.86 453.309 c 0
 150.311 453.309 111.82 409.563 111.82 373.131 c 2
 111.82 361.677 l 1
 58.9004 361.677 l 1
 58.9004 373.131 l 2
 58.9004 443.46 126.295 504.852 207.86 504.852 c 0
 285.241 504.852 343.1 448.707 343.1 373.131 c 0
 343.1 284.147 218.64 249.768 218.64 157.413 c 2
 218.64 108.234 l 1xec
EndSplineSet
EndChar
StartChar: at
Encoding: 32 64 32
Width: 688
Flags: W
HStem: -157.212 50.589<170.579 416.15> -5.44629 52.4981<223.755 362.128 510.082 570.215> 300.948 51.543<269.538 424.576> 452.714 52.498<170.579 523.16>
VStem: 42.2305 53.8994<-30.9627 377.054> 154.93 54.88<67.5252 238.217> 445.01 39.2<107.263 218.861> 599.85 52.92<51.4775 379.325>
Fore
479.895 348.674 m 1
 535.38 348.674 l 1
 492.642 174.91 l 2
 490.625 168.036 484.21 148.051 484.21 127.229 c 0
 484.21 73.873 516.55 47.0518 538.11 47.0518 c 0
 562.806 47.0518 599.85 81.2939 599.85 180.682 c 0
 599.85 333.484 482.736 452.714 347.99 452.714 c 0
 211.52 452.714 96.1299 329.975 96.1299 173.046 c 0
 96.1299 16.1162 211.52 -106.623 347.99 -106.623 c 0
 400.421 -106.623 439.198 -90.0459 479.067 -66.1533 c 1
 507.369 -109.225 l 1
 458.675 -139.005 411.742 -157.212 347.99 -157.212 c 0
 176.812 -157.212 42.2305 -6.98242 42.2305 174 c 0
 42.2305 354.982 176.812 505.212 347.99 505.212 c 0
 516.113 505.212 652.77 358.106 652.77 180.682 c 0
 652.77 36.665 583.974 -5.44629 538.11 -5.44629 c 0
 492.771 -5.44629 455.83 28.3789 439.667 74.7061 c 1
 400.877 29.5791 344.165 -4.49121 284.29 -4.49121 c 0
 207.302 -4.49121 154.93 51.9707 154.93 129.139 c 0
 154.93 242.512 262.027 352.491 367.59 352.491 c 0
 411.425 352.491 446.574 334.623 468.985 305.514 c 1
 479.895 348.674 l 1
369.55 300.948 m 0
 292.618 300.948 209.81 213.265 209.81 130.093 c 0
 209.81 81.9639 237.951 48.0059 285.27 48.0059 c 0
 360.283 48.0059 445.01 133.016 445.01 218.861 c 0
 445.01 266.99 416.869 300.948 369.55 300.948 c 0
EndSplineSet
EndChar
StartChar: A
Encoding: 33 65 33
Width: 463
VWidth: 966
Flags: W
HStem: 148.444 51.543<151.21 313.924>
VStem: 8.17383 446.826<0.49707 0.49707>
Fore
151.21 199.987 m 1
 313.924 199.987 l 1
 232.567 371.634 l 1
 151.21 199.987 l 1
127.734 148.444 m 1
 65.0146 0.49707 l 1
 8.17383 0.49707 l 1
 231.587 505.81 l 1
 455 0.49707 l 1
 398.159 0.49707 l 1
 335.439 148.444 l 1
 127.734 148.444 l 1
EndSplineSet
EndChar
StartChar: B
Encoding: 34 66 34
Width: 434
VWidth: 965
Flags: W
HStem: -0.0791016 51.543<100.92 232.239> 250.954 51.543<100.92 290.559> 448.536 51.543<100.92 290.094>
VStem: 48 52.92<51.4639 250.954 302.497 448.536> 311.62 53.9<325.562 412.718> 348.859 52.92<82.874 220.43>
Fore
100.92 51.4639 m 1xf4
 232.239 51.4639 l 2
 299.104 51.4639 348.859 98.7539 348.859 151.687 c 0
 348.859 204.566 299.24 250.954 232.239 250.954 c 2
 100.92 250.954 l 1
 100.92 51.4639 l 1xf4
311.62 374.085 m 2xf8
 311.62 375.039 l 2
 311.62 412.718 275.386 448.536 226.359 448.536 c 2
 100.92 448.536 l 1
 100.92 302.497 l 1
 226.359 302.497 l 2
 275.744 302.497 311.62 336.553 311.62 374.085 c 2xf8
228.319 500.079 m 2
 302.907 500.079 365.52 444.06 365.52 374.085 c 0xf8
 365.52 336.76 347.073 304.039 318.621 281.607 c 1
 368 255.866 401.779 208.008 401.779 151.687 c 0xf4
 401.779 66.2363 324.133 -0.0791016 232.239 -0.0791016 c 2
 48 -0.0791016 l 1
 48 500.079 l 1
 228.319 500.079 l 2
EndSplineSet
EndChar
StartChar: C
Encoding: 35 67 35
Width: 543
VWidth: 965
Flags: W
HStem: -4.85156 50.5889<144.198 406.341> 452.354 52.498<144.198 429.78>
VStem: 33 52.9199<103.323 394.768>
Fore
467.32 136.701 m 1
 510.334 108.771 l 1
 454.033 33.668 380.342 -4.85156 293.68 -4.85156 c 0
 149.966 -4.85156 33 109.121 33 250 c 0
 33 390.879 149.966 504.852 293.68 504.852 c 0
 423.438 504.852 490.158 418.139 509.944 391.751 c 1
 467.7 360.893 l 1
 451.672 381.835 398.372 452.354 293.68 452.354 c 0
 178.694 452.354 85.9199 361.14 85.9199 249.046 c 0
 85.9199 136.951 178.694 45.7373 293.68 45.7373 c 0
 397.863 45.7373 451.22 115.669 467.32 136.701 c 1
EndSplineSet
EndChar
StartChar: D
Encoding: 36 68 36
Width: 452
VWidth: 965
Flags: W
HStem: -0.0791016 51.543<100.92 158.74> 448.536 51.543<100.92 308.724>
VStem: 48 52.92<51.4639 448.536> 366.5 52.92<104.447 395.553>
Fore
100.92 51.4639 m 1
 158.74 51.4639 l 2
 274.113 51.4639 366.5 138.036 366.5 250 c 0
 366.5 361.964 274.112 448.536 158.74 448.536 c 2
 100.92 448.536 l 1
 100.92 51.4639 l 1
48 -0.0791016 m 1
 48 500.079 l 1
 158.74 500.079 l 2
 302.113 500.079 419.42 390.993 419.42 250 c 0
 419.42 109.006 302.112 -0.0791016 158.74 -0.0791016 c 2
 48 -0.0791016 l 1
EndSplineSet
EndChar
StartChar: E
Encoding: 37 69 37
Width: 389
VWidth: 965
Flags: W
HStem: -0.0791016 51.543<100.92 355.72> 262.408 51.543<100.92 336.119> 448.536 51.543<100.92 356.699>
VStem: 48 52.92<51.4639 262.408 313.951 448.536>
Fore
336.119 313.951 m 1
 336.119 262.408 l 1
 100.92 262.408 l 1
 100.92 51.4639 l 1
 355.72 51.4639 l 1
 355.72 -0.0791016 l 1
 48 -0.0791016 l 1
 48 500.079 l 1
 356.699 500.079 l 1
 356.699 448.536 l 1
 100.92 448.536 l 1
 100.92 313.951 l 1
 336.119 313.951 l 1
EndSplineSet
EndChar
StartChar: F
Encoding: 38 70 38
Width: 389
VWidth: 965
Flags: W
HStem: 262.408 51.543<100.92 336.119> 448.536 51.543<100.92 356.699>
VStem: 48 52.92<-0.0791016 262.408 313.951 448.536>
Fore
336.119 313.951 m 1
 336.119 262.408 l 1
 100.92 262.408 l 1
 100.92 -0.0791016 l 1
 48 -0.0791016 l 1
 48 500.079 l 1
 356.699 500.079 l 1
 356.699 448.536 l 1
 100.92 448.536 l 1
 100.92 313.951 l 1
 336.119 313.951 l 1
EndSplineSet
EndChar
StartChar: G
Encoding: 39 71 39
Width: 587
VWidth: 965
Flags: W
HStem: -4.85156 51.543<144.198 431.611> 224.229 51.542<281.92 499.359> 453.309 51.543<144.198 429.78>
VStem: 33 52.9199<104.276 395.724>
Fore
510.015 392.758 m 1
 467.701 361.848 l 1
 451.672 382.789 398.372 453.309 293.68 453.309 c 0
 178.694 453.309 85.9199 362.095 85.9199 250 c 0
 85.9199 137.905 178.694 46.6914 293.68 46.6914 c 0
 399.781 46.6914 487.014 124.339 499.359 224.229 c 1
 281.92 224.229 l 1
 281.92 275.771 l 1
 554.359 275.771 l 1
 554.359 250 l 2
 554.359 109.121 437.394 -4.85156 293.68 -4.85156 c 0
 149.966 -4.85156 33 109.121 33 250 c 0
 33 390.879 149.966 504.852 293.68 504.852 c 0
 430.354 504.852 499.304 406.817 510.015 392.758 c 1
EndSplineSet
EndChar
StartChar: H
Encoding: 40 72 40
Width: 468
VWidth: 965
Flags: W
HStem: 262.408 51.543<100.92 367.48>
VStem: 48 52.92<-0.0791016 262.408 313.951 500.079> 367.48 52.92<-0.0791016 262.408 313.951 500.079>
Fore
367.48 500.079 m 1
 420.4 500.079 l 1
 420.4 -0.0791016 l 1
 367.48 -0.0791016 l 1
 367.48 262.408 l 1
 100.92 262.408 l 1
 100.92 -0.0791016 l 1
 48 -0.0791016 l 1
 48 500.079 l 1
 100.92 500.079 l 1
 100.92 313.951 l 1
 367.48 313.951 l 1
 367.48 500.079 l 1
EndSplineSet
EndChar
StartChar: I
Encoding: 41 73 41
Width: 148
VWidth: 965
Flags: W
VStem: 48 52.92<-0.0791016 500.079>
Fore
100.92 -0.0791016 m 1
 48 -0.0791016 l 1
 48 500.079 l 1
 100.92 500.079 l 1
 100.92 -0.0791016 l 1
EndSplineSet
EndChar
StartChar: J
Encoding: 42 74 42
Width: 345
VWidth: 965
Flags: W
HStem: -4.96484 51.5429<110.92 221.635>
VStem: 33 52.9199<69.2675 146.8> 246.64 50.96<84.5176 499.965>
Fore
246.64 499.965 m 1
 297.6 499.965 l 1
 297.6 135.347 l 2
 297.6 59.2773 240.27 -4.96484 165.3 -4.96484 c 0
 90.3281 -4.96484 33 59.2764 33 135.347 c 2
 33 146.8 l 1
 85.9199 146.8 l 1
 85.9199 135.347 l 2
 85.9199 84.5166 123.695 46.5781 166.28 46.5781 c 0
 208.861 46.5781 246.64 84.5176 246.64 135.347 c 2
 246.64 499.965 l 1
EndSplineSet
EndChar
StartChar: K
Encoding: 43 75 43
Width: 409
VWidth: 965
Flags: W
VStem: 48 52.92<-0.0791016 242.063 312.178 500.079>
Fore
48 500.079 m 1
 100.92 500.079 l 1
 100.92 312.178 l 1
 312.951 500.079 l 1
 392.085 500.079 l 1
 178.237 311.289 l 1
 401.815 -0.0791016 l 1
 334.825 -0.0791016 l 1
 140.003 276.604 l 1
 100.92 242.063 l 1
 100.92 -0.0791016 l 1
 48 -0.0791016 l 1
 48 500.079 l 1
EndSplineSet
EndChar
StartChar: L
Encoding: 44 76 44
Width: 389
VWidth: 965
Flags: W
HStem: -0.0791016 51.543<100.92 356.699>
VStem: 48 52.92<51.4639 500.079>
Fore
356.699 -0.0791016 m 1
 48 -0.0791016 l 1
 48 500.079 l 1
 100.92 500.079 l 1
 100.92 51.4639 l 1
 356.699 51.4639 l 1
 356.699 -0.0791016 l 1
EndSplineSet
EndChar
StartChar: M
Encoding: 45 77 45
Width: 590
VWidth: 966
Flags: W
Fore
60.3418 0.164062 m 1
 8 0.164062 l 1
 112.012 505.127 l 1
 294.759 127.687 l 1
 481.449 504.962 l 1
 582.18 0.164062 l 1
 527.888 0.164062 l 1
 460.637 326.997 l 1
 293.535 -5.4502 l 1
 130.3 326.892 l 1
 60.3418 0.164062 l 1
EndSplineSet
EndChar
StartChar: N
Encoding: 46 78 46
Width: 561
VWidth: 965
Flags: W
VStem: 48 52.92<-0.0791016 378.135> 460.58 52.92<121.865 500.079>
Fore
48 -0.0791016 m 1
 48 505.845 l 1
 460.58 121.865 l 1
 460.58 500.079 l 1
 513.5 500.079 l 1
 513.5 -5.8457 l 1
 100.92 378.135 l 1
 100.92 -0.0791016 l 1
 48 -0.0791016 l 1
EndSplineSet
EndChar
StartChar: O
Encoding: 47 79 47
Width: 587
VWidth: 965
Flags: W
HStem: -4.85156 51.543<144.198 443.161> 453.309 51.543<144.198 443.161>
VStem: 33 52.9199<104.276 395.724> 501.439 52.92<104.276 395.724>
Fore
554.359 250 m 0
 554.359 109.121 437.394 -4.85156 293.68 -4.85156 c 0
 149.966 -4.85156 33 109.121 33 250 c 0
 33 390.879 149.966 504.852 293.68 504.852 c 0
 437.394 504.852 554.359 390.879 554.359 250 c 0
85.9199 250 m 0
 85.9199 137.905 178.694 46.6914 293.68 46.6914 c 0
 408.665 46.6914 501.439 137.905 501.439 250 c 0
 501.439 362.095 408.665 453.309 293.68 453.309 c 0
 178.694 453.309 85.9199 362.095 85.9199 250 c 0
EndSplineSet
EndChar
StartChar: P
Encoding: 48 80 48
Width: 405
VWidth: 965
Flags: W
HStem: 223.251 52.498<100.921 293.779> 448.514 51.543<100.921 293.997>
VStem: 48 52.921<-0.0566406 223.251 275.749 448.514> 318.48 53.901<298.65 424.704>
Fore
48 -0.0566406 m 1
 48 500.057 l 1
 234.2 500.057 l 2
 311.539 500.057 372.381 437.319 372.381 361.653 c 0
 372.381 286.004 311.627 223.251 235.181 223.251 c 2
 100.921 223.251 l 1
 100.921 -0.0566406 l 1
 48 -0.0566406 l 1
100.921 275.749 m 1
 235.181 275.749 l 2
 280.256 275.749 318.48 313.189 318.48 361.653 c 0
 318.48 410.154 280.198 448.514 234.2 448.514 c 2
 100.921 448.514 l 1
 100.921 275.749 l 1
EndSplineSet
EndChar
StartChar: Q
Encoding: 49 81 49
Width: 587
VWidth: 965
Flags: W
HStem: -4.85156 51.543<144.198 359.599> 453.309 51.543<144.198 443.161>
VStem: 33 52.9199<104.276 395.724> 501.44 52.92<192.95 395.724>
Fore
426.264 93.7373 m 1
 347.914 185.094 l 1
 416.754 185.094 l 1
 462.788 131.8 l 1
 487.212 165.213 501.441 206.115 501.44 250 c 0
 501.44 362.095 408.665 453.309 293.68 453.309 c 0
 178.694 453.309 85.9199 362.095 85.9199 250 c 0
 85.9199 137.905 178.694 46.6914 293.68 46.6914 c 0
 344.387 46.6914 390.215 64.4688 426.264 93.7373 c 1
575.742 -0.0791016 m 1
 505.743 -0.0791016 l 1
 459.924 53.2998 l 1
 414.913 16.9912 356.927 -4.85156 293.68 -4.85156 c 0
 149.966 -4.85156 33 109.121 33 250 c 0
 33 390.879 149.966 504.852 293.68 504.852 c 0
 437.395 504.852 554.36 390.879 554.36 250 c 0
 554.36 189.668 533.251 134.46 497.186 90.6426 c 1
 575.742 -0.0791016 l 1
EndSplineSet
EndChar
StartChar: R
Encoding: 50 82 50
Width: 414
VWidth: 965
Flags: W
HStem: 224.229 51.542<100.92 220.38> 448.536 51.543<100.92 293.998>
VStem: 48 52.92<-0.0791016 224.229 275.771 448.536> 318.479 53.901<298.673 424.727>
Fore
48 -0.0791016 m 1
 48 500.079 l 1
 234.199 500.079 l 2
 311.538 500.079 372.38 437.342 372.38 361.677 c 0
 372.38 300.713 332.873 248.201 277.201 230.296 c 1
 406.943 -0.0791016 l 1
 346.8 -0.0791016 l 1
 220.38 224.229 l 1
 100.92 224.229 l 1
 100.92 -0.0791016 l 1
 48 -0.0791016 l 1
100.92 275.771 m 1
 235.18 275.771 l 2
 280.255 275.771 318.479 313.212 318.479 361.677 c 0
 318.479 410.177 280.198 448.536 234.199 448.536 c 2
 100.92 448.536 l 1
 100.92 275.771 l 1
EndSplineSet
EndChar
StartChar: S
Encoding: 51 83 51
Width: 397
VWidth: 965
Flags: W
HStem: -5.7832 52.4971<131.851 274.221> 453.286 52.497<140.986 244.338>
VStem: 72.7012 52.9198<254.412 432.325> 311.821 52.92<67.3513 309.132>
Fore
337.451 397.608 m 1
 287.871 380.363 l 1
 284.027 391.374 l 2
 269.288 433.596 233.903 453.286 199.121 453.286 c 0
 154.402 453.286 125.621 420.862 125.621 382.652 c 0
 125.621 284.006 364.741 313.119 364.741 148.846 c 0
 364.741 56.0684 284.209 -5.7832 198.141 -5.7832 c 0
 124.529 -5.7832 49.2861 40.0723 34.5879 145.395 c 2
 33 156.772 l 1
 85.6729 163.613 l 1
 87.2881 152.337 l 2
 98.084 76.9785 147.149 46.7139 198.141 46.7139 c 0
 256.664 46.7139 311.821 86.3779 311.821 149.8 c 0
 311.821 272.363 72.7012 237.375 72.7012 383.607 c 0
 72.7012 448.447 123.269 505.783 199.121 505.783 c 0
 253.907 505.783 311.526 472.156 333.739 408.281 c 2
 337.451 397.608 l 1
EndSplineSet
EndChar
StartChar: T
Encoding: 52 84 52
Width: 323
VWidth: 965
Flags: W
HStem: 448.536 51.543<8 135.4 188.32 315.721>
VStem: 135.4 52.92<-0.0791016 448.536>
Fore
315.721 500.079 m 1
 315.721 448.536 l 1
 188.32 448.536 l 1
 188.32 -0.0791016 l 1
 135.4 -0.0791016 l 1
 135.4 448.536 l 1
 8 448.536 l 1
 8 500.079 l 1
 315.721 500.079 l 1
EndSplineSet
EndChar
StartChar: U
Encoding: 53 85 53
Width: 468
VWidth: 965
Flags: W
HStem: -4.96484 51.5429<142.773 327.473>
VStem: 48 52.92<109.474 499.965> 367.48 52.92<84.2584 499.965>
Fore
48 499.965 m 1
 100.92 499.965 l 1
 100.92 192.616 l 2
 100.92 109.474 164.098 46.5781 235.181 46.5781 c 0
 306.175 46.5781 367.48 109.264 367.48 192.616 c 2
 367.48 499.965 l 1
 420.4 499.965 l 1
 420.4 192.616 l 2
 420.4 84.9678 338.569 -4.96484 234.2 -4.96484 c 0
 129.83 -4.96484 48 84.9678 48 192.616 c 2
 48 499.965 l 1
EndSplineSet
EndChar
StartChar: V
Encoding: 54 86 54
Width: 450
VWidth: 965
Flags: W
VStem: 8 434.682<500.485 500.485>
Fore
385.037 500.485 m 1
 442.682 500.485 l 1
 228.537 -5.57812 l 1
 8 500.485 l 1
 64.7695 500.485 l 1
 227.237 132.978 l 1
 385.037 500.485 l 1
EndSplineSet
EndChar
StartChar: W
Encoding: 55 87 55
Width: 679
VWidth: 965
Flags: W
Fore
8 500.088 m 1
 62.3389 500.088 l 1
 197.9 152.235 l 1
 339.215 505.678 l 1
 480.491 152.343 l 1
 615.093 500.088 l 1
 671.378 500.088 l 1
 480.18 -5.28809 l 1
 340.194 345.252 l 1
 200.241 -5.19922 l 1
 8 500.088 l 1
EndSplineSet
EndChar
StartChar: X
Encoding: 56 88 56
Width: 356
VWidth: 965
Flags: W
VStem: 8 340.148<-0.0791016 -0.0791016>
Fore
27.5781 500.079 m 1
 87.293 500.079 l 1
 178.074 325.894 l 1
 268.855 500.079 l 1
 328.571 500.079 l 1
 207.925 269.083 l 1
 348.148 -0.0791016 l 1
 288.46 -0.0791016 l 1
 178.074 211.365 l 1
 67.6875 -0.0791016 l 1
 8 -0.0791016 l 1
 148.224 269.083 l 1
 27.5781 500.079 l 1
EndSplineSet
EndChar
StartChar: Y
Encoding: 57 89 57
Width: 438
VWidth: 965
Flags: W
VStem: 192.973 52.92<-0.0791016 214.238>
Fore
8 500.079 m 1
 70.0977 500.079 l 1
 219.433 269.556 l 1
 368.767 500.079 l 1
 430.865 500.079 l 1
 245.893 214.238 l 1
 245.893 -0.0791016 l 1
 192.973 -0.0791016 l 1
 192.973 214.238 l 1
 8 500.079 l 1
EndSplineSet
EndChar
StartChar: Z
Encoding: 58 90 58
Width: 420
VWidth: 965
Flags: W
HStem: -0.0791016 51.543<106.646 395.079> 448.536 51.543<53.7471 312.78>
VStem: 8 404.72<-0.0791016 51.4639>
Fore
53.7471 500.079 m 1
 411.427 500.079 l 1
 106.646 51.4639 l 1
 412.72 51.4639 l 1
 395.079 -0.0791016 l 1
 8 -0.0791016 l 1
 312.78 448.536 l 1
 36.1074 448.536 l 1
 53.7471 500.079 l 1
EndSplineSet
EndChar
StartChar: bracketleft
Encoding: 59 91 59
Width: 162
Flags: W
HStem: -117 54<90 150> 488 54<90 150>
VStem: 36 114<-117 -63 488 542> 36 54<-63 488>
Fore
90 -63 m 1xd0
 150 -63 l 1
 150 -117 l 1
 36 -117 l 1
 36 542 l 1
 150 542 l 1
 150 488 l 1xe0
 90 488 l 1
 90 -63 l 1xd0
EndSplineSet
EndChar
StartChar: backslash
Encoding: 60 92 60
Width: 438
Flags: W
HStem: -1 21G<371.565 438> 481 20G<-0.474609 65.96>
VStem: -0.474609 438.475<-1 501>
Fore
-0.474609 501 m 1
 65.96 501 l 1
 438 -1 l 1
 371.565 -1 l 1
 -0.474609 501 l 1
EndSplineSet
EndChar
StartChar: bracketright
Encoding: 61 93 61
Width: 161
Flags: W
HStem: -117 54<-1 59> 488 54<-1 59>
VStem: -1 114<-117 -63 488 542> 59 54<-63 488>
Fore
59 488 m 1xd0
 -1 488 l 1
 -1 542 l 1
 113 542 l 1
 113 -117 l 1
 -1 -117 l 1
 -1 -63 l 1xe0
 59 -63 l 1
 59 488 l 1xd0
EndSplineSet
EndChar
StartChar: asciicircum
Encoding: 62 94 62
Width: 416
Flags: W
HStem: 227 274<185.064 388.617>
VStem: 27.2393 361.378<227 227>
Fore
185.064 501 m 1
 232.985 501 l 1
 388.617 227 l 1
 326.004 227 l 1
 208.917 433.792 l 1
 89.9404 227 l 1
 27.2393 227 l 1
 185.064 501 l 1
EndSplineSet
EndChar
StartChar: underscore
Encoding: 63 95 63
Width: 350
Flags: W
HStem: -53 54<0 350>
Fore
350 1 m 1
 350 -53 l 1
 0 -53 l 1
 0 1 l 1
 350 1 l 1
EndSplineSet
EndChar
StartChar: quoteleft
Encoding: 299 8216 64
Width: 160
Flags: W
VStem: 36 88<366.444 426.239>
Fore
82.2282 435.05 m 1
 101.202 435.593 124 419.03 124 395 c 0
 124 373.034 105.977 355 84 355 c 0
 62.15 355 35.5052 371.603 36 408 c 0
 36.2899 429.324 39.1946 462.303 85 505.195 c 1
 85 512 l 1
 144.209 512 l 1
 117.496 490.63 l 2
 102.456 478.597 87.8884 453.771 82.2282 435.05 c 1
EndSplineSet
EndChar
StartChar: a
Encoding: 65 97 65
Width: 367
VWidth: 946
Flags: W
HStem: -5.78027 50.4903<90.3946 210.723> 161.387 43.211<164.891 266.334> 295.29 50.49<112.822 228.769>
VStem: 35.0537 52.9209<68.0473 167.5> 266.334 52.92<115.915 161.387>
Fore
334.362 -0.169922 m 1
 276.269 -0.169922 l 1
 269.765 13.3877 265.354 33.4902 266.45 46.3467 c 1
 236.976 16.9473 197.096 -5.78027 151.674 -5.78027 c 0
 69.8574 -5.78027 35.0537 48.8311 35.0537 93.3301 c 0
 35.0537 203.714 189.866 204.599 265.559 204.598 c 1
 259.129 263.27 216.632 295.29 176.174 295.29 c 0
 127.442 295.29 102.695 255.855 94.9551 245.263 c 1
 52.0137 272.576 l 1
 63.2021 288.405 101.236 345.78 176.174 345.78 c 0
 248.305 345.78 317.164 290.168 319.253 193.491 c 2
 319.254 81.1748 l 2
 319.254 50.7471 325.614 16.5254 334.362 -0.169922 c 1
151.674 44.71 m 0
 197.923 44.71 244.475 79.9814 266.334 115.915 c 1
 266.334 161.387 l 1
 184.179 159.688 87.9746 150.384 87.9746 93.3301 c 0
 87.9746 73.8818 104.536 44.71 151.674 44.71 c 0
EndSplineSet
EndChar
StartChar: b
Encoding: 66 98 66
Width: 409
VWidth: 951
Flags: W
HStem: -4.80762 50.4902<160.426 289.396> 294.393 50.49<161.161 289.393>
VStem: 48.1963 52.9157<33.4801 51.9551 78.3415 261.736 289.329 499.808> 324.556 51.94<78.3389 261.735>
Fore
101.112 51.9551 m 1
 100.965 27.0674 97.0771 15.1123 92.1611 -0.132812 c 1
 33.0879 -0.132812 l 1
 46.2637 25.0088 48.1963 76.6338 48.1963 99.9121 c 2
 48.1963 499.808 l 1
 101.116 499.808 l 1
 101.116 289.329 l 1
 129.117 322.067 173.086 344.883 212.836 344.883 c 0
 305.797 344.883 376.496 263.991 376.496 170.037 c 0
 376.496 76.085 305.795 -4.80762 212.836 -4.80762 c 0
 172.521 -4.80762 128.884 19.7568 101.112 51.9551 c 1
101.116 170.037 m 0
 101.116 99.502 153.945 45.6826 212.836 45.6826 c 0
 271.728 45.6826 324.556 99.5 324.556 170.037 c 0
 324.556 240.574 271.726 294.393 212.836 294.393 c 0
 153.943 294.393 101.116 240.575 101.116 170.037 c 0
EndSplineSet
EndChar
StartChar: c
Encoding: 67 99 67
Width: 374
VWidth: 946
Flags: W
HStem: -4.84473 51.4248<120.1 278.643> 293.42 51.425<119.764 274.228>
VStem: 33 51.9395<79.2356 262.543>
Fore
296.106 113.398 m 1
 341.885 88.2012 l 1
 326.327 61.2646 283.794 -4.84473 196.66 -4.84473 c 0
 103.699 -4.84473 33 76.0459 33 170 c 0
 33 263.952 103.7 344.845 196.66 344.845 c 0
 288.588 344.845 330.796 270.994 341.885 251.8 c 1
 296.106 226.602 l 1
 284.323 246.641 256.328 293.42 196.66 293.42 c 0
 137.509 293.42 84.9395 241.403 84.9395 170.935 c 0
 84.9395 100.397 137.768 46.5801 196.66 46.5801 c 0
 259.724 46.5801 287.814 99.2988 296.106 113.398 c 1
EndSplineSet
EndChar
StartChar: d
Encoding: 68 100 68
Width: 409
VWidth: 951
Flags: W
HStem: -4.80762 50.4902<120.104 249.07> 294.393 50.49<120.102 248.335>
VStem: 33 51.9404<78.3415 261.736> 308.38 52.92<78.3389 261.735 289.329 499.808>
Fore
376.408 -0.132812 m 1
 317.335 -0.132812 l 1
 312.415 15.123 308.531 27.0508 308.384 51.9551 c 1
 280.612 19.7568 236.975 -4.80762 196.66 -4.80762 c 0
 103.699 -4.80762 33 76.084 33 170.037 c 0
 33 263.99 103.701 344.883 196.66 344.883 c 0
 236.41 344.883 280.379 322.067 308.38 289.329 c 1
 308.38 499.808 l 1
 361.3 499.808 l 1
 361.3 99.9121 l 2
 361.3 69.4844 367.66 16.5635 376.408 -0.132812 c 1
308.38 170.037 m 0
 308.38 240.574 255.551 294.393 196.66 294.393 c 0
 137.769 294.393 84.9404 240.575 84.9404 170.037 c 0
 84.9404 99.502 137.771 45.6826 196.66 45.6826 c 0
 255.553 45.6826 308.38 99.5 308.38 170.037 c 0
EndSplineSet
EndChar
StartChar: e
Encoding: 69 101 69
Width: 397
VWidth: 946
Flags: W
HStem: -4.84473 51.4248<124.06 242.012> 158.78 49.555<91.8477 304.413> 294.355 50.49<136.455 260.118>
VStem: 33 331.07<158.78 196.153 158.78 170>
Fore
91.8477 208.335 m 1
 304.413 208.335 l 1
 289.362 259.438 245.7 294.355 197.641 294.355 c 0
 150.575 294.355 106.907 259.445 91.8477 208.335 c 1
85.3906 158.78 m 1
 90.6289 93.957 140.814 46.5801 196.66 46.5801 c 0
 239.689 46.5801 279.708 68.8535 305.907 113.398 c 1
 351.686 88.2012 l 1
 305.256 7.81445 231.546 -4.84473 196.66 -4.84473 c 0
 103.699 -4.84473 33 76.0459 33 170 c 0
 33 264.052 104.723 344.845 197.641 344.845 c 0
 286.21 344.845 354.983 271.982 362.249 184.843 c 2
 364.07 158.78 l 1
 85.3906 158.78 l 1
EndSplineSet
EndChar
StartChar: f
Encoding: 70 102 70
Width: 197
VWidth: 951
Flags: W
HStem: 289.043 50.489<19.8164 48.2363 101.156 180.192> 453.668 41.14<128.346 193.276>
VStem: 48.2363 52.9197<0.192383 289.043 339.532 409.022>
Fore
48.2363 289.043 m 1
 19.8164 289.043 l 1
 19.8164 339.532 l 1
 48.2363 339.532 l 1
 48.2363 357.362 l 2
 48.2363 432.005 106.598 494.808 181.517 494.808 c 2
 193.276 494.808 l 1
 193.276 453.668 l 1
 181.517 453.668 l 2
 140.616 453.668 101.156 409.022 101.156 357.362 c 2
 101.156 339.532 l 1
 197.832 339.532 l 1
 180.192 289.043 l 1
 101.156 289.043 l 1
 101.156 0.192383 l 1
 48.2363 0.192383 l 1
 48.2363 289.043 l 1
EndSplineSet
EndChar
StartChar: g
Encoding: 71 103 71
Width: 408
VWidth: 940
Flags: W
HStem: -164.32 50.49<145.402 273.218> -5.37012 50.4902<118.144 248.335> 293.83 50.49<118.14 249.071>
VStem: 33 49.9805<77.7788 261.174> 308.384 52.916<-81.1715 50.1826 77.7762 261.173 287.557 306.032>
Fore
308.384 287.557 m 1
 308.531 312.445 312.419 324.399 317.335 339.645 c 1
 376.408 339.645 l 1
 363.232 314.503 361.3 262.879 361.3 239.6 c 2
 361.3 10.5254 l 2
 361.3 -83.626 288.557 -164.32 195.681 -164.32 c 0
 139.216 -164.32 105.003 -137.615 77.9131 -111.773 c 1
 116.491 -76.6396 l 1
 133.822 -93.1758 157.231 -113.83 196.66 -113.83 c 0
 255.551 -113.83 308.38 -60.0107 308.38 10.5254 c 2
 308.38 50.1826 l 1
 280.379 17.4443 236.41 -5.37012 196.66 -5.37012 c 0
 103.699 -5.37012 33 75.5215 33 169.475 c 0
 33 263.428 103.701 344.32 196.66 344.32 c 0
 236.976 344.32 280.612 319.756 308.384 287.557 c 1
306.42 169.475 m 0
 306.42 240.012 253.591 293.83 194.7 293.83 c 0
 135.808 293.83 82.9805 240.013 82.9805 169.475 c 0
 82.9805 98.9395 135.811 45.1201 194.7 45.1201 c 0
 253.593 45.1201 306.42 98.9375 306.42 169.475 c 0
EndSplineSet
EndChar
StartChar: h
Encoding: 72 104 72
Width: 362
VWidth: 951
Flags: W
HStem: 294.555 50.49<153.653 264.07>
VStem: 48 52.92<0.0302734 211.909 280.653 499.97> 261.641 52.92<0.0302734 255.643>
Fore
48 0.0302734 m 1
 48 499.97 l 1
 100.92 499.97 l 1
 100.92 280.653 l 1
 126.977 315.575 164.778 345.045 201.86 345.045 c 0
 280.112 345.045 314.561 279.033 314.561 207.6 c 2
 314.561 0.0302734 l 1
 261.641 0.0302734 l 1
 261.641 207.6 l 2
 261.641 244.556 249.488 294.555 200.88 294.555 c 0
 154.346 294.555 100.92 211.909 100.92 170.2 c 2
 100.92 0.0302734 l 1
 48 0.0302734 l 1
EndSplineSet
EndChar
StartChar: i
Encoding: 73 105 73
Width: 147
VWidth: 949
Flags: W
HStem: 377.763 72.929<46.5502 101.451>
VStem: 35.7803 76.4397<388.037 440.418> 47.54 52.92<0.307617 339.647>
Fore
74 450.692 m 0xc0
 95.127 450.692 112.22 434.374 112.22 414.228 c 0
 112.22 394.07 95.1162 377.763 74 377.763 c 0
 52.873 377.763 35.7803 394.081 35.7803 414.228 c 0
 35.7803 434.384 52.8848 450.692 74 450.692 c 0xc0
100.46 0.307617 m 1xa0
 47.54 0.307617 l 1
 47.54 339.647 l 1
 100.46 339.647 l 1
 100.46 0.307617 l 1xa0
EndSplineSet
EndChar
StartChar: j
Encoding: 74 106 74
Width: 147
VWidth: 946
Flags: W
HStem: -97.3125 45.8154<-16.6904 29.7869> 377.383 72.929<46.0199 100.921>
VStem: 35.25 76.44<387.657 440.038> 47.9902 52.9198<-24.541 340.268>
Fore
47.9902 340.268 m 1xd0
 100.91 340.268 l 1
 100.91 12.082 l 2
 100.91 -46.5684 55.3818 -97.3125 -4.92969 -97.3125 c 2
 -16.6904 -97.3125 l 1
 -16.6904 -51.4971 l 1
 -4.92969 -51.4971 l 2
 21.7754 -51.4971 47.9902 -24.541 47.9902 12.082 c 2
 47.9902 340.268 l 1xd0
73.4697 450.312 m 0
 94.5967 450.312 111.69 433.994 111.69 413.848 c 0
 111.69 393.69 94.5859 377.383 73.4697 377.383 c 0
 52.3428 377.383 35.25 393.701 35.25 413.848 c 0xe0
 35.25 434.004 52.3545 450.312 73.4697 450.312 c 0
EndSplineSet
EndChar
StartChar: k
Encoding: 75 107 75
Width: 343
VWidth: 951
Flags: W
VStem: 48 52.92<0.0302734 158.548 226.384 499.97>
Fore
100.92 0.0302734 m 1
 48 0.0302734 l 1
 48 499.97 l 1
 100.92 499.97 l 1
 100.92 226.384 l 1
 232.601 340.37 l 1
 311.658 340.37 l 1
 157.462 206.629 l 1
 343.069 0.0302734 l 1
 273.874 0.0302734 l 1
 118.329 173.015 l 1
 100.92 158.548 l 1
 100.92 0.0302734 l 1
EndSplineSet
EndChar
StartChar: l
Encoding: 76 108 76
Width: 148
VWidth: 951
Flags: W
VStem: 48 52.92<0.0302734 499.97>
Fore
100.92 0.0302734 m 1
 48 0.0302734 l 1
 48 499.97 l 1
 100.92 499.97 l 1
 100.92 0.0302734 l 1
EndSplineSet
EndChar
StartChar: m
Encoding: 77 109 77
Width: 534
VWidth: 946
Flags: W
HStem: 294.485 49.555<148.104 242.474 336.265 435.532>
VStem: 48.3154 52.7756<-0.0400391 232.767 273.896 279.811> 240.396 52.919<-0.0400391 226.825> 433.456 52.92<-0.0400391 254.227>
Fore
101.091 273.896 m 1
 101.234 308.898 100.077 316.127 92.2812 340.3 c 1
 33.208 340.3 l 1
 41.9561 323.604 48.3154 270.683 48.3154 240.255 c 2
 48.3154 -0.0400391 l 1
 101.235 -0.0400391 l 1
 101.235 170.13 l 2
 101.235 218.312 153.567 294.485 188.456 294.485 c 0
 230.008 294.485 240.396 244.171 240.396 207.53 c 2
 240.396 -0.0400391 l 1
 293.315 -0.0400391 l 1
 293.315 169.195 l 2
 293.315 213.526 343.666 293.55 381.516 293.55 c 0
 423.067 293.55 433.456 243.235 433.456 206.595 c 2
 433.456 -0.0400391 l 1
 486.376 -0.0400391 l 1
 486.376 206.595 l 2
 486.376 274.818 456.944 344.04 382.496 344.04 c 0
 346.934 344.04 311.095 312.795 287.812 273.53 c 1
 273.57 314.232 243.949 344.04 194.336 344.04 c 0
 158.773 344.04 120.836 312.25 101.091 273.896 c 1
EndSplineSet
EndChar
StartChar: n
Encoding: 78 110 78
Width: 362
VWidth: 946
Flags: W
HStem: 294.518 50.49<153.498 263.636>
VStem: 47.5654 52.9196<-0.0078125 224.385 274.689 279.843> 261.206 52.92<-0.0078125 255.606>
Fore
91.5312 340.332 m 1
 99.3154 316.196 100.484 309.066 100.485 274.689 c 1
 124.006 309.478 164.558 345.008 201.426 345.008 c 0
 279.678 345.008 314.126 278.995 314.126 207.562 c 2
 314.126 -0.0078125 l 1
 261.206 -0.0078125 l 1
 261.206 207.562 l 2
 261.206 244.519 249.054 294.518 200.446 294.518 c 0
 153.911 294.518 100.485 211.872 100.485 170.162 c 2
 100.485 -0.0078125 l 1
 47.5654 -0.0078125 l 1
 47.5654 240.287 l 2
 47.5654 270.715 41.2061 323.637 32.458 340.332 c 1
 91.5312 340.332 l 1
EndSplineSet
EndChar
StartChar: o
Encoding: 79 111 79
Width: 430
VWidth: 946
Flags: W
HStem: -4.84473 50.4892<122.783 309.736> 294.355 50.49<122.783 309.736>
VStem: 33 52.9199<80.8161 259.184> 346.601 50.96<80.8161 259.184>
Fore
397.561 170 m 0
 397.561 73.1689 315.867 -4.84473 215.28 -4.84473 c 0
 114.693 -4.84473 33 73.1689 33 170 c 0
 33 266.831 114.693 344.845 215.28 344.845 c 0
 315.867 344.845 397.561 266.83 397.561 170 c 0
85.9199 170 m 0
 85.9199 101.397 144.355 45.6445 216.261 45.6445 c 0
 288.165 45.6445 346.601 101.397 346.601 170 c 0
 346.601 238.603 288.165 294.355 216.261 294.355 c 0
 144.355 294.355 85.9199 238.603 85.9199 170 c 0
EndSplineSet
EndChar
StartChar: p
Encoding: 80 112 80
Width: 409
VWidth: 941
Flags: W
HStem: -4.55762 50.4902<161.161 289.396> 294.643 50.49<160.426 289.393>
VStem: 48.1963 52.9197<-150.133 50.9951 78.5915 261.986> 324.556 51.94<78.5889 261.985>
Fore
33.0879 340.457 m 1
 92.1611 340.457 l 1
 97.0811 325.202 100.965 313.274 101.112 288.369 c 1
 128.884 320.568 172.521 345.133 212.836 345.133 c 0
 305.797 345.133 376.496 264.241 376.496 170.287 c 0
 376.496 76.335 305.795 -4.55762 212.836 -4.55762 c 0
 173.086 -4.55762 129.117 18.2568 101.116 50.9951 c 1
 101.116 -150.133 l 1
 48.1963 -150.133 l 1
 48.1963 240.412 l 2
 48.1963 270.84 41.8359 323.762 33.0879 340.457 c 1
101.116 170.287 m 0
 101.116 99.752 153.945 45.9326 212.836 45.9326 c 0
 271.728 45.9326 324.556 99.75 324.556 170.287 c 0
 324.556 240.824 271.726 294.643 212.836 294.643 c 0
 153.943 294.643 101.116 240.825 101.116 170.287 c 0
EndSplineSet
EndChar
StartChar: q
Encoding: 81 113 81
Width: 409
VWidth: 941
Flags: W
HStem: -4.55762 50.4902<120.104 248.335> 294.643 50.49<120.102 249.071>
VStem: 33 51.9404<78.5915 261.986> 308.384 52.916<-140.133 50.9951 78.5889 261.985 288.369 306.844>
Fore
308.384 288.369 m 1
 308.531 313.258 312.419 325.212 317.335 340.457 c 1
 376.408 340.457 l 1
 363.232 315.315 361.3 263.691 361.3 240.412 c 2
 361.3 -140.133 l 1
 308.38 -140.133 l 1
 308.38 50.9951 l 1
 280.379 18.2568 236.41 -4.55762 196.66 -4.55762 c 0
 103.699 -4.55762 33 76.334 33 170.287 c 0
 33 264.24 103.701 345.133 196.66 345.133 c 0
 236.976 345.133 280.612 320.568 308.384 288.369 c 1
308.38 170.287 m 0
 308.38 240.824 255.551 294.643 196.66 294.643 c 0
 137.769 294.643 84.9404 240.825 84.9404 170.287 c 0
 84.9404 99.752 137.771 45.9326 196.66 45.9326 c 0
 255.553 45.9326 308.38 99.75 308.38 170.287 c 0
EndSplineSet
EndChar
StartChar: r
Encoding: 82 114 82
Width: 248
VWidth: 946
Flags: W
VStem: 47.8945 52.9195<0.0419922 210.153>
Fore
100.8 289.588 m 1
 124.991 318.121 152.857 335.962 181.975 346.476 c 1
 248.699 300.177 l 1
 109.104 300.177 100.814 198.438 100.814 174.887 c 2
 100.814 0.0419922 l 1
 47.8945 0.0419922 l 1
 47.8945 240.337 l 2
 47.8945 270.765 41.5352 323.688 32.7871 340.382 c 1
 91.8604 340.382 l 1
 96.6738 325.455 100.499 313.836 100.8 289.588 c 1
EndSplineSet
EndChar
StartChar: s
Encoding: 83 115 83
Width: 304
VWidth: 946
Flags: W
HStem: -5.64062 50.332<113.43 196.064> 295.595 49.91<122.914 177.328>
VStem: 58.9307 53.9003<187.691 287.3> 218.672 52.919<56.9869 197.622>
Fore
254.146 266.007 m 1
 204.503 249.091 l 1
 200.672 259.9 l 2
 191.644 285.365 171.674 295.595 152.826 295.595 c 0
 129.817 295.595 112.831 280.512 112.831 257.886 c 0
 112.831 203.89 271.591 215.159 271.591 103.61 c 0
 271.591 38.0605 214.275 -5.64062 151.563 -5.64062 c 0
 98.4424 -5.64062 44.6367 26.999 34.5312 100.276 c 2
 33 111.382 l 1
 85.7266 118.089 l 1
 87.252 106.932 l 2
 93.3252 62.5107 122.334 44.6914 152.015 44.6914 c 0
 185.899 44.6914 218.672 67.7461 218.672 103.61 c 0
 218.672 175.927 58.9307 155.89 58.9307 257.886 c 0
 58.9307 313.312 104.507 345.505 152.684 345.505 c 0
 184.248 345.505 231.055 330.158 250.373 276.49 c 2
 254.146 266.007 l 1
EndSplineSet
EndChar
StartChar: t
Encoding: 84 116 84
Width: 197
VWidth: 948
Flags: W
HStem: 289.28 50.49<18.8262 48.2266 101.146 180.183>
VStem: 48.2266 52.9194<0.429688 289.28 339.77 414.57>
Fore
101.146 0.429688 m 1
 48.2266 0.429688 l 1
 48.2266 289.28 l 1
 18.8262 289.28 l 1
 18.8262 339.77 l 1
 48.2266 339.77 l 1
 48.2266 414.57 l 1
 101.146 414.57 l 1
 101.146 339.77 l 1
 197.822 339.77 l 1
 180.183 289.28 l 1
 101.146 289.28 l 1
 101.146 0.429688 l 1
EndSplineSet
EndChar
StartChar: u
Encoding: 85 117 85
Width: 360
VWidth: 945
Flags: W
HStem: -5.00781 50.4902<124.14 234.676>
VStem: 48 52.92<82.3184 340.008> 259.68 52.92<67.7104 340.008>
Fore
48 340.008 m 1
 100.92 340.008 l 1
 100.92 132.438 l 2
 100.92 82.3184 136.874 45.4824 179.319 45.4824 c 0
 221.901 45.4824 259.68 82.6475 259.68 132.438 c 2
 259.68 340.008 l 1
 312.6 340.008 l 1
 312.6 132.438 l 2
 312.6 57.9229 255.27 -5.00781 180.3 -5.00781 c 0
 105.328 -5.00781 48 57.9219 48 132.438 c 2
 48 340.008 l 1
EndSplineSet
EndChar
StartChar: v
Encoding: 86 118 86
Width: 339
VWidth: 945
Flags: W
HStem: -5.2168 345.445<8 170.854>
VStem: 8 323.509<340.228 340.228>
Fore
8 340.228 m 1
 64.8965 340.228 l 1
 169.754 125.606 l 1
 273.698 340.228 l 1
 331.509 340.228 l 1
 170.854 -5.2168 l 1
 8 340.228 l 1
EndSplineSet
EndChar
StartChar: w
Encoding: 87 119 87
Width: 553
VWidth: 946
Flags: W
HStem: -5.07812 350.132<278.349 390.174>
Fore
8 340.169 m 1
 65.7295 340.169 l 1
 166.576 129.13 l 1
 278.349 345.054 l 1
 390.022 129.362 l 1
 488.955 340.169 l 1
 545.664 340.169 l 1
 390.174 -5.07812 l 1
 277.416 220.856 l 1
 165.668 -5.01074 l 1
 8 340.169 l 1
EndSplineSet
EndChar
StartChar: x
Encoding: 88 120 88
Width: 334
VWidth: 946
Flags: W
VStem: 8 318.958<-0.169922 -0.169922>
Fore
21.7588 340.17 m 1
 82.5303 340.17 l 1
 166.499 223.483 l 1
 250.469 340.17 l 1
 313.2 340.17 l 1
 198.375 179.359 l 1
 326.958 -0.169922 l 1
 264.164 -0.169922 l 1
 167.479 135.123 l 1
 70.7949 -0.169922 l 1
 8 -0.169922 l 1
 136.583 179.359 l 1
 21.7588 340.17 l 1
EndSplineSet
EndChar
StartChar: y
Encoding: 89 121 89
Width: 338
VWidth: 940
Flags: W
VStem: 8 322.357<340.482 340.482>
Fore
8 340.482 m 1
 63.626 340.482 l 1
 170.107 79.9912 l 1
 273.858 340.482 l 1
 330.357 340.482 l 1
 130.352 -163.482 l 1
 73.8311 -163.482 l 1
 142.95 10.3711 l 1
 8 340.482 l 1
EndSplineSet
EndChar
StartChar: z
Encoding: 90 122 90
Width: 329
VWidth: 946
Flags: W
HStem: -0.169922 50.4902<109.094 296.862> 289.68 50.49<62.3506 221.64>
VStem: 8 313.754<-0.169922 340.17>
Fore
62.3506 340.17 m 1
 321.754 340.17 l 1
 109.094 50.3203 l 1
 314.503 50.3203 l 1
 296.862 -0.169922 l 1
 8 -0.169922 l 1
 221.64 289.68 l 1
 44.7109 289.68 l 1
 62.3506 340.17 l 1
EndSplineSet
EndChar
StartChar: braceleft
Encoding: 91 123 91
Width: 205
Flags: W
HStem: -116 44<129.24 187> 493 44<129.24 187>
VStem: 77 54<-25.5 179.273 247.149 446.561>
Fore
33 229.422 m 1
 65.0889 250.815 77 261.653 77 310 c 2
 77 410 l 2
 77 517.083 136.881 537 175 537 c 2
 187 537 l 1
 187 493 l 1
 175 493 l 2
 139.8 493 131 446.561 131 410.061 c 2
 131 311.061 l 2
 131 260.891 119.578 233.075 97.8066 211.091 c 1
 116.83 191.994 131 164.448 131 111 c 2
 131 11 l 2
 131 -25.5 139.8 -72 175 -72 c 2
 187 -72 l 1
 187 -116 l 1
 175 -116 l 2
 136.873 -116 77 -96.0723 77 11 c 2
 77 111 l 2
 77 163.518 60.1113 173.503 33 191.578 c 1
 33 229.422 l 1
EndSplineSet
EndChar
StartChar: bar
Encoding: 92 124 92
Width: 150
Flags: W
VStem: 48 54<-62 562>
Fore
102 -62 m 1
 48 -62 l 1
 48 562 l 1
 102 562 l 1
 102 -62 l 1
EndSplineSet
EndChar
StartChar: braceright
Encoding: 93 125 93
Width: 206
Flags: W
HStem: -117 44<18 76.8> 493 43<18 75.7603>
VStem: 75 54<-25.4502 172.851 244.775 446.5>
Fore
173 190.578 m 1
 140.911 169.185 129 158.347 129 110 c 2
 129 10 l 2
 129 -95.3125 69.5996 -117 30 -117 c 2
 18 -117 l 1
 18 -73 l 1
 30 -73 l 2
 66 -73 75 -25.4502 75 10 c 2
 75 110 l 2
 75 163.444 89.1738 190.996 108.193 210.09 c 1
 86.418 232.077 74 259.827 74 310 c 2
 74 410 l 2
 74 446.5 65.2002 493 30 493 c 2
 18 493 l 1
 18 536 l 1
 30 536 l 2
 69.5996 536 129 514.312 129 409 c 2
 129 309 l 2
 129 256.482 145.889 246.497 173 228.422 c 1
 173 190.578 l 1
EndSplineSet
EndChar
StartChar: asciitilde
Encoding: 94 126 94
Width: 363
Flags: W
HStem: 115 55<204.375 287.12> 160 55<75.7603 164.062>
VStem: 33 44<118 150.735> 286 44<182.4 212>
Fore
286 212 m 1xb0
 330 212 l 1
 330 200 l 2
 330 139.179 296.385 115 258 115 c 0xb0
 203.625 115 151.125 160 108 160 c 0
 83.2002 160 77 145.95 77 130 c 2
 77 118 l 1
 33 118 l 1
 33 130 l 2
 33 193.802 71.375 215 108 215 c 0x70
 168 215 216.75 170 258 170 c 0
 280.4 170 286 182.4 286 200 c 2
 286 212 l 1xb0
EndSplineSet
EndChar
StartChar: exclamdown
Encoding: 96 161 95
Width: 192
Flags: W
HStem: 265 80<67.4445 124.556>
VStem: 56 80<276.444 333.556> 63.7041 64.5919<-182 -61.83> 74.2891 43.4219<121.83 242>
Fore
74.2891 242 m 1x90
 117.711 242 l 1x90
 128.296 -182 l 1
 63.7041 -182 l 1xa0
 74.2891 242 l 1x90
96 345 m 0
 117.966 345 136 326.977 136 305 c 0
 136 283.034 117.977 265 96 265 c 0
 74.0342 265 56 283.023 56 305 c 0xc0
 56 326.966 74.0225 345 96 345 c 0
EndSplineSet
EndChar
StartChar: cent
Encoding: 97 162 96
Width: 384
Flags: W
VStem: 38 51.9395<99.3089 242.548> 164.348 54<-92 -4.00977 53.9277 286.335 344.008 432>
Fore
218.348 -92 m 1
 164.348 -92 l 1
 164.348 -0.345703 l 1
 90.4258 17.875 38 89.0938 38 170 c 0
 38 250.904 90.4268 322.124 164.348 340.346 c 1
 164.348 432 l 1
 218.348 432 l 1
 218.348 344.008 l 1
 298.752 335.811 336.49 269.792 346.885 251.8 c 1
 301.106 226.602 l 1
 290.482 244.672 266.674 284.484 218.348 292.135 c 1
 218.348 47.873 l 1
 269.773 56.0449 293.585 100.609 301.106 113.398 c 1
 346.885 88.2012 l 1
 332.354 63.0439 294.295 3.71777 218.348 -4.00977 c 1
 218.348 -92 l 1
164.348 53.9277 m 1
 164.348 286.335 l 1
 122.065 269.835 89.9395 226.022 89.9395 170.935 c 0
 89.9395 115.838 122.171 70.9424 164.348 53.9277 c 1
EndSplineSet
EndChar
StartChar: sterling
Encoding: 98 163 97
Width: 395
Flags: W
HStem: -0.0751953 51.5703<131.891 340.419> 222.44 51.57<56.8896 126.986 183.421 271.549> 455.46 50.615<188.402 293.443>
VStem: 114.75 51.409<340.789 445.003> 131.989 51.432<140.835 224.35>
Fore
38 43.6172 m 1xe8
 91.0039 73.4355 136.295 109.961 131.989 222.44 c 1xe8
 39.4297 222.44 l 1
 56.8896 274.01 l 1
 126.986 274.01 l 1
 122.061 315.771 114.75 356.543 114.75 395.295 c 0
 114.75 461.763 171.228 506.075 233.09 506.075 c 0
 279.515 506.075 337.283 482.296 350.909 387.135 c 1
 308.538 386.792 l 1
 306.561 391.814 299.902 455.46 233.09 455.46 c 0
 198.715 455.46 166.159 433.752 166.159 396.25 c 0xf0
 166.159 363.229 173.589 320.534 178.578 275.92 c 1
 289.009 275.92 l 1
 271.549 224.35 l 1
 183.421 224.35 l 1
 185.669 160.108 175.124 100.802 131.891 51.4951 c 1
 357.879 51.4951 l 1
 340.419 -0.0751953 l 1
 50.6797 -0.0751953 l 1
 38 43.6172 l 1xe8
EndSplineSet
EndChar
StartChar: fraction
Encoding: 312 8260 98
Width: 395
Flags: W
VStem: -22.237 438.474<-12 512>
Fore
349.803 512 m 1
 416.237 512 l 1
 44.197 -12 l 1
 -22.237 -12 l 1
 349.803 512 l 1
EndSplineSet
EndChar
StartChar: yen
Encoding: 100 165 99
Width: 434
Flags: W
HStem: 127.76 53.48<73.7275 191.097 243.478 357.938> 206.07 53.48<74.6973 162.229 272.345 360.847>
VStem: 191.097 52.381<-0.209961 127.76 181.24 206.07>
Fore
357.938 181.24 m 1
 357.938 127.76 l 1
 243.478 127.76 l 1
 243.478 -0.209961 l 1
 191.097 -0.209961 l 1
 191.097 127.76 l 1
 73.7275 127.76 l 1
 73.7275 181.24 l 1
 191.097 181.24 l 1
 191.097 206.07 l 1
 74.6973 206.07 l 1
 74.6973 259.55 l 1
 162.229 259.55 l 1
 8 500.21 l 1
 69.4766 500.21 l 1
 217.287 269.566 l 1
 365.098 500.21 l 1
 426.574 500.21 l 1
 272.345 259.55 l 1
 360.847 259.55 l 1
 360.847 206.07 l 1
 243.478 206.07 l 1
 243.478 181.24 l 1
 357.938 181.24 l 1
EndSplineSet
EndChar
StartChar: florin
Encoding: 200 402 100
Width: 281
Flags: W
HStem: -53.8604 42.0206<-33.4883 39.9046> 249.83 51.57<66.8154 112.887 177.863 261.266> 461.84 42.02<230.238 303.632>
VStem: -33.4883 337.12<-53.8604 503.86>
Fore
280.669 301.4 m 1
 261.266 249.83 l 1
 167.262 249.83 l 1
 127.028 52.8867 l 2
 113.115 -23.2432 48.4736 -53.8604 -21.7285 -53.8604 c 2
 -33.4883 -53.8604 l 1
 -33.4883 -11.8398 l 1
 -21.7285 -11.8398 l 2
 25.6816 -11.8398 65.7305 14.0625 74.5146 62.8535 c 2
 112.887 249.83 l 1
 49.1758 249.83 l 1
 66.8154 301.4 l 1
 123.471 301.4 l 1
 143.131 397.193 l 2
 158.681 472.956 221.601 503.86 291.872 503.86 c 2
 303.632 503.86 l 1
 303.632 461.84 l 1
 291.872 461.84 l 2
 244.461 461.84 204.411 435.927 195.627 387.136 c 2
 177.863 301.4 l 1
 280.669 301.4 l 1
EndSplineSet
EndChar
StartChar: section
Encoding: 102 167 101
Width: 315
Flags: W
HStem: -44.085 51.5704<120.378 201.438> 452.515 51.57<113.729 185.867>
VStem: 39.7275 52.3809<189.117 269.813 367.249 440.997> 222.088 53.35<19.0029 95.1567 191.647 270.622>
Fore
38 77.2002 m 1
 90.6963 77.2002 l 1
 92.0117 67.2129 l 2
 98.1416 20.6582 128.628 7.48535 156.128 7.48535 c 0
 190.982 7.48535 222.088 30.0088 222.088 66.6953 c 0
 222.088 145.488 39.7275 120.619 39.7275 245.28 c 0
 39.7275 256.836 40.8096 291.197 71.1348 321.177 c 1
 41.6211 347.469 39.7275 378.782 39.7275 393.305 c 0
 39.7275 459.773 96.2061 504.085 158.068 504.085 c 0
 210.263 504.085 264.699 472.135 275.327 396.792 c 2
 277.167 383.755 l 1
 223.577 383.755 l 1
 222.195 393.656 l 2
 214.818 446.574 175.908 452.515 159.038 452.515 c 0
 124.185 452.515 93.0781 429.991 93.0781 393.305 c 0
 93.0781 314.481 275.438 340.467 275.438 215.675 c 0
 275.438 185.064 262.906 158.757 243.998 139.803 c 1
 273.543 113.505 275.438 82.1787 275.438 67.6504 c 0
 275.438 0.609375 218.171 -44.085 157.098 -44.085 c 0
 104.715 -44.085 50.459 -11.1201 39.8389 64.1631 c 2
 38 77.2002 l 1
223.058 215.675 m 0
 223.058 257.942 169.045 269.812 117.178 292.492 c 1
 95.1631 277.937 92.1084 257.766 92.1084 246.235 c 0
 92.1084 202.298 146.989 191.102 197.11 168.504 c 1
 219.766 183.413 223.058 203.897 223.058 215.675 c 0
EndSplineSet
EndChar
StartChar: currency
Encoding: 99 164 102
Width: 437
Flags: W
HStem: 99 55<175.957 262.929> 358 54<175.088 262.34>
VStem: 63 54<212.113 299.001> 321 55<213.03 297.63>
Fore
349.591 343.754 m 1
 366.406 318.34 376 288.023 376 256 c 0
 376 222.946 365.55 191.699 347.765 166.079 c 1
 405.897 106.927 l 1
 368 69.0294 l 1
 309.846 127.183 l 1
 284.241 109.43 253.022 99 220 99 c 0
 186.121 99 154.725 109.448 129.081 127.236 c 1
 68.9278 68.1016 l 1
 30.9566 106.073 l 1
 91.1317 165.228 l 1
 73.4094 190.82 63 222.01 63 255 c 0
 63 288.847 73.4283 320.215 91.1845 345.845 c 1
 38.0294 399 l 1
 76 436.971 l 1
 129.143 383.827 l 1
 154.501 401.504 184.991 412 218 412 c 0
 252.108 412 283.586 400.601 309.183 381.882 c 1
 366.153 436.818 l 1
 403.892 399.079 l 1
 349.591 343.754 l 1
117 256 m 0
 117 199.609 162.61 154 219 154 c 0
 275.391 154 321 199.61 321 256 c 0
 321 312.391 275.39 358 219 358 c 0
 162.609 358 117 312.39 117 256 c 0
EndSplineSet
EndChar
StartChar: quotesingle
Encoding: 7 39 103
Width: 176
Flags: W
VStem: 55.0415 65.9175<493.003 532 532 532>
Fore
109.112 378 m 1
 66.8876 378 l 1
 55.0415 532 l 1
 120.959 532 l 1
 109.112 378 l 1
EndSplineSet
EndChar
StartChar: quotedblleft
Encoding: 302 8220 104
Width: 248
Flags: W
HStem: 355 80.05<82.2282 106.894 170.177 193.762>
VStem: 36 88<366.444 426.239> 124 88<365.444 426.202>
Fore
82.2282 435.05 m 1
 101.202 435.593 124 419.03 124 395 c 0
 124 373.034 105.977 355 84 355 c 0
 62.15 355 35.5052 371.603 36 408 c 0
 36.2899 429.324 39.1946 462.303 85 505.195 c 1
 85 512 l 1
 144.209 512 l 1
 117.496 490.63 l 2
 102.456 478.597 87.8884 453.771 82.2282 435.05 c 1
170.177 434.048 m 1
 188.319 434.622 212 418.771 212 394 c 0
 212 372.034 193.977 354 172 354 c 0
 150.15 354 123.497 370.603 124 407 c 0
 124.303 428.93 127.495 461.628 173 505.118 c 1
 173 512 l 1
 232.209 512 l 1
 205.496 490.63 l 2
 190.466 478.605 175.812 453.104 170.177 434.048 c 1
EndSplineSet
EndChar
StartChar: guillemotleft
Encoding: 106 171 105
Width: 297
Flags: W
HStem: 38 264<222.601 289.127>
VStem: 18 271.127<170 302>
Fore
222.601 302 m 1
 289.127 302 l 1
 194.526 170 l 1
 289.127 38 l 1
 222.601 38 l 1
 128 170 l 1
 222.601 302 l 1
112.6 302 m 1
 179.127 302 l 1
 84.5273 170 l 1
 179.127 38 l 1
 112.6 38 l 1
 18 170 l 1
 112.6 302 l 1
EndSplineSet
EndChar
StartChar: guilsinglleft
Encoding: 310 8249 106
Width: 159
Flags: W
HStem: 38 264<91.8365 158.363>
VStem: -2.76347 161.126<170 302>
Fore
91.8365 302 m 1
 158.363 302 l 1
 63.7635 170 l 1
 158.363 38 l 1
 91.8365 38 l 1
 -2.76347 170 l 1
 91.8365 302 l 1
EndSplineSet
EndChar
StartChar: guilsinglright
Encoding: 311 8250 107
Width: 159
Flags: W
HStem: 38 264<0.636526 67.1635>
VStem: 0.636526 161.126<170 302>
Fore
0.636526 302 m 1
 67.1635 302 l 1
 161.763 170 l 1
 67.1635 38 l 1
 0.636532 38 l 1
 95.2365 170 l 1
 0.636526 302 l 1
EndSplineSet
EndChar
StartChar: endash
Encoding: 297 8211 108
Width: 262
Flags: W
HStem: 143 54<36 226>
Fore
226 197 m 1
 226 143 l 1
 36 143 l 1
 36 197 l 1
 226 197 l 1
EndSplineSet
EndChar
StartChar: dagger
Encoding: 305 8224 109
Width: 392
Flags: W
HStem: 302.557 54.886<36 118.793 273.207 356> 307.552 44.905<91.0571 173.605 218.395 300.943>
VStem: 168.855 54.29<-108 141.58 416.005 512> 173.85 44.3<57.9717 307.552 352.457 448.452>
Fore
223.145 -108 m 1x60
 168.855 -108 l 1x60
 173.85 307.552 l 1x50
 36 302.557 l 1
 36 357.443 l 1x90
 173.605 352.457 l 1
 168.619 512 l 1
 223.381 512 l 1
 218.395 352.457 l 1x50
 356 357.443 l 1
 356 302.557 l 1x90
 218.15 307.552 l 1x50
 223.145 -108 l 1x60
EndSplineSet
EndChar
StartChar: daggerdbl
Encoding: 306 8225 110
Width: 392
Flags: W
HStem: 75.5573 54.8857<36 118.8 273.2 356> 80.5452 44.8978<91.1999 173.666 218.334 300.8> 274.557 54.886<36 118.798 273.202 356> 279.557 44.898<91.2 173.665 218.335 300.8>
VStem: 168.678 54.644<-108 5.39913 399.202 512> 173.666 44.668<-32.8539 80.5452 125.443 279.557 324.455 437.253>
Fore
223.322 -108 m 1x48
 168.678 -108 l 1x48
 173.666 80.5452 l 1x44
 36 75.5573 l 1
 36 130.443 l 1x84
 174 125.443 l 1
 174 279.557 l 1x54
 36 274.557 l 1
 36 329.443 l 1x24
 173.665 324.455 l 1
 168.677 512 l 1
 223.323 512 l 1
 218.335 324.455 l 1x14
 356 329.443 l 1
 356 274.557 l 1x24
 218 279.557 l 1
 218 125.443 l 1x54
 356 130.443 l 1
 356 75.5573 l 1x84
 218.334 80.5452 l 1x44
 223.322 -108 l 1x48
EndSplineSet
EndChar
StartChar: periodcentered
Encoding: 118 183 111
Width: 192
Flags: W
HStem: 210 80<67.4441 124.556>
VStem: 56 80<221.444 278.556>
Fore
96 290 m 0
 117.966 290 136 271.977 136 250 c 0
 136 228.034 117.977 210 96 210 c 0
 74.0339 210 56 228.023 56 250 c 0
 56 271.966 74.0228 290 96 290 c 0
EndSplineSet
EndChar
StartChar: paragraph
Encoding: 117 182 112
Width: 435
Flags: W
HStem: 447.772 51.571<299.899 334.819>
VStem: 247.52 52.379<-81.3428 142.208> 334.819 52.38<-81.3428 447.772>
Fore
299.899 -81.3428 m 1
 247.52 -81.3428 l 1
 247.52 142.208 l 1
 110.565 144.219 38 231.39 38 320.758 c 0
 38 411.175 112.28 499.343 252.369 499.343 c 2
 387.199 499.343 l 1
 387.199 -81.3428 l 1
 334.819 -81.3428 l 1
 334.819 447.772 l 1
 299.899 447.772 l 1
 299.899 -81.3428 l 1
EndSplineSet
EndChar
StartChar: bullet
Encoding: 307 8226 113
Width: 332
Flags: W
Fore
166 332 m 0
 237.813 332 296 272.5 296 200 c 0
 296 127.5 237.812 68 166 68 c 0
 94.187 68 36 127.5 36 200 c 0
 36 272.5 94.1878 332 166 332 c 0
EndSplineSet
EndChar
StartChar: quotesinglbase
Encoding: 301 8218 114
Width: 192
Flags: W
VStem: 56 88<-5.46129 51.5559>
Fore
96 63 m 0
 119.175 63 144 45.2 144 10 c 0
 144 -52.1134 90.8296 -90.0606 90.012 -90.7381 c 1
 83 -93 l 1
 33.7906 -93 l 1
 60.5037 -71.6296 l 2
 75.7544 -59.429 89.6565 -35.8357 95.7485 -16.9992 c 1
 73.8964 -16.8623 56 1.1067 56 23 c 0
 56 44.9661 74.0228 63 96 63 c 0
EndSplineSet
EndChar
StartChar: quotedblbase
Encoding: 304 8222 115
Width: 282
Flags: W
HStem: -16.9991 79.9991<67.4296 95.7485 157.43 185.749>
VStem: 56 88<-5.46129 51.5559> 146 88<-5.46115 51.5559>
Fore
186 63 m 0
 209.175 63 234 45.2 234 10 c 0
 234 -52.1134 180.83 -90.0606 180.012 -90.7381 c 1
 173 -93 l 1
 123.791 -93 l 1
 150.504 -71.6296 l 2
 165.754 -59.4289 179.657 -35.8355 185.749 -16.9991 c 1
 163.896 -16.8622 146 1.10681 146 23 c 0
 146 44.9661 164.023 63 186 63 c 0
96 63 m 0
 119.175 63 144 45.2 144 10 c 0
 144 -52.1134 90.8296 -90.0606 90.012 -90.7381 c 1
 83 -93 l 1
 33.7906 -93 l 1
 60.5037 -71.6296 l 2
 75.7544 -59.429 89.6565 -35.8357 95.7485 -16.9992 c 1
 73.8964 -16.8623 56 1.1067 56 23 c 0
 56 44.9661 74.0228 63 96 63 c 0
EndSplineSet
EndChar
StartChar: quotedblright
Encoding: 303 8221 116
Width: 249
Flags: W
HStem: 430.948 80.052<53.0508 77.708 142.051 166.708>
VStem: 36 88<439.76 499.556> 125 88<439.76 499.556>
Fore
166.708 430.948 m 1
 147.741 430.479 125 446.969 125 471 c 0
 125 492.966 143.023 511 165 511 c 0
 186.85 511 213 494.4 213 458 c 0
 213 395.887 159.83 357.939 159.012 357.262 c 1
 152 355 l 1
 102.449 355 l 1
 130.727 376.545 l 2
 146.4 388.486 160.996 412.588 166.708 430.948 c 1
77.708 430.948 m 1
 58.7409 430.479 36 446.969 36 471 c 0
 36 492.966 54.0228 511 76 511 c 0
 97.85 511 124 494.4 124 458 c 0
 124 395.887 70.8296 357.939 70.012 357.262 c 1
 63 355 l 1
 13.4494 355 l 1
 41.7275 376.545 l 2
 57.4003 388.486 71.9961 412.588 77.708 430.948 c 1
EndSplineSet
EndChar
StartChar: guillemotright
Encoding: 122 187 117
Width: 297
Flags: W
HStem: 38 264<8 74.5273>
VStem: 8 271.127<170 302>
Fore
8 302 m 1
 74.5273 302 l 1
 169.127 170 l 1
 74.5273 38 l 1
 8 38 l 1
 102.6 170 l 1
 8 302 l 1
118 302 m 1
 184.526 302 l 1
 279.127 170 l 1
 184.526 38 l 1
 118 38 l 1
 212.601 170 l 1
 118 302 l 1
EndSplineSet
EndChar
StartChar: ellipsis
Encoding: 308 8230 118
Width: 592
Flags: W
HStem: -17 80<67.4441 124.556 268.444 325.556 467.444 524.556>
VStem: 56 80<-5.55593 51.5559> 257 80<-5.55593 51.5559> 456 80<-5.55593 51.5559>
Fore
96 63 m 0
 117.966 63 136 44.9772 136 23 c 0
 136 1.0339 117.977 -17 96 -17 c 0
 74.0339 -17 56 1.02277 56 23 c 0
 56 44.9661 74.0228 63 96 63 c 0
496 63 m 0
 517.966 63 536 44.9772 536 23 c 0
 536 1.0339 517.977 -17 496 -17 c 0
 474.034 -17 456 1.02277 456 23 c 0
 456 44.9661 474.023 63 496 63 c 0
297 63 m 0
 318.966 63 337 44.9772 337 23 c 0
 337 1.0339 318.977 -17 297 -17 c 0
 275.034 -17 257 1.02277 257 23 c 0
 257 44.9661 275.023 63 297 63 c 0
EndSplineSet
EndChar
StartChar: perthousand
Encoding: 309 8240 119
Width: 742
Flags: W
HStem: -18 55<328.986 411.016 578.986 661.016> 147 55<328.984 411.014 578.984 661.014> 295 55<80.986 163.016> 460 55<80.9832 163.014>
VStem: 12 54<365.542 444.454> 178 54<365.546 444.458> 260 54<52.5423 131.454> 426 54<52.546 131.458> 510 54<51.5423 130.454> 676 54<51.546 130.458>
Fore
480 92 m 0
 480 31.3565 430.643 -18 370 -18 c 0
 309.357 -18 260 31.3573 260 92 c 0
 260 152.643 309.357 202 370 202 c 0
 430.643 202 480 152.643 480 92 c 0
314 92 m 0
 314 61.6479 338.451 37 370 37 c 0
 401.551 37 426 61.6508 426 92 c 0
 426 122.352 401.549 147 370 147 c 0
 338.449 147 314 122.349 314 92 c 0
730 91 m 0
 730 30.3565 680.643 -19 620 -19 c 0
 559.357 -19 510 30.3573 510 91 c 0
 510 151.643 559.357 201 620 201 c 0
 680.643 201 730 151.643 730 91 c 0
564 91 m 0
 564 60.6479 588.451 36 620 36 c 0
 651.551 36 676 60.6508 676 91 c 0
 676 121.352 651.549 146 620 146 c 0
 588.449 146 564 121.349 564 91 c 0
232 405 m 0
 232 344.357 182.643 295 122 295 c 0
 61.3565 295 12 344.357 12 405 c 0
 12 465.643 61.3573 515 122 515 c 0
 182.643 515 232 465.643 232 405 c 0
66 405 m 0
 66 374.648 90.4508 350 122 350 c 0
 153.551 350 178 374.651 178 405 c 0
 178 435.352 153.549 460 122 460 c 0
 90.4486 460 66 435.349 66 405 c 0
398.803 509 m 1
 465.237 509 l 1
 93.197 -15 l 1
 26.763 -15 l 1
 398.803 509 l 1
EndSplineSet
EndChar
StartChar: questiondown
Encoding: 126 191 120
Width: 366
Flags: W
HStem: -189 54<114.853 252.341> 265 80<164.444 221.556>
VStem: 38 54<-116.976 27.2437> 153 80<276.444 333.556> 165 54<78.2441 237> 274 54<-100.621 -39>
Fore
193 265 m 0xf4
 171.034 265 153 283.023 153 305 c 0
 153 326.966 171.023 345 193 345 c 0
 214.966 345 233 326.977 233 305 c 0
 233 283.034 214.977 265 193 265 c 0xf4
165 237 m 1xec
 219 237 l 1
 219 175 l 2
 219 52.998 92 9.1875 92 -51 c 0
 92 -101.751 128.964 -135 176 -135 c 0
 234.724 -135 274 -89.1699 274 -51 c 2
 274 -39 l 1
 328 -39 l 1
 328 -51 l 2
 328 -124.682 259.23 -189 176 -189 c 0
 97.04 -189 38 -130.179 38 -51 c 0
 38 42.2246 165 78.2441 165 175 c 2
 165 237 l 1xec
EndSplineSet
EndChar
StartChar: grave
Encoding: 64 96 121
Width: 143
Flags: W
VStem: 4.76035 106.943<400 522>
Fore
111.703 400 m 1
 64.5155 400 l 1
 4.76035 522 l 1
 70.6213 522 l 1
 111.703 400 l 1
EndSplineSet
EndChar
StartChar: acute
Encoding: 115 180 122
Width: 212
Flags: W
HStem: 388 144<109.767 137.396>
VStem: 46.1958 178.771<388 532>
Fore
137.396 532 m 1
 224.967 532 l 1
 109.767 388 l 1
 46.1958 388 l 1
 137.396 532 l 1
EndSplineSet
EndChar
StartChar: circumflex
Encoding: 201 710 123
Width: 232
Flags: W
HStem: 478 113<99.6956 235.147>
VStem: -3.14712 238.294<478 478>
Fore
99.6956 591 m 1
 132.304 591 l 1
 235.147 478 l 1
 161.762 478 l 1
 116 527.351 l 1
 70.2378 478 l 1
 -3.14712 478 l 1
 99.6956 591 l 1
EndSplineSet
EndChar
StartChar: tilde
Encoding: 206 732 124
Width: 218
Flags: W
HStem: 480.014 34.986<67 153.668>
VStem: 12 43.9911<431 510.442> 163 43<479.24 511>
Fore
12 443 m 2
 12 504.166 45 515 67 515 c 0
 103.892 515 135.915 481.32 153.668 480.014 c 2
 153.668 480.014 148.355 479.945 154 480 c 0
 155.837 480.018 163 483.8 163 499 c 2
 163 511 l 1
 206 511 l 1
 206 499 l 2
 206 443.7 185.2 425 154 425 c 0
 104.226 425 58.0001 494.772 55.9911 442.539 c 2
 55.5473 431 l 1
 12 431 l 1
 12 443 l 2
EndSplineSet
EndChar
StartChar: macron
Encoding: 110 175 125
Width: 302
Flags: W
HStem: 393 54<36 266>
Fore
266 447 m 1
 266 393 l 1
 36 393 l 1
 36 447 l 1
 266 447 l 1
EndSplineSet
EndChar
StartChar: dotaccent
Encoding: 203 729 126
Width: 192
Flags: W
HStem: 403 80<67.4441 124.556>
VStem: 56 80<414.444 471.556>
Fore
96 483 m 0
 117.966 483 136 464.977 136 443 c 0
 136 421.034 117.977 403 96 403 c 0
 74.0339 403 56 421.023 56 443 c 0
 56 464.966 74.0228 483 96 483 c 0
EndSplineSet
EndChar
StartChar: dieresis
Encoding: 103 168 127
Width: 224
Flags: W
HStem: 393 80<23.4441 80.5559 143.444 200.556>
VStem: 12 80<404.444 461.556> 132 80<404.444 461.556>
Fore
52 473 m 0
 73.9661 473 92 454.977 92 433 c 0
 92 411.034 73.9772 393 52 393 c 0
 30.0339 393 12 411.023 12 433 c 0
 12 454.966 30.0228 473 52 473 c 0
172 473 m 0
 193.966 473 212 454.977 212 433 c 0
 212 411.034 193.977 393 172 393 c 0
 150.034 393 132 411.023 132 433 c 0
 132 454.966 150.023 473 172 473 c 0
EndSplineSet
EndChar
StartChar: ring
Encoding: 204 730 128
Width: 192
Flags: W
HStem: 364 54<74.8325 117.169> 478 54<74.8307 117.168>
VStem: 12 54<426.831 469.168> 126 54<426.832 469.169>
Fore
180 448 m 0
 180 401.45 142.548 364 96 364 c 0
 49.4502 364 12 401.452 12 448 c 0
 12 494.55 49.4525 532 96 532 c 0
 142.55 532 180 494.548 180 448 c 0
66 448 m 0
 66 431.716 79.7173 418 96 418 c 0
 112.284 418 126 431.717 126 448 c 0
 126 464.284 112.283 478 96 478 c 0
 79.7159 478 66 464.283 66 448 c 0
EndSplineSet
EndChar
StartChar: cedilla
Encoding: 119 184 129
Width: 210
Flags: W
HStem: -154 158<99.0986 153.56 99.0986 100>
VStem: 31.4561 142.544<-129.588 -90>
Fore
99.0986 4 m 5
 154.518 4 l 5
 134.128 -32.249 l 5
 171.325 -45.1572 174 -74.8232 174 -90 c 5
 174 -128.074 141.2 -153.213 100 -154 c 5
 80.6475 -154 60.335 -148.274 41.4814 -136.075 c 6
 31.4561 -129.588 l 5
 60.4834 -84.2334 l 5
 70.6562 -91.0156 l 6
 106.108 -114.65 147.817 -86.7988 94.2031 -77.8633 c 6
 54.6084 -72.4668 l 5
 99.0986 4 l 5
EndSplineSet
EndChar
StartChar: hungarumlaut
Encoding: 207 733 130
Width: 342
Flags: W
HStem: 388 144<109.767 137.396>
VStem: 46.1958 308.771<388 532>
Fore
137.396 532 m 1
 224.967 532 l 1
 109.767 388 l 1
 46.1958 388 l 1
 137.396 532 l 1
267.396 532 m 1
 354.967 532 l 1
 239.767 388 l 1
 176.196 388 l 1
 267.396 532 l 1
EndSplineSet
EndChar
StartChar: ogonek
Encoding: 205 731 131
Width: 203
Flags: W
HStem: -143 49<98.1528 130.432>
VStem: 36 55<-94.76 -52.868>
Fore
36 -76 m 0
 36 -40.0757 62.5552 -9.3181 82.8571 12 c 1
 148.352 12 l 1
 128.615 -8.35375 l 2
 95.3733 -42.634 91 -61.6707 91 -75 c 0
 91 -90.2 107.3 -94 115 -94 c 0
 120.3 -94 126.976 -91.768 132.8 -87.4 c 2
 141.92 -80.5598 l 1
 172.646 -117.431 l 1
 161.798 -124.889 l 2
 143.926 -137.175 124.502 -143 106 -143 c 0
 67.35 -143 36 -116.2 36 -76 c 0
EndSplineSet
EndChar
StartChar: caron
Encoding: 202 711 132
Width: 232
Flags: W
HStem: 478 113<-3.14712 132.304>
VStem: -3.14712 238.294<591 591>
Fore
132.304 478 m 1
 99.6956 478 l 1
 -3.14712 591 l 1
 70.2378 591 l 1
 116 541.649 l 1
 161.762 591 l 1
 235.147 591 l 1
 132.304 478 l 1
EndSplineSet
EndChar
StartChar: emdash
Encoding: 298 8212 133
Width: 462
Flags: W
HStem: 143 54<36 426>
Fore
426 197 m 1
 426 143 l 1
 36 143 l 1
 36 197 l 1
 426 197 l 1
EndSplineSet
EndChar
StartChar: AE
Encoding: 133 198 134
Width: 558
Flags: W
HStem: -0.209961 51.5704<367.614 520.497> 147.815 51.57<150.014 285.896> 262.415 51.57<327.834 493.057> 448.64 51.57<292.528 512.657>
Fore
493.057 313.985 m 1
 493.057 262.415 l 1
 327.834 262.415 l 1
 367.614 51.3604 l 1
 520.497 51.3604 l 1
 520.497 -0.209961 l 1
 323.554 -0.209961 l 1
 295.133 147.815 l 1
 127.545 147.815 l 1
 64.8242 -0.209961 l 1
 8 -0.209961 l 1
 220.598 500.21 l 1
 512.657 500.21 l 1
 512.657 448.64 l 1
 292.528 448.64 l 1
 317.651 313.985 l 1
 493.057 313.985 l 1
150.014 199.385 m 1
 285.896 199.385 l 1
 244.333 421.378 l 1
 150.014 199.385 l 1
EndSplineSet
EndChar
StartChar: ordfeminine
Encoding: 105 170 135
Width: 281
Flags: W
HStem: 196 50<88.8742 168.493> 334 45<94.3082 185.992> 420 49<84.7493 173.148>
VStem: 25 50<251.652 334.116> 200 52<288.293 325.995>
Fore
200 314.699 m 2
 200 325.995 l 1
 183.126 330.512 161.933 334 142 334 c 0
 105.314 334 75 323.705 75 289 c 0
 75 260.271 97.2109 246 125 246 c 0
 169.611 246 197.396 294.387 200 314.699 c 2
71.4219 383.652 m 1
 29.4521 397.635 l 1
 39.834 415.119 70.5771 469 134 469 c 0
 197.945 469 252 422.408 252 346 c 2
 252 275 l 2
 252 246.983 260.908 211.848 262.63 204.958 c 1
 212.37 193.79 l 1
 208.933 206.679 206.491 214.153 203.854 233.745 c 1
 184.854 212.632 158.456 196 125 196 c 0
 68.4873 196 25 233.2 25 289 c 0
 25 355.951 82.8193 379 139 379 c 0
 159.1 379 179.026 376.217 197.076 371.385 c 1
 188.587 402.155 163.652 420 132 420 c 0
 95.6533 420 77.9248 394.921 71.4219 383.652 c 1
EndSplineSet
EndChar
StartChar: Lslash
Encoding: 191 321 136
Width: 389
VWidth: 965
Flags: W
HStem: -0.0791016 51.543<100.92 356.699>
VStem: 48 52.92<51.4639 139 258.142 500.079>
Fore
356.699 -0.0791016 m 1
 48 -0.0791016 l 1
 48 139 l 1
 0 96.3193 l 1
 0 168.397 l 1
 48 211.082 l 1
 48 500.079 l 1
 100.92 500.079 l 1
 100.92 258.142 l 1
 223 366.703 l 1
 223 294.607 l 1
 100.92 186.056 l 1
 100.92 51.4639 l 1
 356.699 51.4639 l 1
 356.699 -0.0791016 l 1
EndSplineSet
EndChar
StartChar: Oslash
Encoding: 151 216 137
Width: 587
VWidth: 965
Flags: W
HStem: -4.85156 51.543<248.183 443.161> 453.309 51.543<144.198 339.016>
VStem: 33 52.9199<169.222 395.724> 501.439 52.92<104.276 330.915>
Fore
125.537 -54.5234 m 1
 80.3213 -25.5859 l 1
 130.714 51.1204 l 1
 71.1797 97.8062 33 169.512 33 250 c 0
 33 390.879 149.966 504.852 293.68 504.852 c 0
 335.82 504.852 375.66 495.053 410.926 477.649 c 1
 461.428 554.521 l 1
 506.679 525.56 l 1
 456.415 449.06 l 1
 516.081 402.379 554.359 330.592 554.359 250 c 0
 554.359 109.121 437.394 -4.85156 293.68 -4.85156 c 0
 251.424 -4.85156 211.48 5.00179 176.142 22.4953 c 1
 125.537 -54.5234 l 1
427.709 405.371 m 1
 204.827 66.1522 l 1
 231.747 53.675 261.863 46.6914 293.68 46.6914 c 0
 408.665 46.6914 501.439 137.905 501.439 250 c 0
 501.439 312.242 472.836 368.045 427.709 405.371 c 1
382.239 433.984 m 1
 355.394 446.376 325.381 453.309 293.68 453.309 c 0
 178.694 453.309 85.9199 362.095 85.9199 250 c 0
 85.9199 187.863 114.427 132.143 159.422 94.8184 c 1
 382.239 433.984 l 1
EndSplineSet
EndChar
StartChar: OE
Encoding: 193 338 138
Width: 670
Flags: W
HStem: -4.98535 51.5704<149.198 330.832> -0.209961 51.5704<377.08 632.859> 262.415 51.57<377.08 613.26> 448.64 51.57<376.1 631.88> 453.415 51.57<149.198 330.832>
VStem: 38 52.9199<104.201 395.799> 324.16 51.94<51.3604 262.415 313.985 448.64>
Fore
376.1 313.985 m 1x36
 613.26 313.985 l 1
 613.26 262.415 l 1
 377.08 262.415 l 1
 377.08 51.3604 l 1
 632.859 51.3604 l 1
 632.859 -0.209961 l 1
 348.764 -0.209961 l 1x76
 332.844 -3.06738 315.871 -4.98535 298.68 -4.98535 c 0
 154.966 -4.98535 38 109.048 38 250 c 0
 38 390.952 154.966 504.985 298.68 504.985 c 0xae
 315.871 504.985 332.844 503.067 348.764 500.21 c 1
 631.88 500.21 l 1
 631.88 448.64 l 1
 376.1 448.64 l 1
 376.1 313.985 l 1x36
324.16 47.96 m 1
 324.16 452.041 l 1
 315.931 452.952 307.304 453.415 298.68 453.415 c 0x2e
 183.694 453.415 90.9199 362.153 90.9199 250 c 0
 90.9199 137.847 183.694 46.585 298.68 46.585 c 0
 307.304 46.585 315.931 47.0488 324.16 47.96 c 1
EndSplineSet
EndChar
StartChar: ordmasculine
Encoding: 121 186 139
Width: 275
Flags: W
HStem: 195 53<86.9615 189.039> 394 53<86.9602 189.038>
VStem: 12 54<268.451 373.547> 210 54<268.453 373.549>
Fore
264 321 m 0
 264 251.39 207.609 195 138 195 c 0
 68.3904 195 12 251.391 12 321 c 0
 12 390.61 68.3912 447 138 447 c 0
 207.61 447 264 390.609 264 321 c 0
66 321 m 0
 66 280.578 98.7396 248 138 248 c 0
 177.261 248 210 280.579 210 321 c 0
 210 361.422 177.26 394 138 394 c 0
 98.7386 394 66 361.421 66 321 c 0
EndSplineSet
EndChar
StartChar: ae
Encoding: 165 230 140
Width: 635
VWidth: 946
Flags: W
HStem: -5.78027 50.4903<90.3406 211.744 359.968 474.958> 158.78 49.555<167.104 265.505 324.794 537.359> 294.355 50.49<112.77 228.715 369.401 493.064>
VStem: 35 52.9209<68.0473 167.46>
Fore
151.62 44.71 m 0
 197.869 44.71 244.421 79.9814 266.28 115.915 c 1
 266.28 158.83 l 2
 266.229 159.68 266.185 160.531 266.145 161.384 c 1
 184.02 159.678 87.9209 150.353 87.9209 93.3301 c 0
 87.9209 73.8818 104.482 44.71 151.62 44.71 c 0
324.794 208.335 m 1
 537.359 208.335 l 1
 522.309 259.438 478.646 294.355 430.587 294.355 c 0
 383.521 294.355 339.854 259.445 324.794 208.335 c 1
319.199 158.78 m 1
 319.199 150.939 l 2
 327.678 90.1719 376.038 46.5801 429.606 46.5801 c 0
 472.636 46.5801 512.654 68.8535 538.854 113.398 c 1
 584.632 88.2012 l 1
 538.202 7.81445 464.492 -4.84473 429.606 -4.84473 c 0
 370.812 -4.84473 320.924 27.5117 292.193 75.0654 c 1
 260.198 28.3232 204.123 -5.78027 151.62 -5.78027 c 0
 69.8037 -5.78027 35 48.8311 35 93.3301 c 0
 35 203.714 189.812 208.599 265.505 208.598 c 1
 259.075 267.27 216.578 295.29 176.12 295.29 c 0
 127.389 295.29 102.642 255.855 94.9014 245.263 c 1
 51.96 272.576 l 1
 63.1484 288.405 101.183 345.78 176.12 345.78 c 0
 224.913 345.78 272.209 320.333 298.354 273.941 c 1
 328.022 316.543 375.592 344.845 430.587 344.845 c 0
 519.156 344.845 587.93 271.982 595.195 184.843 c 2
 597.017 158.78 l 1
 319.199 158.78 l 1
EndSplineSet
EndChar
StartChar: lslash
Encoding: 192 322 141
Width: 148
VWidth: 965
Flags: W
VStem: 48 52.92<-0.0791016 144.103 263.721 500.079>
Fore
100.92 -0.0791016 m 1
 48 -0.0791016 l 1
 48 144.103 l 1
 9 109.161 l 1
 9 181.365 l 1
 48 216.307 l 1
 48 500.079 l 1
 100.92 500.079 l 1
 100.92 263.721 l 1
 139 297.839 l 1
 139 225.635 l 1
 100.92 191.517 l 1
 100.92 -0.0791016 l 1
EndSplineSet
EndChar
StartChar: oslash
Encoding: 183 248 142
Width: 430
VWidth: 946
Flags: W
HStem: -4.84473 50.4892<179.316 309.736> 294.355 50.49<122.783 236.64>
VStem: 33 52.9199<126.639 259.184> 346.601 50.96<80.8161 227.751>
Fore
397.561 170 m 0
 397.561 73.1689 315.867 -4.84473 215.28 -4.84473 c 0
 190.149 -4.84473 166.197 0.0251486 144.404 8.84166 c 1
 111.639 -53.1582 l 1
 63.333 -28.1113 l 1
 97.3297 36.6297 l 1
 57.9835 68.6574 33 116.451 33 170 c 0
 33 266.831 114.693 344.845 215.28 344.845 c 0
 229.558 344.845 243.455 343.273 256.792 340.299 c 1
 284.604 393.261 l 1
 333.667 366.977 l 1
 308.892 320.097 l 1
 361.99 289.596 397.561 233.894 397.561 170 c 0
232.182 293.434 m 1
 226.964 294.042 221.65 294.355 216.261 294.355 c 0
 144.355 294.355 85.9199 238.603 85.9199 170 c 0
 85.9199 136.645 99.7338 106.327 122.194 83.9787 c 1
 232.182 293.434 l 1
285.301 275.456 m 1
 168.43 54.3065 l 1
 183.244 48.7168 199.381 45.6445 216.261 45.6445 c 0
 288.165 45.6445 346.601 101.397 346.601 170 c 0
 346.601 214.424 322.098 253.459 285.301 275.456 c 1
EndSplineSet
EndChar
StartChar: oe
Encoding: 194 339 143
Width: 716
VWidth: 946
Flags: W
HStem: -4.84473 50.4892<122.783 300.934 438.06 556.012> 158.78 49.555<405.848 618.413> 294.355 50.49<122.783 301.057 450.455 574.118>
VStem: 33 52.9199<80.8161 259.184>
Fore
85.9199 170 m 0
 85.9199 101.397 144.355 45.6445 216.261 45.6445 c 0
 288.165 45.6445 346.601 101.397 346.601 170 c 0
 346.601 238.603 288.165 294.355 216.261 294.355 c 0
 144.355 294.355 85.9199 238.603 85.9199 170 c 0
399.391 158.78 m 1
 404.629 93.957 454.814 46.5801 510.66 46.5801 c 0
 553.689 46.5801 593.708 68.8535 619.907 113.398 c 1
 665.686 88.2012 l 1
 619.256 7.81445 545.546 -4.84473 510.66 -4.84473 c 0
 450.284 -4.84473 399.299 29.2766 370.974 78.9371 c 1
 338.949 28.6283 281.168 -4.84474 215.28 -4.84473 c 0
 114.693 -4.84473 33 73.1689 33 170 c 0
 33 266.831 114.693 344.845 215.28 344.845 c 0
 281.262 344.845 339.115 311.275 371.111 260.846 c 1
 399.706 310.646 451.187 344.845 511.641 344.845 c 0
 600.21 344.845 668.983 271.982 676.249 184.843 c 2
 678.07 158.78 l 1
 399.391 158.78 l 1
405.848 208.335 m 1
 618.413 208.335 l 1
 603.362 259.438 559.7 294.355 511.641 294.355 c 0
 464.575 294.355 420.907 259.445 405.848 208.335 c 1
EndSplineSet
EndChar
StartChar: germandbls
Encoding: 158 223 144
Width: 372
Flags: W
HStem: -4.99023 46.0683<186.866 273.136> 506.15 50.615<132.377 236.462>
VStem: 48.0703 52.9197<0.955078 501.436> 183.31 53.9<237.507 324.257> 263.67 53.9<353.541 492.175> 295.03 53.9<61.5096 211.766>
Fore
147.04 68.7178 m 5xf4
 169.978 49.5596 193.66 41.0781 215.174 41.0781 c 4
 259.76 41.0781 295.03 77.5078 295.03 130.835 c 4xf4
 295.03 193.09 183.31 212.688 183.31 289.365 c 4
 183.31 349.53 263.67 369.585 263.67 423.064 c 4
 263.67 476.226 224.422 506.15 184.29 506.15 c 4
 144.357 506.15 100.99 474.755 100.99 385.82 c 6
 100.99 0.955078 l 5
 48.0703 0.955078 l 5
 48.0703 384.865 l 6
 48.0703 500.616 115.667 556.765 186.25 556.765 c 4
 253.008 556.765 317.57 506.356 317.57 422.11 c 4xf8
 317.57 345.232 237.21 315.985 237.21 288.41 c 4
 237.21 249.254 348.93 217.304 348.93 128.925 c 4
 348.93 52.3584 295.063 -4.99023 223.542 -4.99023 c 4
 187.597 -4.99023 147.192 9.49609 106.926 43.3076 c 5
 147.04 68.7178 l 5xf4
EndSplineSet
EndChar
StartChar: logicalnot
Encoding: 107 172 145
Width: 446
Flags: W
HStem: 263 54<18 374>
VStem: 374 54<108 263>
Fore
428 317 m 1
 428 108 l 1
 374 108 l 1
 374 263 l 1
 18 263 l 1
 18 317 l 1
 428 317 l 1
EndSplineSet
EndChar
StartChar: trademark
Encoding: 314 8482 146
Width: 569
Flags: W
HStem: 552.316 47.75<41.0557 110.635 159.635 229.215>
VStem: 110.635 49<338.396 552.316>
Fore
229.215 600.066 m 1
 229.215 552.316 l 1
 159.635 552.316 l 1
 159.635 338.396 l 1
 110.635 338.396 l 1
 110.635 552.316 l 1
 41.0557 552.316 l 1
 41.0557 600.066 l 1
 229.215 600.066 l 1
459.404 479.51 m 1
 376.923 332.852 l 1
 298.536 479.611 l 1
 270.249 338.352 l 1
 219.77 338.352 l 1
 279.511 605.435 l 1
 378.311 427.847 l 1
 479.106 604.307 l 1
 536.47 338.396 l 1
 487.026 338.396 l 1
 459.404 479.51 l 1
EndSplineSet
EndChar
StartChar: Eth
Encoding: 143 208 147
Width: 457
Flags: W
HStem: -0.209961 51.5704<101.18 159> 224.215 51.57<-0.679688 48.2598 101.18 246.22> 448.64 51.57<101.18 308.984>
VStem: 48.2598 52.9202<51.3604 224.215 275.785 448.64> 366.76 52.92<104.371 395.629>
Fore
101.18 51.3604 m 1
 159 51.3604 l 2
 274.373 51.3604 366.76 137.978 366.76 250 c 0
 366.76 362.022 274.372 448.64 159 448.64 c 2
 101.18 448.64 l 1
 101.18 275.785 l 1
 246.22 275.785 l 1
 246.22 224.215 l 1
 101.18 224.215 l 1
 101.18 51.3604 l 1
48.2598 275.785 m 1
 48.2598 500.21 l 1
 159 500.21 l 2
 302.373 500.21 419.68 391.066 419.68 250 c 0
 419.68 108.933 302.372 -0.209961 159 -0.209961 c 2
 48.2598 -0.209961 l 1
 48.2598 224.215 l 1
 -0.679688 224.215 l 1
 -0.679688 275.785 l 1
 48.2598 275.785 l 1
EndSplineSet
EndChar
StartChar: onehalf
Encoding: 124 189 148
Width: 610
Flags: W
HStem: 0.145508 51.5693<407.167 569.891> 294.285 51.57<431.087 504.998>
VStem: 96.5303 52.3797<161.54 417.573> 360.37 52.38<218.84 279.222> 523.33 54.32<141.327 279.225>
Fore
569.891 51.7148 m 1
 569.891 0.145508 l 1
 345.82 0.145508 l 1
 345.82 24.9756 l 2
 345.82 139.957 523.33 161.859 523.33 230.3 c 0
 523.33 267.935 496.469 294.285 468.04 294.285 c 0
 439.615 294.285 412.75 267.932 412.75 230.3 c 2
 412.75 218.84 l 1
 360.37 218.84 l 1
 360.37 230.3 l 2
 360.37 292.188 407.368 345.855 469.011 345.855 c 0
 530.493 345.855 577.65 293.193 577.65 231.255 c 0
 577.65 135.33 439.362 110.661 407.167 51.7148 c 1
 569.891 51.7148 l 1
435.839 500.565 m 1
 500.28 500.565 l 1
 139.401 0.145508 l 1
 74.9609 0.145508 l 1
 435.839 500.565 l 1
96.5303 417.573 m 1
 67.3154 397.66 l 1
 37.7061 440.529 l 1
 148.91 515.64 l 1
 148.91 161.54 l 1
 96.5303 161.54 l 1
 96.5303 417.573 l 1
EndSplineSet
Ligature2: "'frac' Diagonal Fractions in Latin lookup 42" one fraction two
Ligature2: "'frac' Diagonal Fractions in Latin lookup 42" one slash two
EndChar
StartChar: plusminus
Encoding: 112 177 149
Width: 317
Flags: W
HStem: 0.157227 51.5703<18 299.301> 214.582 51.57<18 132.46 184.841 299.301>
VStem: 132.46 52.381<101.893 214.582 266.152 378.843>
Fore
299.301 51.7275 m 1
 299.301 0.157227 l 1
 18 0.157227 l 1
 18 51.7275 l 1
 299.301 51.7275 l 1
184.841 101.893 m 1
 132.46 101.893 l 1
 132.46 214.582 l 1
 18 214.582 l 1
 18 266.152 l 1
 132.46 266.152 l 1
 132.46 378.843 l 1
 184.841 378.843 l 1
 184.841 266.152 l 1
 299.301 266.152 l 1
 299.301 214.582 l 1
 184.841 214.582 l 1
 184.841 101.893 l 1
EndSplineSet
EndChar
StartChar: Thorn
Encoding: 157 222 150
Width: 387
Flags: W
HStem: 101.02 52.525<95.4365 266.903> 346.455 50.615<95.4365 266.908>
VStem: 48.0801 52.9199<-0.209961 104.732 157.566 342.434 393.357 500.21> 296.02 53.9<171.446 328.565>
Fore
101 342.434 m 5
 101 157.566 l 5
 119.392 154.878 136.929 153.545 152.94 153.545 c 4
 240.604 153.545 296.02 189.574 296.02 250 c 4
 296.02 310.435 240.608 346.455 152.94 346.455 c 4
 136.929 346.455 119.392 345.122 101 342.434 c 5
48.0801 -0.209961 m 5
 48.0801 500.21 l 5
 101 500.21 l 5
 101 393.357 l 5
 118.584 395.831 136.048 397.07 152.94 397.07 c 4
 273.027 397.07 349.92 337.86 349.92 249.045 c 4
 349.92 160.23 273.027 101.02 152.94 101.02 c 4
 136.048 101.02 118.584 102.259 101 104.732 c 5
 101 -0.209961 l 5
 48.0801 -0.209961 l 5
EndSplineSet
EndChar
StartChar: onequarter
Encoding: 123 188 151
Width: 610
Flags: W
HStem: 51.7148 52.5252<385.763 475.808 528.188 560.913>
VStem: 96.5371 52.3809<161.54 417.573> 475.808 51.41<0.145508 51.7148 104.24 221.07>
Fore
465.916 500.565 m 1
 530.357 500.565 l 1
 169.479 0.145508 l 1
 105.038 0.145508 l 1
 465.916 500.565 l 1
475.808 104.24 m 1
 475.808 221.07 l 1
 385.763 104.24 l 1
 475.808 104.24 l 1
96.5371 417.573 m 1
 67.3223 397.66 l 1
 37.7139 440.529 l 1
 148.918 515.64 l 1
 148.918 161.54 l 1
 96.5371 161.54 l 1
 96.5371 417.573 l 1
475.808 51.7148 m 1
 279.722 51.7148 l 1
 527.218 373.268 l 1
 527.218 104.24 l 1
 578.123 104.24 l 1
 560.913 51.7148 l 1
 528.188 51.7148 l 1
 528.188 0.145508 l 1
 475.808 0.145508 l 1
 475.808 51.7148 l 1
EndSplineSet
Ligature2: "'frac' Diagonal Fractions in Latin lookup 42" one fraction four
Ligature2: "'frac' Diagonal Fractions in Latin lookup 42" one slash four
EndChar
StartChar: divide
Encoding: 182 247 152
Width: 362
Flags: W
HStem: 117 80<152.444 209.556> 223 54<36 326> 303 80<152.444 209.556>
VStem: 141 80<128.444 185.556 314.444 371.556>
CounterMasks: 1 00
Fore
181 197 m 0
 202.966 197 221 178.977 221 157 c 0
 221 135.034 202.977 117 181 117 c 0
 159.034 117 141 135.023 141 157 c 0
 141 178.966 159.023 197 181 197 c 0
181 383 m 0
 202.966 383 221 364.977 221 343 c 0
 221 321.034 202.977 303 181 303 c 0
 159.034 303 141 321.023 141 343 c 0
 141 364.966 159.023 383 181 383 c 0
326 277 m 1
 326 223 l 1
 36 223 l 1
 36 277 l 1
 326 277 l 1
EndSplineSet
EndChar
StartChar: brokenbar
Encoding: 101 166 153
Width: 126
Flags: W
VStem: 36 54<-182 112 228 522>
Fore
90 228 m 1
 36 228 l 1
 36 522 l 1
 90 522 l 1
 90 228 l 1
90 -182 m 1
 36 -182 l 1
 36 112 l 1
 90 112 l 1
 90 -182 l 1
EndSplineSet
EndChar
StartChar: degree
Encoding: 111 176 154
Width: 266
Flags: W
HStem: 394 55<102.516 163.489> 533 55<102.511 163.484>
VStem: 36 55<460.511 521.484> 175 55<460.516 521.489>
Fore
230 491 m 0
 230 437.396 186.602 394 133 394 c 0
 79.3963 394 36 437.398 36 491 c 0
 36 544.604 79.3976 588 133 588 c 0
 186.604 588 230 544.602 230 491 c 0
91 491 m 0
 91 467.547 109.551 449 133 449 c 0
 156.453 449 175 467.551 175 491 c 0
 175 514.453 156.449 533 133 533 c 0
 109.547 533 91 514.449 91 491 c 0
EndSplineSet
EndChar
StartChar: thorn
Encoding: 189 254 155
Width: 385
Flags: W
HStem: -5.80957 52.5244<148.206 284.45> 294.745 50.615<148.207 284.448>
VStem: 39.4102 52.9199<-166.385 42.2979 123.087 238.628 300.252 499.385> 319.69 53.9<77.2588 264.2>
Fore
92.3301 -166.385 m 1
 39.4102 -166.385 l 1
 39.4102 499.385 l 1
 92.3301 499.385 l 1
 92.3301 300.252 l 1
 121.916 329.603 161.546 345.36 206.01 345.36 c 0
 300.696 345.36 373.59 265.962 373.59 169.775 c 0
 373.59 73.5889 300.695 -5.80957 206.01 -5.80957 c 0
 161.545 -5.80957 121.916 12.9473 92.3301 42.2979 c 1
 92.3301 -166.385 l 1
92.3174 180.858 m 2
 92.3174 160.602 l 2
 96.875 93.0918 147.586 46.7148 205.03 46.7148 c 0
 266.122 46.7148 319.69 98.8291 319.69 170.73 c 0
 319.69 242.63 266.121 294.745 205.03 294.745 c 0
 147.584 294.745 96.875 248.369 92.3174 180.858 c 2
EndSplineSet
EndChar
StartChar: threequarters
Encoding: 125 190 156
Width: 610
Flags: W
HStem: 52.4277 51.5693<405.37 495.415 547.795 580.435> 155.567 50.616<101.587 190.841> 328.423 51.569<134.575 175.716> 453.527 51.571<116.597 175.835>
VStem: 31.7549 52.3799<233.505 278.763> 53.0947 52.3803<402.912 441.979> 186.955 50.44<387.536 441.976> 208.295 50.439<223.364 311.239> 495.415 51.41<-0.0976562 52.4277 103.997 220.827>
Fore
31.7549 278.763 m 1xf980
 84.1348 278.763 l 1
 84.1348 267.303 l 2
 84.1348 233.505 111.886 206.183 146.215 206.183 c 0
 180.543 206.183 208.295 233.504 208.295 267.303 c 0xf980
 208.295 301.1 180.544 328.423 146.215 328.423 c 2
 134.575 328.423 l 1
 134.575 379.992 l 1
 146.215 379.992 l 2
 168.908 379.992 186.955 393.729 186.955 414.372 c 0
 186.955 435.606 169 453.527 146.215 453.527 c 0
 123.432 453.527 105.475 435.608 105.475 414.372 c 2
 105.475 402.912 l 1
 53.0947 402.912 l 1
 53.0947 414.372 l 2
 53.0947 464.584 94.2461 505.098 145.245 505.098 c 0
 196.244 505.098 237.395 464.583 237.395 414.372 c 0xf680
 237.395 392.021 228.94 371.366 213.773 355.555 c 1
 240.892 335.241 258.734 303.324 258.734 267.303 c 0
 258.734 205.595 207.92 155.567 145.245 155.567 c 0
 82.5684 155.567 31.7549 205.596 31.7549 267.303 c 2
 31.7549 278.763 l 1xf980
504.924 500.322 m 1
 569.364 500.322 l 1
 208.485 -0.0976562 l 1
 144.045 -0.0976562 l 1
 504.924 500.322 l 1
495.415 103.997 m 1
 495.415 220.827 l 1
 405.37 103.997 l 1
 495.415 103.997 l 1
495.415 52.4277 m 1
 299.329 52.4277 l 1
 546.825 373.979 l 1
 546.825 103.997 l 1
 597.895 103.997 l 1
 580.435 52.4277 l 1
 547.795 52.4277 l 1
 547.795 -0.0976562 l 1
 495.415 -0.0976562 l 1
 495.415 52.4277 l 1
EndSplineSet
Ligature2: "'frac' Diagonal Fractions in Latin lookup 42" three fraction four
Ligature2: "'frac' Diagonal Fractions in Latin lookup 42" three slash four
EndChar
StartChar: registered
Encoding: 109 174 157
Width: 592
Flags: W
HStem: -4.98535 51.5704<148.063 443.976> 221.35 51.57<257.22 299.767> 348.365 51.57<257.22 339.557> 453.415 51.57<148.063 443.976>
VStem: 38 52.3799<104.201 395.799> 204.84 52.38<100.065 221.35 272.92 348.365> 350.34 52.38<281.803 338.618> 501.659 52.38<104.201 395.799>
Fore
427.249 100.065 m 1
 366.696 100.065 l 1
 299.767 221.35 l 1
 257.22 221.35 l 1
 257.22 100.065 l 1
 204.84 100.065 l 1
 204.84 399.935 l 1
 314.449 399.935 l 2
 363.909 399.935 402.72 359.092 402.72 310.165 c 0
 402.72 275.787 383.259 245.399 354.211 230.9 c 1
 427.249 100.065 l 1
90.3799 250 m 0
 90.3799 137.847 182.207 46.585 296.02 46.585 c 0
 409.832 46.585 501.659 137.847 501.659 250 c 0
 501.659 362.153 409.832 453.415 296.02 453.415 c 0
 182.207 453.415 90.3799 362.153 90.3799 250 c 0
554.039 250 m 0
 554.039 109.048 438.268 -4.98535 296.02 -4.98535 c 0
 153.771 -4.98535 38 109.048 38 250 c 0
 38 390.952 153.771 504.985 296.02 504.985 c 0
 438.268 504.985 554.039 390.952 554.039 250 c 0
257.22 272.92 m 1
 315.42 272.92 l 2
 333.881 272.92 350.34 288.348 350.34 310.165 c 0
 350.34 332.052 333.763 348.365 314.449 348.365 c 2
 257.22 348.365 l 1
 257.22 272.92 l 1
EndSplineSet
EndChar
StartChar: eth
Encoding: 175 240 158
Width: 392
Flags: W
HStem: -5.16309 50.6152<103.543 290.496> 299.481 52.526<125.115 241.696>
VStem: 15.7197 50.96<81.3747 263.558> 327.36 52.92<81.3747 229.222>
Fore
241.422 442.829 m 1
 367.545 333.093 380.28 216.345 380.28 173.422 c 0
 380.28 74.5195 298.587 -5.16309 198 -5.16309 c 0
 97.4131 -5.16309 15.7197 74.5195 15.7197 173.422 c 0
 15.7197 272.324 97.4131 352.007 198 352.007 c 0
 222.442 352.007 245.904 347.461 267.287 338.958 c 1
 246.937 366.912 222.281 392.472 194.999 414.473 c 1
 87.9268 352.459 l 1
 61.4971 397.103 l 1
 148.533 447.993 l 1
 113.625 469.431 83.4036 480.631 53.9355 489.657 c 1
 69.7354 539.271 l 1
 114.39 525.476 153.708 508.251 197.688 477.46 c 1
 305.133 539.69 l 1
 331.59 495.001 l 1
 241.422 442.829 l 1
198 299.481 m 2
 197.02 299.481 l 2
 125.115 299.481 66.6797 242.537 66.6797 172.467 c 0
 66.6797 102.396 125.115 45.4521 197.02 45.4521 c 0
 268.925 45.4521 327.36 102.396 327.36 172.467 c 0
 327.36 248.981 264.518 299.481 198 299.481 c 2
EndSplineSet
EndChar
StartChar: multiply
Encoding: 150 215 159
Width: 384
Flags: W
HStem: 105 290<8 376.25>
VStem: 8 368.25<105 395>
Fore
376.25 105 m 1
 299.152 105 l 1
 193.2 210.952 l 1
 89.1582 105 l 1
 13.4629 105 l 1
 155.187 248.904 l 1
 8 395 l 1
 85.0938 395 l 1
 193.048 287.047 l 1
 299.091 395 l 1
 374.788 395 l 1
 231.062 249.096 l 1
 376.25 105 l 1
EndSplineSet
EndChar
StartChar: copyright
Encoding: 104 169 160
Width: 592
Flags: W
HStem: -4.98535 51.5704<148.063 443.976> 99.1104 51.5696<238.193 356.877> 347.41 51.57<238.196 355.088> 453.415 51.57<148.063 443.976>
VStem: 38 52.3799<104.201 395.799> 158.279 52.38<175.187 322.901> 501.659 52.38<104.201 395.799>
Fore
554.039 250 m 0
 554.039 109.048 438.268 -4.98535 296.02 -4.98535 c 0
 153.771 -4.98535 38 109.048 38 250 c 0
 38 390.952 153.771 504.985 296.02 504.985 c 0
 438.268 504.985 554.039 390.952 554.039 250 c 0
90.3799 250 m 0
 90.3799 137.847 182.207 46.585 296.02 46.585 c 0
 409.832 46.585 501.659 137.847 501.659 250 c 0
 501.659 362.153 409.832 453.415 296.02 453.415 c 0
 182.207 453.415 90.3799 362.153 90.3799 250 c 0
372.021 206.582 m 1
 417.343 180.838 l 1
 403.204 154.896 368.426 99.1104 295.05 99.1104 c 0
 216.714 99.1104 158.279 168.402 158.279 249.045 c 0
 158.279 329.688 216.716 398.98 295.05 398.98 c 0
 368.539 398.98 403.228 343.145 417.343 317.252 c 1
 372.021 291.508 l 1
 362.119 309.376 341.233 347.41 295.05 347.41 c 0
 251.316 347.41 210.659 305.857 210.659 249.045 c 0
 210.659 192.231 251.314 150.68 295.05 150.68 c 0
 342.609 150.68 363.465 191.142 372.021 206.582 c 1
EndSplineSet
EndChar
StartChar: Aacute
Encoding: 128 193 161
Width: 463
VWidth: 966
Flags: W
HStem: 148.444 51.543<151.21 313.924>
VStem: 8.17383 446.826<0.49707 0.49707>
Fore
262.42 641 m 1
 356.769 641 l 1
 228.533 528 l 1
 167.195 528 l 1
 262.42 641 l 1
151.21 199.987 m 1
 313.924 199.987 l 1
 232.567 371.634 l 1
 151.21 199.987 l 1
127.734 148.444 m 1
 65.0146 0.49707 l 1
 8.17383 0.49707 l 1
 231.587 505.81 l 1
 455 0.49707 l 1
 398.159 0.49707 l 1
 335.439 148.444 l 1
 127.734 148.444 l 1
EndSplineSet
EndChar
StartChar: Acircumflex
Encoding: 129 194 162
Width: 463
VWidth: 966
Flags: W
HStem: 148.444 51.543<151.21 313.924>
VStem: 8.17383 446.826<0.49707 0.49707>
Fore
151.21 199.987 m 1
 313.924 199.987 l 1
 232.567 371.634 l 1
 151.21 199.987 l 1
127.734 148.444 m 1
 65.0146 0.49707 l 1
 8.17383 0.49707 l 1
 231.587 505.81 l 1
 455 0.49707 l 1
 398.159 0.49707 l 1
 335.439 148.444 l 1
 127.734 148.444 l 1
215.196 641 m 1
 247.804 641 l 1
 350.647 528 l 1
 277.262 528 l 1
 231.5 577.351 l 1
 185.738 528 l 1
 112.353 528 l 1
 215.196 641 l 1
EndSplineSet
EndChar
StartChar: Adieresis
Encoding: 131 196 163
Width: 463
VWidth: 966
Flags: W
HStem: 148.444 51.543<151.21 313.924> 528 80<142.944 200.056 262.944 320.056>
VStem: 131.5 80<539.444 596.556> 251.5 80<539.444 596.556>
Fore
151.21 199.987 m 5
 313.924 199.987 l 5
 232.567 371.634 l 5
 151.21 199.987 l 5
127.734 148.444 m 5
 65.0146 0.49707 l 5
 8.17383 0.49707 l 5
 231.587 505.81 l 5
 455 0.49707 l 5
 398.159 0.49707 l 5
 335.439 148.444 l 5
 127.734 148.444 l 5
171.5 608 m 4
 193.466 608 211.5 589.977 211.5 568 c 4
 211.5 546.034 193.477 528 171.5 528 c 4
 149.534 528 131.5 546.023 131.5 568 c 4
 131.5 589.966 149.523 608 171.5 608 c 4
291.5 608 m 4
 313.466 608 331.5 589.977 331.5 568 c 4
 331.5 546.034 313.477 528 291.5 528 c 4
 269.534 528 251.5 546.023 251.5 568 c 4
 251.5 589.966 269.523 608 291.5 608 c 4
EndSplineSet
EndChar
StartChar: Agrave
Encoding: 127 192 164
Width: 463
VWidth: 966
Flags: W
HStem: 148.444 51.543<151.21 313.924>
VStem: 8.17383 446.826<0.49707 0.49707>
Fore
90.2313 641 m 1
 184.58 641 l 1
 279.805 528 l 1
 218.467 528 l 1
 90.2313 641 l 1
151.21 199.987 m 1
 313.924 199.987 l 1
 232.567 371.634 l 1
 151.21 199.987 l 1
127.734 148.444 m 1
 65.0146 0.49707 l 1
 8.17383 0.49707 l 1
 231.587 505.81 l 1
 455 0.49707 l 1
 398.159 0.49707 l 1
 335.439 148.444 l 1
 127.734 148.444 l 1
EndSplineSet
EndChar
StartChar: Aring
Encoding: 132 197 165
Width: 463
VWidth: 966
Flags: W
HStem: 148.444 51.543<151.036 313.75> 523 54<210.158 252.495> 637 54<210.157 252.494>
VStem: 147.326 54<585.831 628.168> 261.326 54<585.832 628.169>
Fore
151.036 199.987 m 1
 313.75 199.987 l 1
 232.394 371.634 l 1
 151.036 199.987 l 1
127.561 148.444 m 1
 64.8408 0.49707 l 1
 8 0.49707 l 1
 231.413 505.81 l 1
 454.826 0.49707 l 1
 397.985 0.49707 l 1
 335.266 148.444 l 1
 127.561 148.444 l 1
315.326 607 m 0
 315.326 560.45 277.874 523 231.326 523 c 0
 184.776 523 147.326 560.452 147.326 607 c 0
 147.326 653.55 184.778 691 231.326 691 c 0
 277.876 691 315.326 653.548 315.326 607 c 0
201.326 607 m 0
 201.326 590.716 215.043 577 231.326 577 c 0
 247.61 577 261.326 590.717 261.326 607 c 0
 261.326 623.284 247.609 637 231.326 637 c 0
 215.042 637 201.326 623.283 201.326 607 c 0
EndSplineSet
EndChar
StartChar: Atilde
Encoding: 130 195 166
Width: 463
VWidth: 966
Flags: W
HStem: 148.444 51.543<151.21 313.924> 528 85<134.255 177.292>
VStem: 134.255 43.037<528 567.13> 284.745 44<579.754 608>
Fore
151.21 199.987 m 1
 313.924 199.987 l 1
 232.567 371.634 l 1
 151.21 199.987 l 1
127.734 148.444 m 1
 65.0146 0.49707 l 1
 8.17383 0.49707 l 1
 231.587 505.81 l 1
 455 0.49707 l 1
 398.159 0.49707 l 1
 335.439 148.444 l 1
 127.734 148.444 l 1
177.292 528 m 1
 134.255 528 l 1
 134.755 540.48 l 2
 135.821 567.13 141.024 613 189.745 613 c 0
 236.859 613 272.255 560.776 282.528 583.382 c 0
 283.69 585.939 284.745 589.886 284.745 596 c 2
 284.745 608 l 1
 328.745 608 l 1
 328.745 596 l 2
 328.745 543.252 306.292 523 274.745 523 c 0
 226.502 523 179.763 592.231 177.736 539.539 c 2
 177.292 528 l 1
EndSplineSet
EndChar
StartChar: Ccedilla
Encoding: 134 199 167
Width: 543
VWidth: 965
Flags: W
HStem: 452.354 52.498<144.198 429.78>
VStem: 33 52.9199<103.323 394.768>
Fore
467.32 136.701 m 1
 510.334 108.771 l 1
 459.587 41.0763 394.711 3.10366 318.943 -3.72901 c 1
 302.9 -32.249 l 1
 340.097 -45.1572 342.771 -74.8232 342.771 -90 c 0
 342.771 -128.074 309.972 -153.213 268.771 -154 c 0
 249.42 -154 229.107 -148.274 210.253 -136.075 c 2
 200.229 -129.588 l 1
 229.255 -84.2334 l 1
 239.428 -91.0156 l 2
 274.88 -114.65 316.589 -86.7988 262.975 -77.8633 c 2
 223.38 -72.4668 l 1
 263.693 -3.18014 l 1
 134.044 11.3647 33 119.061 33 250 c 0
 33 390.879 149.966 504.852 293.68 504.852 c 0
 423.438 504.852 490.158 418.139 509.944 391.751 c 1
 467.7 360.893 l 1
 451.672 381.835 398.372 452.354 293.68 452.354 c 0
 178.694 452.354 85.9199 361.14 85.9199 249.046 c 0
 85.9199 136.951 178.694 45.7373 293.68 45.7373 c 0
 397.863 45.7373 451.22 115.669 467.32 136.701 c 1
EndSplineSet
EndChar
StartChar: Eacute
Encoding: 136 201 168
Width: 389
VWidth: 965
Flags: W
HStem: -0.0791016 51.543<100.92 355.72> 262.408 51.543<100.92 336.119> 448.536 51.543<100.92 356.699>
VStem: 48 52.92<51.4639 262.408 313.951 448.536>
Fore
298.769 641 m 5
 170.533 528 l 5
 109.195 528 l 5
 204.42 641 l 5
 298.769 641 l 5
336.119 313.951 m 1
 336.119 262.408 l 1
 100.92 262.408 l 1
 100.92 51.4639 l 1
 355.72 51.4639 l 1
 355.72 -0.0791016 l 1
 48 -0.0791016 l 1
 48 500.079 l 1
 356.699 500.079 l 1
 356.699 448.536 l 1
 100.92 448.536 l 1
 100.92 313.951 l 1
 336.119 313.951 l 1
EndSplineSet
EndChar
StartChar: Ecircumflex
Encoding: 137 202 169
Width: 389
VWidth: 965
Flags: W
HStem: -0.0791016 51.543<100.92 355.72> 262.408 51.543<100.92 336.119> 448.536 51.543<100.92 356.699>
VStem: 48 52.92<51.4639 262.408 313.951 448.536>
Fore
202.085 577.443 m 1
 156.238 528 l 1
 82.8525 528 l 1
 185.696 641 l 1
 219.304 641 l 1
 322.147 528 l 1
 248.831 528 l 1
 202.085 577.443 l 1
336.119 313.951 m 1
 336.119 262.408 l 1
 100.92 262.408 l 1
 100.92 51.4639 l 1
 355.72 51.4639 l 1
 355.72 -0.0791016 l 1
 48 -0.0791016 l 1
 48 500.079 l 1
 356.699 500.079 l 1
 356.699 448.536 l 1
 100.92 448.536 l 1
 100.92 313.951 l 1
 336.119 313.951 l 1
EndSplineSet
EndChar
StartChar: Edieresis
Encoding: 138 203 170
Width: 389
VWidth: 965
Flags: W
HStem: -0.0791016 51.543<100.92 355.72> 262.408 51.543<100.92 336.119> 448.536 51.543<100.92 356.699> 528 80<113.444 170.556 233.444 290.556>
VStem: 48 52.92<51.4639 262.408 313.951 448.536> 102 80<539.444 596.556> 222 80<539.444 596.556>
Fore
142 608 m 0
 163.966 608 182 589.977 182 568 c 0
 182 546.034 163.977 528 142 528 c 0
 120.034 528 102 546.023 102 568 c 0
 102 589.966 120.022 608 142 608 c 0
262 608 m 0
 283.966 608 302 589.977 302 568 c 0
 302 546.034 283.977 528 262 528 c 0
 240.034 528 222 546.023 222 568 c 0
 222 589.966 240.023 608 262 608 c 0
336.119 313.951 m 1
 336.119 262.408 l 1
 100.92 262.408 l 1
 100.92 51.4639 l 1
 355.72 51.4639 l 1
 355.72 -0.0791016 l 1
 48 -0.0791016 l 1
 48 500.079 l 1
 356.699 500.079 l 1
 356.699 448.536 l 1
 100.92 448.536 l 1
 100.92 313.951 l 1
 336.119 313.951 l 1
EndSplineSet
EndChar
StartChar: Egrave
Encoding: 135 200 171
Width: 389
VWidth: 965
Flags: W
HStem: -0.0791016 51.543<100.92 355.72> 262.408 51.543<100.92 336.119> 448.536 51.543<100.92 356.699>
VStem: 48 52.92<51.4639 262.408 313.951 448.536>
Fore
61.2313 641 m 5
 155.58 641 l 5
 250.805 528 l 5
 189.467 528 l 5
 61.2313 641 l 5
336.119 313.951 m 1
 336.119 262.408 l 1
 100.92 262.408 l 1
 100.92 51.4639 l 1
 355.72 51.4639 l 1
 355.72 -0.0791016 l 1
 48 -0.0791016 l 1
 48 500.079 l 1
 356.699 500.079 l 1
 356.699 448.536 l 1
 100.92 448.536 l 1
 100.92 313.951 l 1
 336.119 313.951 l 1
EndSplineSet
EndChar
StartChar: Iacute
Encoding: 140 205 172
Width: 148
VWidth: 965
Flags: W
VStem: 48 52.92<-0.0791016 500.079>
Fore
195.769 641 m 1
 67.5327 528 l 1
 6.19499 528 l 1
 101.42 641 l 1
 195.769 641 l 1
100.92 -0.0791016 m 1
 48 -0.0791016 l 1
 48 500.079 l 1
 100.92 500.079 l 1
 100.92 -0.0791016 l 1
EndSplineSet
EndChar
StartChar: Icircumflex
Encoding: 141 206 173
Width: 148
VWidth: 965
Flags: W
VStem: 48 52.92<-0.0791016 500.079>
Fore
100.92 -0.0791016 m 1
 48 -0.0791016 l 1
 48 500.079 l 1
 100.92 500.079 l 1
 100.92 -0.0791016 l 1
73.585 577.443 m 1
 27.7383 528 l 1
 -45.6475 528 l 1
 57.1953 641 l 1
 90.8047 641 l 1
 193.647 528 l 1
 120.331 528 l 1
 73.585 577.443 l 1
EndSplineSet
EndChar
StartChar: Idieresis
Encoding: 142 207 174
Width: 148
VWidth: 965
Flags: W
HStem: 528 80<-14.5556 42.5555 105.444 162.556>
VStem: -26 80<539.444 596.556> 48 52.92<-0.0791016 500.079> 94 80<539.444 596.556>
Fore
100.92 -0.0791016 m 1xa0
 48 -0.0791016 l 1
 48 500.079 l 1
 100.92 500.079 l 1
 100.92 -0.0791016 l 1xa0
14 608 m 0
 35.9658 608 54 589.977 54 568 c 0
 54 546.034 35.9775 528 14 528 c 0
 -7.96582 528 -26 546.023 -26 568 c 0xc0
 -26 589.966 -7.97754 608 14 608 c 0
134 608 m 0
 155.966 608 174 589.977 174 568 c 0
 174 546.034 155.977 528 134 528 c 0
 112.034 528 94 546.023 94 568 c 0x90
 94 589.966 112.023 608 134 608 c 0
EndSplineSet
EndChar
StartChar: Igrave
Encoding: 139 204 175
Width: 148
VWidth: 965
Flags: W
VStem: 48 52.92<-0.0791016 500.079>
Fore
-69.7687 641 m 1
 24.5803 641 l 1
 119.805 528 l 1
 58.4673 528 l 1
 -69.7687 641 l 1
100.92 -0.0791016 m 1
 48 -0.0791016 l 1
 48 500.079 l 1
 100.92 500.079 l 1
 100.92 -0.0791016 l 1
EndSplineSet
EndChar
StartChar: Ntilde
Encoding: 144 209 176
Width: 561
VWidth: 965
Flags: W
HStem: 548 85<183.255 226.292>
VStem: 48 52.92<-0.0791016 378.135> 183.255 43.037<548 587.13> 333.745 44<599.754 628> 460.58 52.92<121.865 500.079>
Fore
48 -0.0791016 m 1
 48 505.845 l 1
 460.58 121.865 l 1
 460.58 500.079 l 1
 513.5 500.079 l 1
 513.5 -5.8457 l 1
 100.92 378.135 l 1
 100.92 -0.0791016 l 1
 48 -0.0791016 l 1
226.292 548 m 1
 183.255 548 l 1
 183.755 560.48 l 2
 184.821 587.13 190.024 633 238.745 633 c 0
 285.859 633 321.255 580.776 331.528 603.382 c 0
 332.69 605.939 333.745 609.886 333.745 616 c 2
 333.745 628 l 1
 377.745 628 l 1
 377.745 616 l 2
 377.745 563.252 355.292 543 323.745 543 c 0
 275.502 543 228.763 612.231 226.736 559.539 c 2
 226.292 548 l 1
EndSplineSet
EndChar
StartChar: Oacute
Encoding: 146 211 177
Width: 587
VWidth: 965
Flags: W
HStem: -4.85156 51.543<144.198 443.161> 453.309 51.543<144.198 443.161>
VStem: 33 52.9199<104.276 395.724> 501.439 52.92<104.276 395.724>
Fore
430.769 641 m 1
 302.533 528 l 1
 241.195 528 l 1
 336.42 641 l 1
 430.769 641 l 1
554.359 250 m 0
 554.359 109.121 437.394 -4.85156 293.68 -4.85156 c 0
 149.966 -4.85156 33 109.121 33 250 c 0
 33 390.879 149.966 504.852 293.68 504.852 c 0
 437.394 504.852 554.359 390.879 554.359 250 c 0
85.9199 250 m 0
 85.9199 137.905 178.694 46.6914 293.68 46.6914 c 0
 408.665 46.6914 501.439 137.905 501.439 250 c 0
 501.439 362.095 408.665 453.309 293.68 453.309 c 0
 178.694 453.309 85.9199 362.095 85.9199 250 c 0
EndSplineSet
EndChar
StartChar: Ocircumflex
Encoding: 147 212 178
Width: 587
VWidth: 965
Flags: W
HStem: -4.85156 51.543<144.198 443.161> 453.309 51.543<144.198 443.161>
VStem: 33 52.9199<104.276 395.724> 501.439 52.92<104.276 395.724>
Fore
554.359 250 m 4
 554.359 109.121 437.394 -4.85156 293.68 -4.85156 c 4
 149.966 -4.85156 33 109.121 33 250 c 4
 33 390.879 149.966 504.852 293.68 504.852 c 4
 437.394 504.852 554.359 390.879 554.359 250 c 4
85.9199 250 m 4
 85.9199 137.905 178.694 46.6914 293.68 46.6914 c 4
 408.665 46.6914 501.439 137.905 501.439 250 c 4
 501.439 362.095 408.665 453.309 293.68 453.309 c 4
 178.694 453.309 85.9199 362.095 85.9199 250 c 4
293.085 577.443 m 1
 247.238 528 l 1
 173.853 528 l 1
 276.696 641 l 1
 310.304 641 l 1
 413.147 528 l 1
 339.831 528 l 1
 293.085 577.443 l 1
EndSplineSet
EndChar
StartChar: Odieresis
Encoding: 149 214 179
Width: 587
VWidth: 965
Flags: W
HStem: -4.85156 51.543<144.198 443.161> 453.309 51.543<144.198 443.161> 528 80<204.944 262.056 324.944 382.056>
VStem: 33 52.9199<104.276 395.724> 193.5 80<539.444 596.556> 313.5 80<539.444 596.556> 501.439 52.92<104.276 395.724>
Fore
554.359 250 m 0
 554.359 109.121 437.394 -4.85156 293.68 -4.85156 c 0
 149.966 -4.85156 33 109.121 33 250 c 0
 33 390.879 149.966 504.852 293.68 504.852 c 0
 437.394 504.852 554.359 390.879 554.359 250 c 0
85.9199 250 m 0
 85.9199 137.905 178.694 46.6914 293.68 46.6914 c 0
 408.665 46.6914 501.439 137.905 501.439 250 c 0
 501.439 362.095 408.665 453.309 293.68 453.309 c 0
 178.694 453.309 85.9199 362.095 85.9199 250 c 0
233.5 608 m 0
 255.466 608 273.5 589.977 273.5 568 c 0
 273.5 546.034 255.477 528 233.5 528 c 0
 211.534 528 193.5 546.023 193.5 568 c 0
 193.5 589.966 211.523 608 233.5 608 c 0
353.5 608 m 0
 375.466 608 393.5 589.977 393.5 568 c 0
 393.5 546.034 375.477 528 353.5 528 c 0
 331.534 528 313.5 546.023 313.5 568 c 0
 313.5 589.966 331.523 608 353.5 608 c 0
EndSplineSet
EndChar
StartChar: Ograve
Encoding: 145 210 180
Width: 587
VWidth: 965
Flags: W
HStem: -4.85156 51.543<144.198 443.161> 453.309 51.543<144.198 443.161>
VStem: 33 52.9199<104.276 395.724> 501.439 52.92<104.276 395.724>
Fore
134.231 641 m 5
 228.58 641 l 5
 323.805 528 l 5
 262.467 528 l 5
 134.231 641 l 5
554.359 250 m 0
 554.359 109.121 437.394 -4.85156 293.68 -4.85156 c 0
 149.966 -4.85156 33 109.121 33 250 c 0
 33 390.879 149.966 504.852 293.68 504.852 c 0
 437.394 504.852 554.359 390.879 554.359 250 c 0
85.9199 250 m 0
 85.9199 137.905 178.694 46.6914 293.68 46.6914 c 0
 408.665 46.6914 501.439 137.905 501.439 250 c 0
 501.439 362.095 408.665 453.309 293.68 453.309 c 0
 178.694 453.309 85.9199 362.095 85.9199 250 c 0
EndSplineSet
EndChar
StartChar: Otilde
Encoding: 148 213 181
Width: 587
VWidth: 965
Flags: W
HStem: -4.85156 51.543<144.198 443.161> 453.309 51.543<144.198 443.161> 548 85<196.255 239.292>
VStem: 33 52.9199<104.276 395.724> 196.255 43.037<548 587.13> 346.745 44<599.754 628> 501.439 52.92<104.276 395.724>
Fore
554.359 250 m 0
 554.359 109.121 437.394 -4.85156 293.68 -4.85156 c 0
 149.966 -4.85156 33 109.121 33 250 c 0
 33 390.879 149.966 504.852 293.68 504.852 c 0
 437.394 504.852 554.359 390.879 554.359 250 c 0
85.9199 250 m 0
 85.9199 137.905 178.694 46.6914 293.68 46.6914 c 0
 408.665 46.6914 501.439 137.905 501.439 250 c 0
 501.439 362.095 408.665 453.309 293.68 453.309 c 0
 178.694 453.309 85.9199 362.095 85.9199 250 c 0
239.292 548 m 1
 196.255 548 l 1
 196.755 560.48 l 2
 197.821 587.13 203.024 633 251.745 633 c 0
 298.859 633 334.255 580.776 344.528 603.382 c 0
 345.69 605.939 346.745 609.886 346.745 616 c 2
 346.745 628 l 1
 390.745 628 l 1
 390.745 616 l 2
 390.745 563.252 368.292 543 336.745 543 c 0
 288.502 543 241.763 612.231 239.736 559.539 c 2
 239.292 548 l 1
EndSplineSet
EndChar
StartChar: Scaron
Encoding: 195 352 182
Width: 397
VWidth: 965
Flags: W
HStem: -5.7832 52.4971<131.851 274.221> 453.286 52.497<140.986 244.338>
VStem: 72.7012 52.9198<254.412 432.325> 311.821 52.92<67.3513 309.132>
Fore
337.451 397.608 m 1
 287.871 380.363 l 1
 284.027 391.374 l 2
 269.288 433.596 233.903 453.286 199.121 453.286 c 0
 154.402 453.286 125.621 420.862 125.621 382.652 c 0
 125.621 284.006 364.741 313.119 364.741 148.846 c 0
 364.741 56.0684 284.209 -5.7832 198.141 -5.7832 c 0
 124.529 -5.7832 49.2861 40.0723 34.5879 145.395 c 2
 33 156.772 l 1
 85.6729 163.613 l 1
 87.2881 152.337 l 2
 98.084 76.9785 147.149 46.7139 198.141 46.7139 c 0
 256.664 46.7139 311.821 86.3779 311.821 149.8 c 0
 311.821 272.363 72.7012 237.375 72.7012 383.607 c 0
 72.7012 448.447 123.269 505.783 199.121 505.783 c 0
 253.907 505.783 311.526 472.156 333.739 408.281 c 2
 337.451 397.608 l 1
214.804 518 m 1
 182.196 518 l 1
 79.3525 631 l 1
 152.738 631 l 1
 198.5 581.649 l 1
 244.262 631 l 1
 317.647 631 l 1
 214.804 518 l 1
EndSplineSet
EndChar
StartChar: Uacute
Encoding: 153 218 183
Width: 468
VWidth: 965
Flags: W
HStem: -4.96484 51.5429<142.773 327.473>
VStem: 48 52.92<109.474 499.965> 367.48 52.92<84.2584 499.965>
Fore
279.42 641 m 5
 373.769 641 l 5
 245.533 528 l 5
 184.195 528 l 5
 279.42 641 l 5
48 499.965 m 1
 100.92 499.965 l 1
 100.92 192.616 l 2
 100.92 109.474 164.098 46.5781 235.181 46.5781 c 0
 306.175 46.5781 367.48 109.264 367.48 192.616 c 2
 367.48 499.965 l 1
 420.4 499.965 l 1
 420.4 192.616 l 2
 420.4 84.9678 338.569 -4.96484 234.2 -4.96484 c 0
 129.83 -4.96484 48 84.9678 48 192.616 c 2
 48 499.965 l 1
EndSplineSet
EndChar
StartChar: Ucircumflex
Encoding: 154 219 184
Width: 468
VWidth: 965
Flags: W
HStem: -4.96484 51.5429<142.773 327.473>
VStem: 48 52.92<109.474 499.965> 367.48 52.92<84.2584 499.965>
Fore
48 499.965 m 1
 100.92 499.965 l 1
 100.92 192.616 l 2
 100.92 109.474 164.098 46.5781 235.181 46.5781 c 0
 306.175 46.5781 367.48 109.264 367.48 192.616 c 2
 367.48 499.965 l 1
 420.4 499.965 l 1
 420.4 192.616 l 2
 420.4 84.9678 338.569 -4.96484 234.2 -4.96484 c 0
 129.83 -4.96484 48 84.9678 48 192.616 c 2
 48 499.965 l 1
353.647 528 m 1
 279.262 528 l 1
 233.5 577.351 l 1
 187.738 528 l 1
 114.353 528 l 1
 217.196 641 l 1
 250.804 641 l 1
 353.647 528 l 1
EndSplineSet
EndChar
StartChar: Udieresis
Encoding: 155 220 185
Width: 468
VWidth: 965
Flags: W
HStem: -4.96484 51.5429<142.773 327.473> 528 80<145.444 202.556 265.444 322.556>
VStem: 48 52.92<109.474 499.965> 134 80<539.444 596.556> 254 80<539.444 596.556> 367.48 52.92<84.2584 499.965>
Fore
48 499.965 m 1
 100.92 499.965 l 1
 100.92 192.616 l 2
 100.92 109.474 164.098 46.5781 235.181 46.5781 c 0
 306.175 46.5781 367.48 109.264 367.48 192.616 c 2
 367.48 499.965 l 1
 420.4 499.965 l 1
 420.4 192.616 l 2
 420.4 84.9678 338.569 -4.96484 234.2 -4.96484 c 0
 129.83 -4.96484 48 84.9678 48 192.616 c 2
 48 499.965 l 1
174 608 m 0
 195.966 608 214 589.977 214 568 c 0
 214 546.034 195.977 528 174 528 c 0
 152.034 528 134 546.023 134 568 c 0
 134 589.966 152.023 608 174 608 c 0
294 608 m 0
 315.966 608 334 589.977 334 568 c 0
 334 546.034 315.977 528 294 528 c 0
 272.034 528 254 546.023 254 568 c 0
 254 589.966 272.023 608 294 608 c 0
EndSplineSet
EndChar
StartChar: Ugrave
Encoding: 152 217 186
Width: 468
VWidth: 965
Flags: W
HStem: -4.96484 51.5429<142.773 327.473>
VStem: 48 52.92<109.474 499.965> 367.48 52.92<84.2584 499.965>
Fore
78.2313 641 m 5
 172.58 641 l 5
 267.805 528 l 5
 206.467 528 l 5
 78.2313 641 l 5
48 499.965 m 1
 100.92 499.965 l 1
 100.92 192.616 l 2
 100.92 109.474 164.098 46.5781 235.181 46.5781 c 0
 306.175 46.5781 367.48 109.264 367.48 192.616 c 2
 367.48 499.965 l 1
 420.4 499.965 l 1
 420.4 192.616 l 2
 420.4 84.9678 338.569 -4.96484 234.2 -4.96484 c 0
 129.83 -4.96484 48 84.9678 48 192.616 c 2
 48 499.965 l 1
EndSplineSet
EndChar
StartChar: Yacute
Encoding: 156 221 187
Width: 438
VWidth: 965
Flags: W
VStem: 192.973 52.92<-0.0791016 214.238>
Fore
260.42 641 m 1
 354.769 641 l 1
 226.533 528 l 1
 165.195 528 l 1
 260.42 641 l 1
8 500.079 m 1
 70.0977 500.079 l 1
 219.433 269.556 l 1
 368.767 500.079 l 1
 430.865 500.079 l 1
 245.893 214.238 l 1
 245.893 -0.0791016 l 1
 192.973 -0.0791016 l 1
 192.973 214.238 l 1
 8 500.079 l 1
EndSplineSet
EndChar
StartChar: Ydieresis
Encoding: 197 376 188
Width: 438
VWidth: 965
Flags: W
HStem: 528 80<130.444 187.556 250.444 307.556>
VStem: 119 80<539.444 596.556> 192.973 52.92<-0.0791016 214.238> 239 80<539.444 596.556>
Fore
8 500.079 m 1xa0
 70.0977 500.079 l 1
 219.433 269.556 l 1
 368.767 500.079 l 1
 430.865 500.079 l 1
 245.893 214.238 l 1
 245.893 -0.0791016 l 1
 192.973 -0.0791016 l 1
 192.973 214.238 l 1
 8 500.079 l 1xa0
159 608 m 0
 180.966 608 199 589.977 199 568 c 0
 199 546.034 180.977 528 159 528 c 0
 137.034 528 119 546.023 119 568 c 0xc0
 119 589.966 137.023 608 159 608 c 0
279 608 m 0
 300.966 608 319 589.977 319 568 c 0
 319 546.034 300.977 528 279 528 c 0
 257.034 528 239 546.023 239 568 c 0x90
 239 589.966 257.023 608 279 608 c 0
EndSplineSet
EndChar
StartChar: Zcaron
Encoding: 198 381 189
Width: 420
VWidth: 965
Flags: W
HStem: -0.0791016 51.543<106.646 395.079> 448.536 51.543<53.7471 312.78>
VStem: 8 404.72<-0.0791016 51.4639>
Fore
53.7471 500.079 m 1
 411.427 500.079 l 1
 106.646 51.4639 l 1
 412.72 51.4639 l 1
 395.079 -0.0791016 l 1
 8 -0.0791016 l 1
 312.78 448.536 l 1
 36.1074 448.536 l 1
 53.7471 500.079 l 1
226.304 518 m 1
 193.696 518 l 1
 90.8525 631 l 1
 164.238 631 l 1
 210 581.649 l 1
 255.762 631 l 1
 329.147 631 l 1
 226.304 518 l 1
EndSplineSet
EndChar
StartChar: aacute
Encoding: 160 225 190
Width: 367
VWidth: 946
Flags: W
HStem: -5.78027 50.4903<90.3946 210.723> 161.387 43.211<164.891 266.334> 295.29 50.49<112.822 228.769> 480 20G<195.42 289.769>
VStem: 35.0537 52.9209<68.0473 167.5> 266.334 52.92<115.915 161.387>
Fore
195.42 500 m 5
 289.769 500 l 5
 161.533 387 l 5
 100.195 387 l 5
 195.42 500 l 5
334.362 -0.169922 m 1
 276.269 -0.169922 l 1
 269.765 13.3877 265.354 33.4902 266.45 46.3467 c 1
 236.976 16.9473 197.096 -5.78027 151.674 -5.78027 c 0
 69.8574 -5.78027 35.0537 48.8311 35.0537 93.3301 c 0
 35.0537 203.714 189.866 204.599 265.559 204.598 c 1
 259.129 263.27 216.632 295.29 176.174 295.29 c 0
 127.442 295.29 102.695 255.855 94.9551 245.263 c 1
 52.0137 272.576 l 1
 63.2021 288.405 101.236 345.78 176.174 345.78 c 0
 248.305 345.78 317.164 290.168 319.253 193.491 c 2
 319.254 81.1748 l 2
 319.254 50.7471 325.614 16.5254 334.362 -0.169922 c 1
151.674 44.71 m 0
 197.923 44.71 244.475 79.9814 266.334 115.915 c 1
 266.334 161.387 l 1
 184.179 159.688 87.9746 150.384 87.9746 93.3301 c 0
 87.9746 73.8818 104.536 44.71 151.674 44.71 c 0
EndSplineSet
EndChar
StartChar: acircumflex
Encoding: 161 226 191
Width: 367
VWidth: 946
Flags: W
HStem: -5.78027 50.4903<90.3946 210.723> 161.387 43.211<164.891 266.334> 295.29 50.49<112.822 228.769> 480 20G<159.696 192.304>
VStem: 35.0537 52.9209<68.0473 167.5> 266.334 52.92<115.915 161.387>
Fore
159.696 500 m 1
 192.304 500 l 1
 295.147 387 l 1
 221.762 387 l 1
 176 436.351 l 1
 130.238 387 l 1
 56.8525 387 l 1
 159.696 500 l 1
334.362 -0.169922 m 1
 276.269 -0.169922 l 1
 269.765 13.3877 265.354 33.4902 266.45 46.3467 c 1
 236.976 16.9473 197.096 -5.78027 151.674 -5.78027 c 0
 69.8574 -5.78027 35.0537 48.8311 35.0537 93.3301 c 0
 35.0537 203.714 189.866 204.599 265.559 204.598 c 1
 259.129 263.27 216.632 295.29 176.174 295.29 c 0
 127.442 295.29 102.695 255.855 94.9551 245.263 c 1
 52.0137 272.576 l 1
 63.2021 288.405 101.236 345.78 176.174 345.78 c 0
 248.305 345.78 317.164 290.168 319.253 193.491 c 2
 319.254 81.1748 l 2
 319.254 50.7471 325.614 16.5254 334.362 -0.169922 c 1
151.674 44.71 m 0
 197.923 44.71 244.475 79.9814 266.334 115.915 c 1
 266.334 161.387 l 1
 184.179 159.688 87.9746 150.384 87.9746 93.3301 c 0
 87.9746 73.8818 104.536 44.71 151.674 44.71 c 0
EndSplineSet
EndChar
StartChar: adieresis
Encoding: 163 228 192
Width: 367
VWidth: 946
Flags: W
HStem: -5.78027 50.4903<90.3946 210.723> 161.387 43.211<164.891 266.334> 295.29 50.49<112.822 228.769> 388 80<86.4445 143.556 206.444 263.556>
VStem: 35.0537 52.9209<68.0473 167.5> 75 80<399.444 456.556> 195 80<399.444 456.556> 266.334 52.92<115.915 161.387>
Fore
115 468 m 0xf4
 136.966 468 155 449.977 155 428 c 0
 155 406.034 136.977 388 115 388 c 0
 93.0342 388 75 406.023 75 428 c 0
 75 449.966 93.0225 468 115 468 c 0xf4
235 468 m 0
 256.966 468 275 449.977 275 428 c 0
 275 406.034 256.977 388 235 388 c 0
 213.034 388 195 406.023 195 428 c 0xf2
 195 449.966 213.023 468 235 468 c 0
334.362 -0.169922 m 1
 276.269 -0.169922 l 1
 269.765 13.3877 265.354 33.4902 266.45 46.3467 c 1
 236.976 16.9473 197.096 -5.78027 151.674 -5.78027 c 0
 69.8574 -5.78027 35.0537 48.8311 35.0537 93.3301 c 0
 35.0537 203.714 189.866 204.599 265.559 204.598 c 1
 259.129 263.27 216.632 295.29 176.174 295.29 c 0
 127.442 295.29 102.695 255.855 94.9551 245.263 c 1
 52.0137 272.576 l 1
 63.2021 288.405 101.236 345.78 176.174 345.78 c 0
 248.305 345.78 317.164 290.168 319.253 193.491 c 2
 319.254 81.1748 l 2xf9
 319.254 50.7471 325.614 16.5254 334.362 -0.169922 c 1
151.674 44.71 m 0
 197.923 44.71 244.475 79.9814 266.334 115.915 c 1
 266.334 161.387 l 1
 184.179 159.688 87.9746 150.384 87.9746 93.3301 c 0
 87.9746 73.8818 104.536 44.71 151.674 44.71 c 0
EndSplineSet
EndChar
StartChar: agrave
Encoding: 159 224 193
Width: 367
VWidth: 946
Flags: W
HStem: -5.78027 50.4903<90.3946 210.723> 161.387 43.211<164.891 266.334> 295.29 50.49<112.822 228.769> 480 20G<25.2313 119.58>
VStem: 35.0537 52.9209<68.0473 167.5> 266.334 52.92<115.915 161.387>
Fore
25.2313 500 m 1
 119.58 500 l 1
 214.805 387 l 1
 153.467 387 l 1
 25.2313 500 l 1
334.362 -0.169922 m 1
 276.269 -0.169922 l 1
 269.765 13.3877 265.354 33.4902 266.45 46.3467 c 1
 236.976 16.9473 197.096 -5.78027 151.674 -5.78027 c 0
 69.8574 -5.78027 35.0537 48.8311 35.0537 93.3301 c 0
 35.0537 203.714 189.866 204.599 265.559 204.598 c 1
 259.129 263.27 216.632 295.29 176.174 295.29 c 0
 127.442 295.29 102.695 255.855 94.9551 245.263 c 1
 52.0137 272.576 l 1
 63.2021 288.405 101.236 345.78 176.174 345.78 c 0
 248.305 345.78 317.164 290.168 319.253 193.491 c 2
 319.254 81.1748 l 2
 319.254 50.7471 325.614 16.5254 334.362 -0.169922 c 1
151.674 44.71 m 0
 197.923 44.71 244.475 79.9814 266.334 115.915 c 1
 266.334 161.387 l 1
 184.179 159.688 87.9746 150.384 87.9746 93.3301 c 0
 87.9746 73.8818 104.536 44.71 151.674 44.71 c 0
EndSplineSet
EndChar
StartChar: aring
Encoding: 164 229 194
Width: 367
VWidth: 946
Flags: W
HStem: -5.78027 50.4903<90.3946 210.723> 161.387 43.211<164.891 266.334> 295.29 50.49<112.822 228.769> 383 54<154.832 197.169> 497 54<154.831 197.168>
VStem: 35.0537 52.9209<68.0473 167.5> 92 54<445.831 488.168> 206 54<445.832 488.169> 266.334 52.92<115.915 161.387>
Fore
260 467 m 0
 260 420.45 222.548 383 176 383 c 0
 129.45 383 92 420.452 92 467 c 0
 92 513.55 129.452 551 176 551 c 0
 222.55 551 260 513.547 260 467 c 0
146 467 m 0
 146 450.716 159.717 437 176 437 c 0
 192.284 437 206 450.717 206 467 c 0
 206 483.284 192.283 497 176 497 c 0
 159.716 497 146 483.283 146 467 c 0
334.362 -0.169922 m 1
 276.269 -0.169922 l 1
 269.765 13.3877 265.354 33.4902 266.45 46.3467 c 1
 236.976 16.9473 197.096 -5.78027 151.674 -5.78027 c 0
 69.8574 -5.78027 35.0537 48.8311 35.0537 93.3301 c 0
 35.0537 203.714 189.866 204.599 265.559 204.598 c 1
 259.129 263.27 216.632 295.29 176.174 295.29 c 0
 127.442 295.29 102.695 255.855 94.9551 245.263 c 1
 52.0137 272.576 l 1
 63.2021 288.405 101.236 345.78 176.174 345.78 c 0
 248.305 345.78 317.164 290.168 319.253 193.491 c 2
 319.254 81.1748 l 2
 319.254 50.7471 325.614 16.5254 334.362 -0.169922 c 1
151.674 44.71 m 0
 197.923 44.71 244.475 79.9814 266.334 115.915 c 1
 266.334 161.387 l 1
 184.179 159.688 87.9746 150.384 87.9746 93.3301 c 0
 87.9746 73.8818 104.536 44.71 151.674 44.71 c 0
EndSplineSet
EndChar
StartChar: atilde
Encoding: 162 227 195
Width: 367
VWidth: 946
Flags: W
HStem: -5.78027 50.4903<90.3946 210.723> 161.387 43.211<164.891 266.334> 295.29 50.49<112.822 228.769> 437.014 34.986<135 221.668>
VStem: 35.0537 52.9209<68.0473 167.5> 80 43.991<388 467.443> 231 43<435.137 465> 266.334 52.92<115.915 161.387>
Fore
80 400 m 2xf6
 80 461.166 113 472 135 472 c 0
 171.892 472 203.915 438.32 221.668 437.014 c 2
 221.668 437.014 216.356 436.854 222 437 c 0
 225.763 437.098 231 439.259 231 453 c 2
 231 465 l 1
 274 465 l 1
 274 453 l 2
 274 401.002 252.262 382 222 382 c 0
 172.226 382 126 451.773 123.991 399.539 c 2
 123.547 388 l 1
 80 388 l 1
 80 400 l 2xf6
334.362 -0.169922 m 1
 276.269 -0.169922 l 1
 269.765 13.3877 265.354 33.4902 266.45 46.3467 c 1
 236.976 16.9473 197.096 -5.78027 151.674 -5.78027 c 0
 69.8574 -5.78027 35.0537 48.8311 35.0537 93.3301 c 0
 35.0537 203.714 189.866 204.599 265.559 204.598 c 1
 259.129 263.27 216.632 295.29 176.174 295.29 c 0
 127.442 295.29 102.695 255.855 94.9551 245.263 c 1
 52.0137 272.576 l 1
 63.2021 288.405 101.236 345.78 176.174 345.78 c 0
 248.305 345.78 317.164 290.168 319.253 193.491 c 2
 319.254 81.1748 l 2xf9
 319.254 50.7471 325.614 16.5254 334.362 -0.169922 c 1
151.674 44.71 m 0
 197.923 44.71 244.475 79.9814 266.334 115.915 c 1
 266.334 161.387 l 1
 184.179 159.688 87.9746 150.384 87.9746 93.3301 c 0
 87.9746 73.8818 104.536 44.71 151.674 44.71 c 0
EndSplineSet
EndChar
StartChar: ccedilla
Encoding: 166 231 196
Width: 374
VWidth: 946
Flags: W
HStem: -135 46.4941<156.926 195.712> 293.42 51.425<119.764 274.228>
VStem: 33 51.9395<79.2356 262.543>
Fore
296.106 113.398 m 1
 341.885 88.2012 l 1
 328.015 64.1863 292.703 9.03568 223.462 -2.64576 c 1
 218.23 -13.2852 l 1
 255.33 -26.2119 258 -55.8379 258 -71 c 0
 258 -109.4 225.2 -135 184 -135 c 0
 164.648 -135 144.335 -129.274 125.481 -117.075 c 2
 115.456 -110.588 l 1
 144.483 -75.2334 l 1
 154.656 -82.0156 l 2
 161.553 -86.6133 168.686 -88.5059 175.308 -88.5059 c 0
 191.003 -88.5059 203.828 -77.876 203.828 -67.4355 c 0
 203.828 -59.6357 196.658 -52.0137 178.203 -48.8633 c 2
 146.517 -43.4541 l 1
 168.471 -2.30323 l 1
 89.7765 12.0981 33 85.8036 33 170 c 0
 33 263.952 103.7 344.845 196.66 344.845 c 0
 288.588 344.845 330.796 270.994 341.885 251.8 c 1
 296.106 226.602 l 1
 284.323 246.641 256.328 293.42 196.66 293.42 c 0
 137.509 293.42 84.9395 241.403 84.9395 170.935 c 0
 84.9395 100.397 137.768 46.5801 196.66 46.5801 c 0
 259.724 46.5801 287.814 99.2988 296.106 113.398 c 1
EndSplineSet
EndChar
StartChar: eacute
Encoding: 168 233 197
Width: 397
VWidth: 946
Flags: W
HStem: -4.84473 51.4248<124.06 242.012> 158.78 49.555<91.8477 304.413> 294.355 50.49<136.455 260.118> 481 20G<229.42 323.769>
VStem: 33 331.07<158.78 196.153 158.78 170>
Fore
229.42 501 m 5
 323.769 501 l 5
 195.533 388 l 5
 134.195 388 l 5
 229.42 501 l 5
91.8477 208.335 m 1
 304.413 208.335 l 1
 289.362 259.438 245.7 294.355 197.641 294.355 c 0
 150.575 294.355 106.907 259.445 91.8477 208.335 c 1
85.3906 158.78 m 1
 90.6289 93.957 140.814 46.5801 196.66 46.5801 c 0
 239.689 46.5801 279.708 68.8535 305.907 113.398 c 1
 351.686 88.2012 l 1
 305.256 7.81445 231.546 -4.84473 196.66 -4.84473 c 0
 103.699 -4.84473 33 76.0459 33 170 c 0
 33 264.052 104.723 344.845 197.641 344.845 c 0
 286.21 344.845 354.983 271.982 362.249 184.843 c 2
 364.07 158.78 l 1
 85.3906 158.78 l 1
EndSplineSet
EndChar
StartChar: ecircumflex
Encoding: 169 234 198
Width: 397
VWidth: 946
Flags: W
HStem: -4.84473 51.4248<124.06 242.012> 158.78 49.555<91.8477 304.413> 294.355 50.49<136.455 260.118> 481 20G<182.196 214.804>
VStem: 33 331.07<158.78 196.153 158.78 170>
Fore
91.8477 208.335 m 1
 304.413 208.335 l 1
 289.362 259.438 245.7 294.355 197.641 294.355 c 0
 150.575 294.355 106.907 259.445 91.8477 208.335 c 1
85.3906 158.78 m 1
 90.6289 93.957 140.814 46.5801 196.66 46.5801 c 0
 239.689 46.5801 279.708 68.8535 305.907 113.398 c 1
 351.686 88.2012 l 1
 305.256 7.81445 231.546 -4.84473 196.66 -4.84473 c 0
 103.699 -4.84473 33 76.0459 33 170 c 0
 33 264.052 104.723 344.845 197.641 344.845 c 0
 286.21 344.845 354.983 271.982 362.249 184.843 c 2
 364.07 158.78 l 1
 85.3906 158.78 l 1
182.196 501 m 1
 214.804 501 l 1
 317.647 388 l 1
 244.262 388 l 1
 198.5 437.351 l 1
 152.738 388 l 1
 79.3525 388 l 1
 182.196 501 l 1
EndSplineSet
EndChar
StartChar: edieresis
Encoding: 170 235 199
Width: 397
VWidth: 946
Flags: W
HStem: -4.84473 51.4248<124.06 242.012> 158.78 49.555<91.8477 304.413> 294.355 50.49<136.455 260.118> 388 80<109.944 167.056 229.944 287.056>
VStem: 98.5 80<399.444 456.556> 218.5 80<399.444 456.556>
Fore
91.8477 208.335 m 5
 304.413 208.335 l 5
 289.362 259.438 245.7 294.355 197.641 294.355 c 4
 150.575 294.355 106.907 259.445 91.8477 208.335 c 5
85.3906 158.78 m 5
 90.6289 93.957 140.814 46.5801 196.66 46.5801 c 4
 239.689 46.5801 279.708 68.8535 305.907 113.398 c 5
 351.686 88.2012 l 5
 305.256 7.81445 231.546 -4.84473 196.66 -4.84473 c 4
 103.699 -4.84473 33 76.0459 33 170 c 4
 33 264.052 104.723 344.845 197.641 344.845 c 4
 286.21 344.845 354.983 271.982 362.249 184.843 c 6
 364.07 158.78 l 5
 85.3906 158.78 l 5
138.5 468 m 0
 160.466 468 178.5 449.977 178.5 428 c 0
 178.5 406.034 160.477 388 138.5 388 c 0
 116.534 388 98.5 406.023 98.5 428 c 0
 98.5 449.966 116.522 468 138.5 468 c 0
258.5 468 m 0
 280.466 468 298.5 449.977 298.5 428 c 0
 298.5 406.034 280.477 388 258.5 388 c 0
 236.534 388 218.5 406.023 218.5 428 c 0
 218.5 449.966 236.523 468 258.5 468 c 0
EndSplineSet
EndChar
StartChar: egrave
Encoding: 167 232 200
Width: 397
VWidth: 946
Flags: W
HStem: -4.84473 51.4248<124.06 242.012> 158.78 49.555<91.8477 304.413> 294.355 50.49<136.455 260.118> 481 20G<26.2313 120.58>
VStem: 26.2313 337.839<158.78 501>
Fore
26.2313 501 m 5
 120.58 501 l 5
 215.805 388 l 5
 154.467 388 l 5
 26.2313 501 l 5
91.8477 208.335 m 1
 304.413 208.335 l 1
 289.362 259.438 245.7 294.355 197.641 294.355 c 0
 150.575 294.355 106.907 259.445 91.8477 208.335 c 1
85.3906 158.78 m 1
 90.6289 93.957 140.814 46.5801 196.66 46.5801 c 0
 239.689 46.5801 279.708 68.8535 305.907 113.398 c 1
 351.686 88.2012 l 1
 305.256 7.81445 231.546 -4.84473 196.66 -4.84473 c 0
 103.699 -4.84473 33 76.0459 33 170 c 0
 33 264.052 104.723 344.845 197.641 344.845 c 0
 286.21 344.845 354.983 271.982 362.249 184.843 c 2
 364.07 158.78 l 1
 85.3906 158.78 l 1
EndSplineSet
EndChar
StartChar: iacute
Encoding: 172 237 201
Width: 147
VWidth: 949
Flags: W
HStem: 481 20G<96.4673 189.769>
VStem: 47.54 52.92<0.307617 339.647>
Fore
96.4673 501 m 5
 189.769 501 l 5
 61.5328 388 l 5
 -0.027088 388 l 5
 96.4673 501 l 5
100.46 0.307617 m 1
 47.54 0.307617 l 1
 47.54 339.647 l 1
 100.46 339.647 l 1
 100.46 0.307617 l 1
EndSplineSet
EndChar
StartChar: icircumflex
Encoding: 173 238 202
Width: 147
VWidth: 949
Flags: W
HStem: 481 20G<57.1953 89.8047>
VStem: 47.54 52.92<0.307617 339.647>
Fore
100.46 0.307617 m 5
 47.54 0.307617 l 5
 47.54 339.647 l 5
 100.46 339.647 l 5
 100.46 0.307617 l 5
57.1953 501 m 1
 89.8047 501 l 1
 192.647 388 l 1
 119.262 388 l 1
 73.5 437.351 l 1
 27.7383 388 l 1
 -45.6475 388 l 1
 57.1953 501 l 1
EndSplineSet
EndChar
StartChar: idieresis
Encoding: 174 239 203
Width: 147
VWidth: 949
Flags: W
HStem: 388 80<-15.0556 42.0555 104.944 162.056>
VStem: -26.5 80<399.444 456.556> 47.54 52.92<0.307617 339.647> 93.5 80<399.444 456.556>
Fore
100.46 0.307617 m 1xa0
 47.54 0.307617 l 1
 47.54 339.647 l 1
 100.46 339.647 l 1
 100.46 0.307617 l 1xa0
13.5 468 m 0
 35.4658 468 53.5 449.977 53.5 428 c 0
 53.5 406.034 35.4775 388 13.5 388 c 0
 -8.46582 388 -26.5 406.023 -26.5 428 c 0xc0
 -26.5 449.966 -8.47754 468 13.5 468 c 0
133.5 468 m 0
 155.466 468 173.5 449.977 173.5 428 c 0
 173.5 406.034 155.477 388 133.5 388 c 0
 111.534 388 93.5 406.023 93.5 428 c 0x90
 93.5 449.966 111.523 468 133.5 468 c 0
EndSplineSet
EndChar
StartChar: igrave
Encoding: 171 236 204
Width: 147
VWidth: 949
Flags: W
HStem: 481 20G<-72.7687 21.5803>
VStem: 47.54 52.92<0.307617 339.647>
Fore
-72.7687 501 m 5
 21.5803 501 l 5
 116.805 388 l 5
 55.4672 388 l 5
 -72.7687 501 l 5
100.46 0.307617 m 1
 47.54 0.307617 l 1
 47.54 339.647 l 1
 100.46 339.647 l 1
 100.46 0.307617 l 1
EndSplineSet
EndChar
StartChar: ntilde
Encoding: 176 241 205
Width: 362
VWidth: 946
Flags: W
HStem: 294.518 50.49<153.498 263.636> 418.942 53.058<132.262 160.482>
VStem: 47.5654 52.9196<-0.0078125 224.385 274.689 279.843> 84 43.991<388 418.31> 235 43<436.166 467> 261.206 52.92<-0.0078125 255.606>
Fore
91.5312 340.332 m 1xe4
 99.3154 316.196 100.484 309.066 100.485 274.689 c 1
 124.006 309.478 164.558 345.008 201.426 345.008 c 0
 279.678 345.008 314.126 278.995 314.126 207.562 c 2
 314.126 -0.0078125 l 1
 261.206 -0.0078125 l 1
 261.206 207.562 l 2
 261.206 244.519 249.054 294.518 200.446 294.518 c 0
 153.911 294.518 100.485 211.872 100.485 170.162 c 2
 100.485 -0.0078125 l 1
 47.5654 -0.0078125 l 1
 47.5654 240.287 l 2
 47.5654 270.715 41.2061 323.637 32.458 340.332 c 1
 91.5312 340.332 l 1xe4
84 400 m 2xd8
 84 461.166 117 472 139 472 c 0
 175.767 472 210.086 437 225.897 437 c 0
 228.002 437 235 440.743 235 456 c 2
 235 467.043 l 1
 278 467 l 1
 278 453 l 2
 278 401.002 256.262 382 226 382 c 0
 189.783 382 155.444 418.942 138.651 418.942 c 0
 132.365 418.942 128.538 413.766 127.991 399.539 c 2
 128 388 l 1
 84 388 l 1
 84 400 l 2xd8
EndSplineSet
EndChar
StartChar: oacute
Encoding: 178 243 206
Width: 430
VWidth: 946
Flags: W
HStem: -4.84473 50.4892<122.783 309.736> 294.355 50.49<122.783 309.736> 481 20G<229.42 323.769>
VStem: 33 52.9199<80.8161 259.184> 346.601 50.96<80.8161 259.184>
Fore
229.42 501 m 5
 323.769 501 l 5
 195.533 388 l 5
 134.195 388 l 5
 229.42 501 l 5
397.561 170 m 0
 397.561 73.1689 315.867 -4.84473 215.28 -4.84473 c 0
 114.693 -4.84473 33 73.1689 33 170 c 0
 33 266.831 114.693 344.845 215.28 344.845 c 0
 315.867 344.845 397.561 266.83 397.561 170 c 0
85.9199 170 m 0
 85.9199 101.397 144.355 45.6445 216.261 45.6445 c 0
 288.165 45.6445 346.601 101.397 346.601 170 c 0
 346.601 238.603 288.165 294.355 216.261 294.355 c 0
 144.355 294.355 85.9199 238.603 85.9199 170 c 0
EndSplineSet
EndChar
StartChar: ocircumflex
Encoding: 179 244 207
Width: 430
VWidth: 946
Flags: W
HStem: -4.84473 50.4892<122.783 309.736> 294.355 50.49<122.783 309.736> 481 20G<198.696 231.304>
VStem: 33 52.9199<80.8161 259.184> 346.601 50.96<80.8161 259.184>
Fore
397.561 170 m 0
 397.561 73.1689 315.867 -4.84473 215.28 -4.84473 c 0
 114.693 -4.84473 33 73.1689 33 170 c 0
 33 266.831 114.693 344.845 215.28 344.845 c 0
 315.867 344.845 397.561 266.83 397.561 170 c 0
85.9199 170 m 0
 85.9199 101.397 144.355 45.6445 216.261 45.6445 c 0
 288.165 45.6445 346.601 101.397 346.601 170 c 0
 346.601 238.603 288.165 294.355 216.261 294.355 c 0
 144.355 294.355 85.9199 238.603 85.9199 170 c 0
198.696 501 m 1
 231.304 501 l 1
 334.147 388 l 1
 260.762 388 l 1
 215 437.351 l 1
 169.238 388 l 1
 95.8525 388 l 1
 198.696 501 l 1
EndSplineSet
EndChar
StartChar: odieresis
Encoding: 181 246 208
Width: 430
VWidth: 946
Flags: W
HStem: -4.84473 50.4892<122.783 309.736> 294.355 50.49<122.783 309.736> 388 80<126.444 183.556 246.444 303.556>
VStem: 33 52.9199<80.8161 259.184> 115 80<399.444 456.556> 235 80<399.444 456.556> 346.601 50.96<80.8161 259.184>
Fore
397.561 170 m 0
 397.561 73.1689 315.867 -4.84473 215.28 -4.84473 c 0
 114.693 -4.84473 33 73.1689 33 170 c 0
 33 266.831 114.693 344.845 215.28 344.845 c 0
 315.867 344.845 397.561 266.83 397.561 170 c 0
85.9199 170 m 0
 85.9199 101.397 144.355 45.6445 216.261 45.6445 c 0
 288.165 45.6445 346.601 101.397 346.601 170 c 0
 346.601 238.603 288.165 294.355 216.261 294.355 c 0
 144.355 294.355 85.9199 238.603 85.9199 170 c 0
155 468 m 0
 176.966 468 195 449.977 195 428 c 0
 195 406.034 176.977 388 155 388 c 0
 133.034 388 115 406.023 115 428 c 0
 115 449.966 133.023 468 155 468 c 0
275 468 m 0
 296.966 468 315 449.977 315 428 c 0
 315 406.034 296.977 388 275 388 c 0
 253.034 388 235 406.023 235 428 c 0
 235 449.966 253.023 468 275 468 c 0
EndSplineSet
EndChar
StartChar: ograve
Encoding: 177 242 209
Width: 430
VWidth: 946
Flags: W
HStem: -4.84473 50.4892<122.783 309.736> 294.355 50.49<122.783 309.736> 481 20G<70.2313 164.58>
VStem: 33 52.9199<80.8161 259.184> 346.601 50.96<80.8161 259.184>
Fore
70.2313 501 m 5
 164.58 501 l 5
 259.805 388 l 5
 198.467 388 l 5
 70.2313 501 l 5
397.561 170 m 0
 397.561 73.1689 315.867 -4.84473 215.28 -4.84473 c 0
 114.693 -4.84473 33 73.1689 33 170 c 0
 33 266.831 114.693 344.845 215.28 344.845 c 0
 315.867 344.845 397.561 266.83 397.561 170 c 0
85.9199 170 m 0
 85.9199 101.397 144.355 45.6445 216.261 45.6445 c 0
 288.165 45.6445 346.601 101.397 346.601 170 c 0
 346.601 238.603 288.165 294.355 216.261 294.355 c 0
 144.355 294.355 85.9199 238.603 85.9199 170 c 0
EndSplineSet
EndChar
StartChar: otilde
Encoding: 180 245 210
Width: 430
VWidth: 946
Flags: W
HStem: -4.84473 50.4892<122.783 309.736> 294.355 50.49<122.783 309.736> 418.941 53.059<166.262 194.481>
VStem: 33 52.9199<80.8161 259.184> 118 43.991<388 418.31> 269 43<436.166 467> 346.601 50.96<80.8161 259.184>
Fore
397.561 170 m 0
 397.561 73.1689 315.867 -4.84473 215.28 -4.84473 c 0
 114.693 -4.84473 33 73.1689 33 170 c 0
 33 266.831 114.693 344.845 215.28 344.845 c 0
 315.867 344.845 397.561 266.83 397.561 170 c 0
85.9199 170 m 0
 85.9199 101.397 144.355 45.6445 216.261 45.6445 c 0
 288.165 45.6445 346.601 101.397 346.601 170 c 0
 346.601 238.603 288.165 294.355 216.261 294.355 c 0
 144.355 294.355 85.9199 238.603 85.9199 170 c 0
118 400 m 2
 118 461.166 151 472 173 472 c 0
 209.768 472 244.086 437 259.896 437 c 0
 262.002 437 269 440.743 269 456 c 2
 269 467.043 l 1
 312 467 l 1
 312 453 l 2
 312 401.002 290.262 382 260 382 c 0
 223.782 382 189.443 418.941 172.651 418.941 c 0
 166.365 418.941 162.538 413.766 161.991 399.539 c 2
 162 388 l 1
 118 388 l 1
 118 400 l 2
EndSplineSet
EndChar
StartChar: scaron
Encoding: 196 353 211
Width: 304
VWidth: 946
Flags: W
HStem: -5.64062 50.332<113.43 196.064> 295.595 49.91<122.914 177.328>
VStem: 58.9307 53.9003<187.691 287.3> 218.672 52.919<56.9869 197.622>
Fore
254.146 266.007 m 1
 204.503 249.091 l 1
 200.672 259.9 l 2
 191.644 285.365 171.674 295.595 152.826 295.595 c 0
 129.817 295.595 112.831 280.512 112.831 257.886 c 0
 112.831 203.89 271.591 215.159 271.591 103.61 c 0
 271.591 38.0605 214.275 -5.64062 151.563 -5.64062 c 0
 98.4424 -5.64062 44.6367 26.999 34.5312 100.276 c 2
 33 111.382 l 1
 85.7266 118.089 l 1
 87.252 106.932 l 2
 93.3252 62.5107 122.334 44.6914 152.015 44.6914 c 0
 185.899 44.6914 218.672 67.7461 218.672 103.61 c 0
 218.672 175.927 58.9307 155.89 58.9307 257.886 c 0
 58.9307 313.312 104.507 345.505 152.684 345.505 c 0
 184.248 345.505 231.055 330.158 250.373 276.49 c 2
 254.146 266.007 l 1
168.304 358 m 1
 135.696 358 l 1
 32.8525 471 l 1
 106.238 471 l 1
 152 421.649 l 1
 197.762 471 l 1
 271.147 471 l 1
 168.304 358 l 1
EndSplineSet
EndChar
StartChar: uacute
Encoding: 185 250 212
Width: 360
VWidth: 945
Flags: W
HStem: -5.00781 50.4902<124.14 234.676> 481 20G<211.42 305.769>
VStem: 48 52.92<82.3184 340.008> 259.68 52.92<67.7104 340.008>
Fore
211.42 501 m 5
 305.769 501 l 5
 177.533 388 l 5
 116.195 388 l 5
 211.42 501 l 5
48 340.008 m 1
 100.92 340.008 l 1
 100.92 132.438 l 2
 100.92 82.3184 136.874 45.4824 179.319 45.4824 c 0
 221.901 45.4824 259.68 82.6475 259.68 132.438 c 2
 259.68 340.008 l 1
 312.6 340.008 l 1
 312.6 132.438 l 2
 312.6 57.9229 255.27 -5.00781 180.3 -5.00781 c 0
 105.328 -5.00781 48 57.9219 48 132.438 c 2
 48 340.008 l 1
EndSplineSet
EndChar
StartChar: ucircumflex
Encoding: 186 251 213
Width: 360
VWidth: 945
Flags: W
HStem: -5.00781 50.4902<124.14 234.676> 481 20G<163.696 196.304>
VStem: 48 52.92<82.3184 340.008> 259.68 52.92<67.7104 340.008>
Fore
48 340.008 m 1
 100.92 340.008 l 1
 100.92 132.438 l 2
 100.92 82.3184 136.874 45.4824 179.319 45.4824 c 0
 221.901 45.4824 259.68 82.6475 259.68 132.438 c 2
 259.68 340.008 l 1
 312.6 340.008 l 1
 312.6 132.438 l 2
 312.6 57.9229 255.27 -5.00781 180.3 -5.00781 c 0
 105.328 -5.00781 48 57.9219 48 132.438 c 2
 48 340.008 l 1
163.696 501 m 1
 196.304 501 l 1
 299.147 388 l 1
 225.762 388 l 1
 180 437.351 l 1
 134.238 388 l 1
 60.8525 388 l 1
 163.696 501 l 1
EndSplineSet
EndChar
StartChar: udieresis
Encoding: 187 252 214
Width: 360
VWidth: 945
Flags: W
HStem: -5.00781 50.4902<124.14 234.676> 388 80<91.4445 148.556 211.444 268.556>
VStem: 48 52.92<82.3184 340.008> 80 80<399.444 456.556> 200 80<399.444 456.556> 259.68 52.92<67.7104 340.008>
Fore
48 340.008 m 1xe4
 100.92 340.008 l 1
 100.92 132.438 l 2
 100.92 82.3184 136.874 45.4824 179.319 45.4824 c 0
 221.901 45.4824 259.68 82.6475 259.68 132.438 c 2
 259.68 340.008 l 1
 312.6 340.008 l 1
 312.6 132.438 l 2
 312.6 57.9229 255.27 -5.00781 180.3 -5.00781 c 0
 105.328 -5.00781 48 57.9219 48 132.438 c 2
 48 340.008 l 1xe4
120 468 m 0
 141.966 468 160 449.977 160 428 c 0
 160 406.034 141.977 388 120 388 c 0
 98.0342 388 80 406.023 80 428 c 0xd0
 80 449.966 98.0225 468 120 468 c 0
240 468 m 0
 261.966 468 280 449.977 280 428 c 0
 280 406.034 261.977 388 240 388 c 0
 218.034 388 200 406.023 200 428 c 0xc8
 200 449.966 218.023 468 240 468 c 0
EndSplineSet
EndChar
StartChar: ugrave
Encoding: 184 249 215
Width: 360
VWidth: 945
Flags: W
HStem: -5.00781 50.4902<124.14 234.676> 481 20G<39.2313 133.58>
VStem: 48 52.92<82.3184 340.008> 259.68 52.92<67.7104 340.008>
Fore
39.2313 501 m 5
 133.58 501 l 5
 228.805 388 l 5
 167.467 388 l 5
 39.2313 501 l 5
48 340.008 m 1
 100.92 340.008 l 1
 100.92 132.438 l 2
 100.92 82.3184 136.874 45.4824 179.319 45.4824 c 0
 221.901 45.4824 259.68 82.6475 259.68 132.438 c 2
 259.68 340.008 l 1
 312.6 340.008 l 1
 312.6 132.438 l 2
 312.6 57.9229 255.27 -5.00781 180.3 -5.00781 c 0
 105.328 -5.00781 48 57.9219 48 132.438 c 2
 48 340.008 l 1
EndSplineSet
EndChar
StartChar: yacute
Encoding: 188 253 216
Width: 338
VWidth: 940
Flags: W
HStem: 481 20G<199.42 293.769>
VStem: 8 322.357<340.482 340.482>
Fore
199.42 501 m 5
 293.769 501 l 5
 165.533 388 l 5
 104.195 388 l 5
 199.42 501 l 5
8 340.482 m 1
 63.626 340.482 l 1
 170.107 79.9912 l 1
 273.858 340.482 l 1
 330.357 340.482 l 1
 130.352 -163.482 l 1
 73.8311 -163.482 l 1
 142.95 10.3711 l 1
 8 340.482 l 1
EndSplineSet
EndChar
StartChar: ydieresis
Encoding: 190 255 217
Width: 338
VWidth: 940
Flags: W
HStem: 393 80<80.4445 137.556 200.444 257.556>
VStem: 69 80<404.444 461.556> 189 80<404.444 461.556>
Fore
8 340.482 m 1
 63.626 340.482 l 1
 170.107 79.9912 l 1
 273.858 340.482 l 1
 330.357 340.482 l 1
 130.352 -163.482 l 1
 73.8311 -163.482 l 1
 142.95 10.3711 l 1
 8 340.482 l 1
109 473 m 0
 130.966 473 149 454.977 149 433 c 0
 149 411.034 130.977 393 109 393 c 0
 87.0342 393 69 411.023 69 433 c 0
 69 454.966 87.0225 473 109 473 c 0
229 473 m 0
 250.966 473 269 454.977 269 433 c 0
 269 411.034 250.977 393 229 393 c 0
 207.034 393 189 411.023 189 433 c 0
 189 454.966 207.023 473 229 473 c 0
EndSplineSet
EndChar
StartChar: zcaron
Encoding: 199 382 218
Width: 329
VWidth: 946
Flags: W
HStem: -0.169922 50.4902<109.094 296.862> 289.68 50.49<62.3506 221.64>
VStem: 8 313.754<-0.169922 340.17>
Fore
62.3506 340.17 m 1
 321.754 340.17 l 1
 109.094 50.3203 l 1
 314.503 50.3203 l 1
 296.862 -0.169922 l 1
 8 -0.169922 l 1
 221.64 289.68 l 1
 44.7109 289.68 l 1
 62.3506 340.17 l 1
180.804 358 m 1
 148.196 358 l 1
 45.3525 471 l 1
 118.738 471 l 1
 164.5 421.649 l 1
 210.262 471 l 1
 283.647 471 l 1
 180.804 358 l 1
EndSplineSet
EndChar
StartChar: uni00AD
Encoding: 108 173 220
Width: 366
Flags: W
HStem: 143 54<38 328>
Fore
328 197 m 1
 328 143 l 1
 38 143 l 1
 38 197 l 1
 328 197 l 1
EndSplineSet
EndChar
StartChar: uni00B2
Encoding: 113 178 221
Width: 263
Flags: W
HStem: 297.058 54.942<75.2444 250> 606 54<99.9048 176.1>
VStem: 27 54<527 590.227> 195 56<445.834 590.23>
Fore
250 297.058 m 1
 12 296.942 l 1
 12 324 l 2
 12 444.4 195 467.334 195 539 c 0
 195 578.408 167.308 606 138 606 c 0
 108.696 606 81 578.405 81 539 c 2
 81 527 l 1
 27 527 l 1
 27 539 l 2
 27 603.804 75.4513 660 139 660 c 0
 202.384 660 251 604.856 251 540 c 0
 251 439.555 108.435 413.724 75.2444 352 c 1
 250 352 l 1
 250 297.058 l 1
EndSplineSet
EndChar
StartChar: uni00B3
Encoding: 114 179 222
Width: 263
Flags: W
HStem: 293 53<84.9916 177.007> 474 54<119 161.414> 605 54<100.466 161.537>
VStem: 13 54<363.993 422> 35 54<552 586.237> 173 52<535.899 592.905> 195 52<363.992 456.007>
Fore
89 552 m 1xec
 35 552 l 1
 35 564 l 2
 35 616.577 77.4244 659 130 659 c 0
 182.577 659 225 616.576 225 564 c 0xec
 225 540.595 216.284 518.967 200.648 502.411 c 1
 228.605 481.14 247 447.719 247 410 c 0
 247 345.385 194.614 293 130 293 c 0
 65.3851 293 13 345.386 13 410 c 2
 13 422 l 1
 67 422 l 1
 67 410 l 2
 67 374.61 95.6089 346 131 346 c 0
 166.39 346 195 374.609 195 410 c 0xf2
 195 445.39 166.391 474 131 474 c 2
 119 474 l 1
 119 528 l 1
 131 528 l 2
 154.395 528 173 542.384 173 564 c 0
 173 586.235 154.49 605 131 605 c 0
 107.512 605 89 586.237 89 564 c 2
 89 552 l 1xec
EndSplineSet
EndChar
StartChar: uni00B5
Encoding: 116 181 223
Width: 357
Flags: W
HStem: -4.61719 51.5703<140.046 232.772>
VStem: 48 52.38<-111.939 22.8994 84.5771 339.868> 257.521 52.379<69.6566 339.868>
Fore
48 339.868 m 1
 100.38 339.868 l 1
 100.38 135.768 l 2
 100.38 84.5771 135.968 46.9531 177.98 46.9531 c 0
 220.128 46.9531 257.521 84.9131 257.521 135.768 c 2
 257.521 339.868 l 1
 309.9 339.868 l 1
 309.9 135.768 l 2
 309.9 59.6592 253.155 -4.61719 178.95 -4.61719 c 0
 149.024 -4.61719 121.906 5.75488 100.38 22.8994 c 1
 100.38 -87.7021 l 2
 100.38 -104.884 104.778 -121.352 111.761 -135.102 c 2
 116.812 -145.046 l 1
 71.4912 -169.072 l 1
 65.9307 -159.12 l 2
 54.3047 -138.309 48 -114.364 48 -88.6572 c 2
 48 339.868 l 1
EndSplineSet
EndChar
StartChar: uni00B9
Encoding: 120 185 224
Width: 263
Flags: W
HStem: 298 370.785<181 181>
VStem: 128 53<298 566.422>
Fore
128 566.422 m 1
 96.8015 545.363 l 1
 66.3569 590.135 l 1
 181 668.785 l 1
 181 298 l 1
 128 298 l 1
 128 566.422 l 1
EndSplineSet
EndChar
StartChar: uni0E01
Encoding: 209 3585 225
Width: 397
VWidth: 955
Flags: W
HStem: 354.032 50.983<139.905 260.94>
VStem: 48 52.921<-0.0146484 216.694> 296.921 52.92<-0.0146484 336.676>
Fore
90.6758 288.424 m 1
 147.471 256.787 l 1
 130.321 249.234 100.921 229.438 100.921 185.978 c 2
 100.921 -0.0146484 l 1
 48 -0.0146484 l 1
 48 185.978 l 2
 48 209.606 60.8018 232.406 77.5 248.88 c 1
 33.5 271.705 l 1
 60.998 383.695 147.007 405.015 192.061 405.015 c 0
 278.944 405.015 349.841 336.714 349.841 253.011 c 2
 349.841 -0.0146484 l 1
 296.921 -0.0146484 l 1
 296.921 253.011 l 2
 296.921 317.369 245.045 354.032 192.061 354.032 c 0
 151.941 354.032 108.892 334.194 90.6758 288.424 c 1
EndSplineSet
EndChar
StartChar: uni0E02
Encoding: 210 3586 226
Width: 412
VWidth: 955
Flags: W
HStem: -5.01465 50.9824<130.502 281.935> 212.134 50.983<101.359 163.34> 349.032 50.983<125.223 165.059>
VStem: 48.4395 52.9195<90.8779 212.134> 165.059 52.92<264.764 349.032> 311.08 52.92<74.0434 400.015>
Fore
107.584 349.032 m 1
 125.223 400.015 l 1
 217.979 400.015 l 1
 217.979 275.391 l 2
 217.979 240.684 188.345 212.134 152.319 212.134 c 2
 101.359 212.134 l 1
 101.359 146.989 l 2
 101.359 90.8779 147.975 45.9678 206.219 45.9678 c 0
 264.462 45.9678 311.08 90.877 311.08 146.989 c 2
 311.08 400.015 l 1
 364 400.015 l 1
 364 146.989 l 2
 364 63.2861 293.103 -5.01465 206.219 -5.01465 c 0
 119.335 -5.01465 48.4395 63.2861 48.4395 146.989 c 2
 48.4395 263.117 l 1
 152.319 263.117 l 2
 159.7 263.117 165.059 268.263 165.059 275.391 c 2
 165.059 349.032 l 1
 107.584 349.032 l 1
EndSplineSet
EndChar
StartChar: uni0E03
Encoding: 211 3587 227
Width: 412
VWidth: 955
Flags: W
HStem: -4.75098 50.9824<130.528 281.033> 212.397 50.983<100.92 160.212>
VStem: 48 52.92<91.4863 212.397> 164.62 52.921<265.51 313.019> 310.641 52.92<74.7551 400.278>
Fore
138.417 362.107 m 1
 171.949 400.278 l 1
 217.541 400.278 l 1
 217.541 275.654 l 2
 217.541 240.73 188.121 212.397 151.881 212.397 c 2
 100.92 212.397 l 1
 100.92 147.253 l 2
 100.92 91.4863 147.894 46.2314 205.78 46.2314 c 0
 263.667 46.2314 310.641 91.4854 310.641 147.253 c 2
 310.641 400.278 l 1
 363.561 400.278 l 1
 363.561 147.253 l 2
 363.561 63.3506 292.871 -4.75098 205.78 -4.75098 c 0
 118.689 -4.75098 48 63.3496 48 147.253 c 2
 48 263.38 l 1
 151.881 263.38 l 2
 158.903 263.38 164.62 268.885 164.62 275.654 c 2
 164.62 313.019 l 1
 128.271 271.643 l 1
 114.641 318.14 92.9941 343.452 53.335 364.558 c 1
 78.916 409.188 l 1
 105.427 395.085 119.657 384.807 138.417 362.107 c 1
EndSplineSet
EndChar
StartChar: uni0E04
Encoding: 212 3588 228
Width: 411
VWidth: 955
Flags: W
HStem: 174.648 50.983<100.92 204.457> 354.032 50.983<130.064 281.497>
VStem: 48 52.92<-0.0146484 174.648 225.631 325.957> 310.641 52.92<-0.0146484 325.955>
Fore
222.097 225.631 m 1
 204.457 174.648 l 1
 100.92 174.648 l 1
 100.92 -0.0146484 l 1
 48 -0.0146484 l 1
 48 253.011 l 2
 48 336.714 118.896 405.015 205.78 405.015 c 0
 292.664 405.015 363.561 336.714 363.561 253.011 c 2
 363.561 -0.0146484 l 1
 310.641 -0.0146484 l 1
 310.641 253.011 l 2
 310.641 309.122 264.024 354.032 205.78 354.032 c 0
 147.537 354.032 100.92 309.123 100.92 253.011 c 2
 100.92 225.631 l 1
 222.097 225.631 l 1
EndSplineSet
EndChar
StartChar: uni0E05
Encoding: 213 3589 229
Width: 412
VWidth: 955
Flags: W
HStem: 174.834 50.982<101.359 203.896>
VStem: 48.4404 52.9186<0.170898 174.834 225.816 301.577> 311.08 52.919<0.170898 301.581>
Fore
221.536 225.816 m 1
 203.896 174.834 l 1
 101.359 174.834 l 1
 101.359 0.170898 l 1
 48.4404 0.170898 l 1
 48.4404 263.302 l 2
 48.4404 319.01 73.4688 365.088 117.43 392.666 c 2
 138.921 406.471 l 1
 153.248 385.767 l 2
 192.787 329.989 216.44 323.044 259.154 384.77 c 2
 273.138 404.978 l 1
 294.494 392.976 l 2
 342.219 365.807 362.966 314.159 363.999 263.414 c 2
 364.001 0.170898 l 1
 311.08 0.170898 l 1
 311.08 263.302 l 2
 311.08 292.747 301.795 317.191 284.964 334.497 c 1
 264.936 311.335 238.656 289.737 206.22 289.737 c 0
 173.775 289.737 147.505 311.327 127.475 334.494 c 1
 110.646 317.188 101.359 292.744 101.359 263.302 c 2
 101.359 225.816 l 1
 221.536 225.816 l 1
EndSplineSet
EndChar
StartChar: uni0E06
Encoding: 214 3590 230
Width: 411
VWidth: 955
Flags: W
HStem: -4.75098 50.9824<169.964 313.659> 212.397 50.983<100.92 160.212>
VStem: 48 52.92<-0.0302734 79.2588 127.562 212.397> 164.62 52.921<265.51 313.019> 310.641 52.92<84.8656 400.278>
Fore
53.335 364.558 m 1
 78.916 409.188 l 1
 105.427 395.085 119.657 384.807 138.417 362.107 c 1
 171.949 400.278 l 1
 217.541 400.278 l 1
 217.541 275.654 l 2
 217.541 240.73 188.121 212.397 151.881 212.397 c 2
 100.92 212.397 l 1
 100.92 186.906 l 2
 100.92 127.562 181.405 46.2314 235.181 46.2314 c 0
 295.549 46.2314 310.641 99.2627 310.641 147.253 c 2
 310.641 400.278 l 1
 363.561 400.278 l 1
 363.561 147.253 l 2
 363.561 66.0059 325.479 -4.75098 235.181 -4.75098 c 0
 185.014 -4.75098 135.676 34.4766 100.92 79.2588 c 1
 100.92 -0.0302734 l 1
 48 -0.0302734 l 1
 48 263.38 l 1
 151.881 263.38 l 2
 158.903 263.38 164.62 268.885 164.62 275.654 c 2
 164.62 313.019 l 1
 128.271 271.643 l 1
 111.7 323.805 92.9941 343.452 53.335 364.558 c 1
EndSplineSet
EndChar
StartChar: uni0E07
Encoding: 215 3591 231
Width: 411
VWidth: 955
Flags: W
HStem: -5.01465 50.9824<130.063 281.496> 349.032 50.983<194.021 281.497>
VStem: 48 52.92<90.8779 283.556> 310.641 52.92<74.0434 304.122>
Fore
48 283.556 m 1
 100.92 300.551 l 1
 100.92 146.989 l 2
 100.92 90.8779 147.536 45.9678 205.78 45.9678 c 0
 264.023 45.9678 310.641 90.877 310.641 146.989 c 2
 310.641 248.011 l 2
 310.641 304.122 264.024 349.032 205.78 349.032 c 2
 194.021 349.032 l 1
 194.021 400.015 l 1
 205.78 400.015 l 2
 292.664 400.015 363.561 331.714 363.561 248.011 c 2
 363.561 146.989 l 2
 363.561 63.2861 292.664 -5.01465 205.78 -5.01465 c 0
 118.896 -5.01465 48 63.2861 48 146.989 c 2
 48 283.556 l 1
EndSplineSet
EndChar
StartChar: uni0E08
Encoding: 216 3592 232
Width: 395
VWidth: 955
Flags: W
HStem: 174.648 50.983<191.104 294.641> 354.032 50.983<114.064 265.497>
VStem: 32 52.9199<241.682 325.957> 294.641 52.92<-0.0146484 174.648 225.631 309.122>
Fore
173.465 174.648 m 1
 191.104 225.631 l 1
 294.641 225.631 l 1
 294.641 253.011 l 2
 294.641 309.122 248.024 354.032 189.78 354.032 c 0
 131.537 354.032 84.9199 309.123 84.9199 253.011 c 2
 84.9199 241.682 l 1
 32 241.682 l 1
 32 253.011 l 2
 32 336.714 102.896 405.015 189.78 405.015 c 0
 276.664 405.015 347.561 336.714 347.561 253.011 c 2
 347.561 -0.0146484 l 1
 294.641 -0.0146484 l 1
 294.641 174.648 l 1
 173.465 174.648 l 1
EndSplineSet
EndChar
StartChar: uni0E09
Encoding: 217 3593 233
Width: 394
VWidth: 955
Flags: W
HStem: -2.93066 50.9825<119.2 230.895> 353.948 50.983<113.32 264.753>
VStem: 31.2559 52.9199<252.927 325.873> 51.8359 52.9201<51.6895 167.956> 293.896 52.92<-0.0986328 73.2051 114.952 309.038>
Fore
12 167.956 m 1xd8
 29.6396 218.938 l 1
 104.756 218.938 l 1
 104.756 149.135 l 2xd8
 105.67 68.125 130.793 48.0518 169.436 48.0518 c 0
 227.004 48.0518 293.896 131.541 293.896 186.838 c 2
 293.896 252.927 l 2
 293.896 309.038 247.28 353.948 189.036 353.948 c 0
 130.793 353.948 84.1758 309.039 84.1758 252.927 c 9
 31.2559 252.927 l 17xe8
 31.2559 336.63 102.152 404.931 189.036 404.931 c 0
 275.92 404.931 346.816 336.63 346.816 252.927 c 2
 346.816 -0.0986328 l 1
 293.896 -0.0986328 l 1
 293.896 73.2051 l 1
 261.404 30.4775 216.938 -2.93066 170.416 -2.93066 c 0
 75.5527 -2.93066 52.8584 74.1455 51.8359 148.999 c 2
 51.8359 167.956 l 1
 12 167.956 l 1xd8
EndSplineSet
EndChar
StartChar: uni0E0A
Encoding: 218 3594 234
Width: 411
VWidth: 955
Flags: W
HStem: -5.01465 50.9824<130.064 281.497> 212.134 50.983<100.92 162.901> 275.391 50.982<217.541 296.26> 349.032 50.983<124.784 164.62>
VStem: 48 52.92<74.0434 212.134> 164.62 52.921<267.217 275.391 326.373 349.032> 310.641 52.92<90.8779 250.501 339.402 400.015>
Fore
107.145 349.032 m 1
 124.784 400.015 l 1
 217.541 400.015 l 1
 217.541 326.373 l 1
 268.501 326.373 l 2
 296.26 326.373 310.641 347.943 310.641 376.412 c 2
 310.641 400.015 l 1
 363.561 400.015 l 1
 363.561 376.412 l 2
 363.561 346.115 350.283 318.676 328.829 299.938 c 1
 350.282 281.199 363.561 253.76 363.561 223.464 c 2
 363.561 146.989 l 2
 363.561 63.2861 292.664 -5.01465 205.78 -5.01465 c 0
 118.896 -5.01465 48 63.2861 48 146.989 c 2
 48 263.117 l 1
 151.881 263.117 l 2
 159.261 263.117 164.62 268.263 164.62 275.391 c 2
 164.62 349.032 l 1
 107.145 349.032 l 1
268.501 275.391 m 2
 217.541 275.391 l 1
 217.541 240.684 187.906 212.134 151.881 212.134 c 2
 100.92 212.134 l 1
 100.92 146.989 l 2
 100.92 90.877 147.537 45.9678 205.78 45.9678 c 0
 264.024 45.9678 310.641 90.8779 310.641 146.989 c 2
 310.641 223.464 l 2
 310.641 243.22 302.213 275.391 268.501 275.391 c 2
EndSplineSet
EndChar
StartChar: uni0E0B
Encoding: 219 3595 235
Width: 411
VWidth: 955
Flags: W
HStem: -5.01465 50.9824<130.064 281.497> 212.134 50.983<100.92 162.901> 275.391 50.982<217.541 304.588>
VStem: 48 52.92<90.877 212.134> 310.641 52.92<74.0446 244.262 339.402 400.015>
Fore
268.501 275.391 m 2
 217.541 275.391 l 1
 217.541 240.684 187.906 212.134 151.881 212.134 c 2
 100.92 212.134 l 1
 100.92 146.989 l 2
 100.92 90.877 147.537 45.9678 205.78 45.9678 c 0
 264.024 45.9678 310.641 90.8779 310.641 146.989 c 2
 310.641 223.464 l 2
 310.641 243.22 302.213 275.391 268.501 275.391 c 2
53.335 364.558 m 1
 78.916 409.188 l 1
 105.427 395.085 119.657 384.807 138.417 362.107 c 1
 171.949 400.278 l 1
 217.541 400.015 l 1
 217.541 326.373 l 1
 268.501 326.373 l 2
 296.26 326.373 310.641 347.943 310.641 376.412 c 2
 310.641 400.015 l 1
 363.561 400.015 l 1
 363.561 376.412 l 2
 363.561 346.115 350.283 318.676 328.829 299.938 c 1
 350.282 281.199 363.561 253.76 363.561 223.464 c 2
 363.561 146.989 l 2
 363.561 63.2861 292.664 -5.01465 205.78 -5.01465 c 0
 118.896 -5.01465 48 63.2861 48 146.989 c 2
 48 263.117 l 1
 151.881 263.117 l 2
 159.261 263.117 164.62 268.263 164.62 275.391 c 2
 164.62 313.019 l 1
 128.271 271.643 l 1
 113.66 320.027 92.9941 343.452 53.335 364.558 c 1
EndSplineSet
EndChar
StartChar: uni0E0C
Encoding: 220 3596 236
Width: 629
VWidth: 955
Flags: W
HStem: -5.84766 50.9834<408.18 515.238> -0.0146484 50.9824<101.08 127.196> 354.032 50.983<140.066 261.099>
VStem: 48.1602 52.9198<50.9678 216.694> 297 53.343<-0.182617 64.3018 104.337 336.676> 529.683 52.921<43.3748 400.127>
Fore
350.343 185.811 m 2x7c
 350.343 123.139 412.425 45.1357 464.022 45.1357 c 0
 503.419 45.1357 529.683 67.0938 529.683 146.157 c 2
 529.683 400.127 l 1
 582.604 400.127 l 1
 582.604 146.157 l 2
 582.604 37.2676 533.864 -5.84766 464.022 -5.84766 c 0xbc
 421.067 -5.84766 380.928 23.0781 350.343 64.3018 c 1
 350.343 -0.182617 l 1
 297 -0.182617 l 1
 297 253.011 l 2
 297 317.369 245.204 354.032 192.221 354.032 c 0
 152.102 354.032 109.051 334.194 90.8359 288.424 c 1
 147.631 256.787 l 1
 130.48 249.234 101.08 229.438 101.08 185.978 c 2
 101.08 50.9678 l 1
 144.837 50.9678 l 1
 127.196 -0.0146484 l 1
 48.1602 -0.0146484 l 1
 48.1602 185.978 l 2
 48.1602 209.606 60.9619 232.406 77.6592 248.88 c 1
 33.6592 271.705 l 1
 61.1582 383.695 147.166 405.015 192.221 405.015 c 0
 279.104 405.015 350 336.714 350 253.011 c 2
 350.343 185.811 l 2x7c
EndSplineSet
EndChar
StartChar: uni0E0D
Encoding: 221 3597 237
Width: 632
VWidth: 952
Flags: W
HStem: -108.802 50.0383<383.711 498.173> -4.94824 50.9824<378.069 485.49> -0.0146484 50.9824<101.08 127.196> 354.032 50.983<140.066 261.099>
VStem: 48.1602 52.9198<50.9678 216.694> 297 53<89.1016 336.676> 531.08 52.92<-34.3955 32.3184 71.5273 400.081>
Fore
297 253.011 m 2xde
 297 317.369 245.204 354.032 192.221 354.032 c 0
 152.102 354.032 109.051 334.194 90.8359 288.424 c 1
 147.631 256.787 l 1
 130.48 249.234 101.08 229.438 101.08 185.978 c 2
 101.08 50.9678 l 1
 144.837 50.9678 l 1
 127.196 -0.0146484 l 1
 48.1602 -0.0146484 l 1xbe
 48.1602 185.978 l 2
 48.1602 209.606 60.9619 232.406 77.6592 248.88 c 1
 33.6592 271.705 l 1
 61.1582 383.695 147.166 405.015 192.221 405.015 c 0
 279.104 405.015 349.655 336.713 350 253.011 c 2
 350 147.056 l 2
 350 89.1016 392.573 46.0342 440.92 46.0342 c 0
 489.203 46.0342 531.08 88.957 531.08 147.056 c 2
 531.08 400.081 l 1
 584 400.081 l 1
 584 43.2021 l 2
 584 -38.4814 522.91 -108.802 440.92 -108.802 c 0
 368.839 -108.802 334.108 -59.2686 321.801 -42.9688 c 1
 367.576 -17.5273 l 1
 374.852 -26.751 396.913 -58.7637 440.92 -58.7637 c 0
 484.961 -58.7637 530 -19 530.135 32.3184 c 1
 508 8 475.205 -4.94824 440.92 -4.94824 c 0
 359.098 -4.94824 296.86 64.2744 296.86 146.111 c 2
 297 253.011 l 2xde
EndSplineSet
Substitution2: "Single Substitution lookup 8" uni0E0D.descless
EndChar
StartChar: uni0E0E
Encoding: 222 3598 238
Width: 398
VWidth: 951
Flags: W
HStem: -133.075 50.9822<10.2842 124.737> 354.093 50.982<140.065 261.099>
VStem: 48.1602 52.9198<51.0283 209.667> 297.08 52.92<-76.1572 336.738>
Fore
9.30371 0.0458984 m 1
 26.9443 51.0283 l 1
 48.1602 51.0283 l 1
 48.1602 186.039 l 2
 48.1602 209.667 60.9609 232.467 77.6582 248.941 c 1
 33.6582 271.766 l 1
 61.1572 383.756 147.166 405.075 192.22 405.075 c 0
 279.104 405.075 350 336.774 350 253.071 c 2
 350 -133.075 l 5
 291.577 -133.075 l 5
 214.03 -83.5703 l 5
 142.089 -133.075 l 5
 -7.35645 -133.075 l 5
 10.2842 -82.0928 l 5
 124.737 -82.0928 l 5
 211.521 -22.0928 l 5
 297.08 -76.1572 l 5
 297.08 253.071 l 2
 297.08 317.43 245.204 354.093 192.22 354.093 c 0
 152.101 354.093 109.05 334.255 90.835 288.484 c 1
 147.63 256.848 l 1
 130.48 249.295 101.08 229.499 101.08 186.039 c 2
 101.08 0.0458984 l 1
 9.30371 0.0458984 l 1
EndSplineSet
EndChar
StartChar: uni0E0F
Encoding: 223 3599 239
Width: 398
VWidth: 951
Flags: W
HStem: -133.339 50.9826<10.2832 55.5703> 353.829 50.983<140.064 261.099>
VStem: 48.1602 52.9198<50.7656 209.403> 297.08 52.92<-69.8672 336.473>
Fore
9.30371 -0.217773 m 1
 26.9443 50.7656 l 1
 48.1602 50.7656 l 1
 48.1602 185.775 l 2
 48.1602 209.403 60.9609 232.203 77.6572 248.678 c 1
 33.6572 271.503 l 1
 61.1562 383.493 147.166 404.812 192.219 404.812 c 0
 279.103 404.812 350 336.512 350 252.808 c 2
 350 -133.339 l 1
 288.222 -133.339 l 1
 241.98 -87.9326 l 1
 183.66 -142.246 l 1
 121.591 -88.0557 l 1
 79.9092 -133.339 l 1
 -7.35645 -133.339 l 1
 10.2832 -82.3564 l 1
 55.5703 -82.3564 l 1
 115.811 -16.1758 l 1
 181.188 -73.4336 l 1
 242.4 -16.3652 l 1
 297.08 -69.8672 l 1
 297.08 252.808 l 2
 297.08 317.166 245.204 353.829 192.219 353.829 c 0
 152.1 353.829 109.049 333.991 90.835 288.221 c 1
 147.629 256.584 l 1
 130.48 249.031 101.08 229.235 101.08 185.775 c 2
 101.08 -0.217773 l 1
 9.30371 -0.217773 l 1
EndSplineSet
EndChar
StartChar: uni0E10
Encoding: 224 3600 240
Width: 401
VWidth: 951
Flags: W
HStem: -152.324 50.982<13.6377 58.9248> 174.46 50.982<197.104 300.64> 353.844 50.982<120.063 237.43>
VStem: 38 52.9199<241.493 325.769> 301.413 51.941<-89.0684 -49 -0.203125 174.46 225.442 296.951>
Fore
245.754 -35.3506 m 1
 301.413 -89.0684 l 1
 301.413 -49 l 1
 281 -19 l 1
 353.354 -19 l 1
 353.354 -152.324 l 1
 291.576 -152.324 l 1
 245.334 -106.918 l 1
 187.014 -161.231 l 1
 124.945 -107.042 l 1
 83.2627 -152.324 l 1
 -4.00293 -152.324 l 1
 13.6377 -101.342 l 1
 58.9248 -101.342 l 1
 119.165 -35.1611 l 1
 184.542 -92.4189 l 1
 245.754 -35.3506 l 1
179.464 174.46 m 1
 197.104 225.442 l 1
 300.64 225.442 l 1
 300.64 252.822 l 2
 300.64 308.934 254.023 353.844 195.779 353.844 c 0
 137.536 353.844 90.9199 308.935 90.9199 252.822 c 2
 90.9199 241.493 l 1
 38 241.493 l 1
 38 252.822 l 2
 38 336.525 108.896 404.826 195.779 404.826 c 0
 227.818 404.826 257.247 395.348 282.146 379.759 c 1
 322.472 405.317 l 1
 352.367 362.964 l 1
 322.071 343.811 l 1
 342.141 318.524 353.561 286.767 353.561 252.822 c 2
 353.561 -0.203125 l 1
 300.64 -0.203125 l 1
 300.64 174.46 l 1
 179.464 174.46 l 1
EndSplineSet
Substitution2: "Single Substitution lookup 8" uni0E10.descless
EndChar
StartChar: uni0E11
Encoding: 225 3601 241
Width: 411
VWidth: 955
Flags: W
HStem: 355.101 50.982<250.228 327.823>
VStem: 47.7266 52.9144<0.109375 174.585> 310.367 52.914<0.109375 364.944>
Fore
7 364.697 m 1
 32.5781 409.327 l 1
 59.0938 395.225 73.3203 384.945 92.0781 362.247 c 1
 125.609 400.418 l 1
 171.203 400.418 l 1
 171.203 339.16 l 1
 205.203 372.377 247.75 406.083 283.906 406.083 c 0
 370.602 406.083 363.281 333.287 363.281 258.8 c 2
 363.281 0.109375 l 1
 310.367 0.109375 l 1
 310.367 258.8 l 2
 310.367 323.152 317.688 355.101 283.906 355.101 c 0
 258 355.101 172.07 276.188 100.641 174.585 c 1
 100.641 0.109375 l 1
 47.7266 0.109375 l 1
 47.7266 187.046 l 2
 47.7266 194.741 90.9766 249.741 118.281 281.917 c 1
 118.281 313.158 l 1
 81.9385 271.784 l 1
 68.3047 317.335 46.6562 343.593 7 364.697 c 1
EndSplineSet
EndChar
StartChar: uni0E12
Encoding: 226 3602 242
Width: 654
VWidth: 955
Flags: W
HStem: -4.69922 50.9824<107.306 232.669 431.98 539.036> 201.12 50.983<139.284 175.2> 289.645 50.982<201.774 234.387>
VStem: 38 52.9199<86.9751 244.733> 230.08 52.92<86.3752 178.44> 321.221 52.92<0.0214844 65.4492 124.286 300.788> 553.48 52.92<44.5234 400.33>
Fore
121.645 201.12 m 1
 139.284 252.103 l 1
 175.2 252.103 l 2
 247.571 252.103 283 188.005 283 125.59 c 0
 283 76.7129 258.83 -4.69922 165.4 -4.69922 c 0
 78.8633 -4.69922 38 93.5342 38 188.847 c 0
 38 266.964 70.9346 351.441 137.765 399.729 c 2
 147.818 406.993 l 1
 154.676 396.848 l 2
 183.793 353.768 205.592 340.627 218.32 340.627 c 0
 230.679 340.627 250.788 354.172 280.11 396.057 c 2
 286.751 405.542 l 1
 296.532 399.052 l 2
 343.284 368.023 374.141 319.542 374.141 266.985 c 2
 374.141 186.958 l 2
 374.141 124.286 436.223 46.2832 487.82 46.2832 c 0
 527.217 46.2832 553.48 68.2422 553.48 147.305 c 2
 553.48 400.33 l 1
 606.4 400.33 l 1
 606.4 147.305 l 2
 606.4 38.416 557.662 -4.69922 487.82 -4.69922 c 0
 444.866 -4.69922 404.725 24.2256 374.141 65.4492 c 1
 374.141 0.0214844 l 1
 321.221 0.0214844 l 1
 321.221 266.985 l 2
 321.221 292.987 312.814 315.675 296.591 333.301 c 1
 273.654 308.15 245.756 289.645 218.32 289.645 c 0
 187.559 289.645 160.356 309.119 139.168 332.918 c 1
 101.785 291.398 90.9199 231.836 90.9199 188.847 c 0
 90.9199 110.484 120.712 46.2832 165.4 46.2832 c 0
 217.145 46.2832 230.08 95.4248 230.08 125.59 c 0
 230.08 166.244 209.665 201.12 175.2 201.12 c 2
 121.645 201.12 l 1
EndSplineSet
EndChar
StartChar: uni0E13
Encoding: 227 3603 243
Width: 630
VWidth: 955
Flags: W
HStem: -5.84766 50.9834<363.968 471.241> -0.182617 50.9834<100.819 126.936> 353.864 50.984<139.805 260.838>
VStem: 47.8994 52.9196<50.8008 216.526> 296.819 52.92<66.3867 336.508> 529.08 52.92<-0.182617 64.3018 103.46 400.127>
Fore
144.577 50.8008 m 1xbc
 126.936 -0.182617 l 1
 47.8994 -0.182617 l 1x7c
 47.8994 185.811 l 2
 47.8994 209.438 60.7012 232.238 77.3984 248.713 c 1
 33.3975 271.538 l 1
 60.8975 383.528 146.906 404.848 191.96 404.848 c 0
 278.844 404.848 349.739 336.546 349.739 252.843 c 2
 349.739 146.157 l 2
 349.739 66.3867 375.611 45.1357 414.42 45.1357 c 0xbc
 465.274 45.1357 529.08 122.464 529.08 185.811 c 2
 529.08 400.127 l 1
 582 400.127 l 1
 582 -0.182617 l 1
 529.08 -0.182617 l 1x7c
 529.08 64.3018 l 1
 498.495 23.0781 458.354 -5.84766 415.399 -5.84766 c 0
 345.548 -5.84766 296.819 37.2686 296.819 146.157 c 2
 296.819 252.843 l 2
 296.819 317.201 244.943 353.864 191.96 353.864 c 0
 151.841 353.864 108.79 334.026 90.5752 288.256 c 1
 147.37 256.619 l 1
 130.22 249.066 100.819 229.271 100.819 185.811 c 2
 100.819 50.8008 l 1
 144.577 50.8008 l 1xbc
EndSplineSet
EndChar
StartChar: uni0E14
Encoding: 228 3604 244
Width: 422
VWidth: 955
Flags: W
HStem: -4.875 50.9824<107.306 221.204> 200.944 50.983<139.284 175.2> 353.893 50.982<105.008 290.243>
VStem: 38 52.9199<84.4682 293.486> 230.081 52.92<67.6593 178.264> 321.221 52.92<-0.154297 325.455>
Fore
121.645 200.944 m 1
 139.284 251.927 l 1
 175.2 251.927 l 2
 247.571 251.927 283.001 187.829 283.001 125.414 c 0
 283.001 56.332 243.493 -4.875 165.4 -4.875 c 0
 88.5283 -4.875 38 76.0908 38 188.671 c 0
 38 288.562 91.6035 404.875 214.4 404.875 c 0
 301.207 404.875 374.141 336.796 374.141 252.871 c 2
 374.141 -0.154297 l 1
 321.221 -0.154297 l 1
 321.221 252.871 l 2
 321.221 308.705 272.741 353.893 214.4 353.893 c 0
 130.252 353.893 90.9199 269.298 90.9199 188.671 c 0
 90.9199 108.515 120.712 46.1074 165.4 46.1074 c 0
 208.326 46.1074 230.081 80.9873 230.081 125.414 c 0
 230.081 166.068 209.666 200.944 175.2 200.944 c 2
 121.645 200.944 l 1
EndSplineSet
EndChar
StartChar: uni0E15
Encoding: 229 3605 245
Width: 422
VWidth: 955
Flags: W
HStem: -4.69922 50.9824<107.306 232.669> 200.12 51.983<139.284 175.2> 287.645 50.982<201.774 234.385>
VStem: 38 52.9199<86.9751 244.733> 230.081 52.92<86.3752 178.44> 321.221 52.92<0.0214844 298.788>
Fore
121.645 200.12 m 1
 139.284 252.103 l 1
 175.2 252.103 l 2
 247.571 252.103 283.001 188.005 283.001 125.59 c 0
 283.001 76.7129 258.832 -4.69922 165.4 -4.69922 c 0
 78.8633 -4.69922 38 93.5342 38 188.847 c 0
 38 266.964 70.9355 349.441 137.765 397.729 c 2
 147.818 404.993 l 1
 154.675 394.848 l 2
 183.794 351.768 205.592 338.627 218.32 338.627 c 0
 230.678 338.627 250.79 352.172 280.11 394.057 c 2
 286.752 403.542 l 1
 296.532 397.052 l 2
 343.284 366.023 374.141 317.542 374.141 264.985 c 2
 374.141 0.0214844 l 1
 321.221 0.0214844 l 1
 321.221 264.985 l 2
 321.221 290.987 312.814 313.675 296.591 331.301 c 1
 273.654 306.15 245.757 287.645 218.32 287.645 c 0
 187.56 287.645 160.356 307.119 139.169 330.918 c 1
 101.785 289.398 90.9199 231.836 90.9199 188.847 c 0
 90.9199 110.484 120.712 46.2832 165.4 46.2832 c 0
 217.145 46.2832 230.081 95.4248 230.081 125.59 c 0
 230.081 166.244 209.666 200.12 175.2 200.12 c 2
 121.645 200.12 l 1
EndSplineSet
EndChar
StartChar: uni0E16
Encoding: 230 3606 246
Width: 398
VWidth: 955
Flags: W
HStem: -0.0146484 50.9824<101.08 127.196> 354.032 50.983<140.066 261.099>
VStem: 48.1602 52.9198<50.9678 216.694> 297.08 52.92<-0.0146484 336.676>
Fore
144.837 50.9678 m 1
 127.196 -0.0146484 l 1
 48.1602 -0.0146484 l 1
 48.1602 185.978 l 2
 48.1602 209.606 60.9619 232.406 77.6592 248.88 c 1
 33.6592 271.705 l 1
 61.1582 383.695 147.166 405.015 192.221 405.015 c 0
 279.104 405.015 350.001 336.714 350 253.011 c 2
 350 -0.0146484 l 1
 297.08 -0.0146484 l 1
 297.08 253.011 l 2
 297.08 317.369 245.204 354.032 192.221 354.032 c 0
 152.102 354.032 109.051 334.194 90.8359 288.424 c 1
 147.631 256.787 l 1
 130.48 249.234 101.08 229.438 101.08 185.978 c 2
 101.08 50.9678 l 1
 144.837 50.9678 l 1
EndSplineSet
EndChar
StartChar: uni0E17
Encoding: 231 3607 247
Width: 412
VWidth: 955
Flags: W
HStem: 354.032 50.983<170.403 314.097>
VStem: 48.4395 52.9195<-0.0146484 272.861 321.005 400.294> 311.08 52.92<-0.0146484 315.399>
Fore
48.4395 -0.0146484 m 1
 48.4395 400.294 l 1
 101.359 400.294 l 1
 101.359 321.005 l 1
 136.113 365.785 185.453 405.015 235.62 405.015 c 0
 325.928 405.015 364 334.26 364 253.011 c 2
 364 -0.0146484 l 1
 311.08 -0.0146484 l 1
 311.08 253.011 l 2
 311.08 301.002 295.987 354.032 235.62 354.032 c 0
 181.916 354.032 101.359 272.861 101.359 213.357 c 2
 101.359 -0.0146484 l 1
 48.4395 -0.0146484 l 1
EndSplineSet
EndChar
StartChar: uni0E18
Encoding: 232 3608 248
Width: 412
VWidth: 955
Flags: W
HStem: -0.0146484 50.9824<101.359 206.22> 174.648 50.983<101.359 311.08> 354.032 50.983<130.504 281.937>
VStem: 48.4395 52.9195<50.9678 152 225.631 325.957> 311.08 52.92<79.0434 174.648 253.011 325.955>
Fore
48.4395 -0.0146484 m 1
 48.4395 152 l 1
 101.359 152 l 1
 101.359 50.9678 l 1
 206.22 50.9678 l 2
 264.463 50.9678 311.08 95.877 311.08 151.989 c 2
 311.08 174.648 l 1
 48.4395 174.648 l 1
 48.4395 253.011 l 2
 48.4395 336.714 119.336 405.015 206.22 405.015 c 0
 293.104 405.015 364 336.714 364 253.011 c 9
 311.08 253.011 l 17
 311.08 309.122 264.464 354.032 206.22 354.032 c 0
 147.977 354.032 101.359 309.123 101.359 253.011 c 2
 101.359 225.631 l 1
 364 225.631 l 1
 364 151.989 l 2
 364 68.2861 293.104 -0.0146484 206.22 -0.0146484 c 2
 48.4395 -0.0146484 l 1
EndSplineSet
EndChar
StartChar: uni0E19
Encoding: 233 3609 249
Width: 412
VWidth: 955
Flags: W
HStem: -3.07031 50.9824<98.3419 240.873>
VStem: 48.4395 52.9195<100.942 400.07> 311.08 52.92<-0.238281 79.3457 114.883 400.07>
Fore
48.4395 400.07 m 1
 101.359 400.07 l 1
 101.359 148.934 l 2
 101.359 100.942 116.452 47.9121 176.819 47.9121 c 0
 234.642 47.9121 311.08 131.456 311.08 186.698 c 2
 311.08 400.07 l 1
 364 400.07 l 1
 364 -0.238281 l 1
 311.08 -0.238281 l 1
 311.08 79.3457 l 1
 276.022 34.8994 226.091 -3.07031 176.819 -3.07031 c 0
 86.5117 -3.07031 48.4395 67.6836 48.4395 148.934 c 2
 48.4395 400.07 l 1
EndSplineSet
EndChar
StartChar: uni0E1A
Encoding: 234 3610 250
Width: 412
VWidth: 955
Flags: W
HStem: -5.01465 50.9824<130.503 281.936>
VStem: 48.4395 53.9195<90.8779 400.015> 310.08 53.92<74.0434 400.015>
Fore
48.4395 400.015 m 1
 102.359 400.015 l 1
 102.359 146.989 l 2
 102.359 90.8779 147.976 45.9678 206.22 45.9678 c 0
 264.463 45.9678 310.08 90.877 310.08 146.989 c 2
 310.08 400.015 l 1
 364 400.015 l 1
 364 146.989 l 2
 364 63.2861 293.104 -5.01465 206.22 -5.01465 c 0
 119.336 -5.01465 48.4395 63.2861 48.4395 146.989 c 2
 48.4395 400.015 l 1
EndSplineSet
EndChar
StartChar: uni0E1B
Encoding: 235 3611 251
Width: 412
VWidth: 957
Flags: W
HStem: -5.2207 50.9824<130.503 281.936>
VStem: 48.4395 53.9195<90.6719 399.809> 310.08 53.92<73.8373 494.221>
Fore
48.4395 399.809 m 1
 102.359 399.809 l 1
 102.359 146.783 l 2
 102.359 90.6719 147.976 45.7617 206.22 45.7617 c 0
 264.463 45.7617 310.08 90.6709 310.08 146.783 c 2
 310.08 494.221 l 1
 364 494.221 l 1
 364 146.783 l 2
 364 63.0791 293.104 -5.2207 206.22 -5.2207 c 0
 119.336 -5.2207 48.4395 63.0801 48.4395 146.783 c 2
 48.4395 399.809 l 1
EndSplineSet
EndChar
StartChar: uni0E1C
Encoding: 236 3612 252
Width: 445
VWidth: 955
Flags: W
HStem: -4.9873 50.9834<114.887 184.531 259.951 346.661> 350.004 50.983<114.886 159.521>
VStem: 38 52.9199<69.9665 326.008> 196.76 51.94<91.5209 400.043> 344.74 52.92<71.8935 400.043>
Fore
196.76 400.043 m 1
 248.7 400.043 l 1
 248.7 118.693 l 2
 248.7 82.6934 258.305 45.9961 296.72 45.9961 c 0
 335.136 45.9961 344.74 82.6934 344.74 118.693 c 2
 344.74 400.043 l 1
 397.66 400.043 l 1
 397.66 118.693 l 2
 397.66 34.3223 352.177 -4.9873 296.72 -4.9873 c 0
 268.436 -4.9873 241.312 11.6846 222.24 38.0098 c 1
 203.167 11.6846 176.045 -4.9873 147.76 -4.9873 c 0
 81.9043 -4.9873 38 74.8857 38 198 c 0
 38 319.792 81.9043 400.987 147.76 400.987 c 2
 159.521 400.987 l 1
 159.521 350.004 l 1
 147.76 350.004 l 2
 122.472 350.004 90.9199 296.468 90.9199 198 c 0
 90.9199 99.5127 122.473 45.9961 147.76 45.9961 c 0
 188.875 45.9961 196.76 91.9961 196.76 118.693 c 2
 196.76 400.043 l 1
EndSplineSet
EndChar
StartChar: uni0E1D
Encoding: 237 3613 253
Width: 445
VWidth: 957
Flags: W
HStem: -5.2207 50.9824<114.887 184.531 259.951 346.661> 349.77 50.983<114.884 159.521>
VStem: 38 52.9199<69.732 325.773> 196.76 51.94<91.2866 399.809> 344.74 52.92<71.659 494.221>
Fore
196.76 399.809 m 1
 248.7 399.809 l 1
 248.7 118.459 l 2
 248.7 82.459 258.304 45.7617 296.72 45.7617 c 0
 335.136 45.7617 344.74 82.459 344.74 118.459 c 2
 344.74 494.221 l 1
 397.66 494.221 l 1
 397.66 118.459 l 2
 397.66 34.0879 352.177 -5.2207 296.72 -5.2207 c 0
 268.436 -5.2207 241.312 11.4502 222.24 37.7754 c 1
 203.167 11.4502 176.045 -5.2207 147.76 -5.2207 c 0
 81.9043 -5.2207 38 74.6523 38 197.766 c 0
 38 319.558 81.9043 400.753 147.76 400.753 c 2
 159.521 400.753 l 1
 159.521 349.77 l 1
 147.76 349.77 l 2
 122.471 349.77 90.9199 296.233 90.9199 197.766 c 0
 90.9199 99.2783 122.473 45.7617 147.76 45.7617 c 0
 188.875 45.7617 196.76 91.7617 196.76 118.459 c 2
 196.76 399.809 l 1
EndSplineSet
EndChar
StartChar: uni0E1E
Encoding: 238 3614 254
Width: 458
VWidth: 955
Flags: W
HStem: -5.01465 50.9824<98.9211 190.246 268.354 359.717>
VStem: 48 52.92<81.8369 400.015> 202.84 52.92<81.3901 400.015> 357.68 52.92<72.4614 400.015>
Fore
48 400.015 m 1
 100.92 400.015 l 1
 100.92 118.666 l 2
 100.92 81.8369 110.916 45.9678 150.899 45.9678 c 0
 194.02 45.9678 202.84 89.9922 202.84 118.666 c 2
 202.84 400.015 l 1
 255.76 400.015 l 1
 255.76 118.666 l 2
 255.76 83.124 265.951 45.9678 306.72 45.9678 c 0
 347.487 45.9678 357.68 83.124 357.68 118.666 c 2
 357.68 400.015 l 1
 410.6 400.015 l 1
 410.6 118.666 l 2
 410.6 34.0391 363.826 -5.01465 306.72 -5.01465 c 0
 277.208 -5.01465 249.179 11.9736 229.3 39.2041 c 1
 209.421 11.9736 181.392 -5.01465 151.88 -5.01465 c 0
 94.7627 -5.01465 48 34.043 48 118.666 c 2
 48 400.015 l 1
EndSplineSet
EndChar
StartChar: uni0E1F
Encoding: 239 3615 255
Width: 458
VWidth: 957
Flags: W
HStem: -5.2207 50.9824<98.9211 190.246 268.354 359.717>
VStem: 48 52.92<81.6309 399.809> 202.84 52.92<81.1842 399.809> 357.68 52.92<72.2544 494.221>
Fore
48 399.809 m 1
 100.92 399.809 l 1
 100.92 118.459 l 2
 100.92 81.6309 110.916 45.7617 150.899 45.7617 c 0
 194.02 45.7617 202.84 89.7861 202.84 118.459 c 2
 202.84 399.809 l 1
 255.76 399.809 l 1
 255.76 118.459 l 2
 255.76 82.917 265.952 45.7617 306.72 45.7617 c 0
 347.487 45.7617 357.68 82.917 357.68 118.459 c 2
 357.68 494.221 l 1
 410.6 494.221 l 1
 410.6 118.459 l 2
 410.6 33.833 363.827 -5.2207 306.72 -5.2207 c 0
 277.208 -5.2207 249.179 11.7676 229.3 38.998 c 1
 209.421 11.7676 181.392 -5.2207 151.88 -5.2207 c 0
 94.7627 -5.2207 48 33.8359 48 118.459 c 2
 48 399.809 l 1
EndSplineSet
EndChar
StartChar: uni0E20
Encoding: 240 3616 256
Width: 397
VWidth: 955
Flags: W
HStem: 354.032 50.983<139.588 260.624>
VStem: 47.6836 52.9204<50.9678 209.606> 296.604 52.919<-0.0146484 336.676>
Fore
5.82715 -0.0146484 m 1
 23.4678 50.9678 l 1
 47.6836 50.9678 l 1
 47.6836 185.978 l 2
 47.6836 209.606 60.4844 232.406 77.1816 248.88 c 1
 33.1816 271.705 l 1
 60.6807 383.695 146.69 405.015 191.743 405.015 c 0
 278.627 405.015 349.523 336.714 349.523 253.011 c 2
 349.523 -0.0146484 l 1
 296.604 -0.0146484 l 1
 296.604 253.011 l 2
 296.604 317.369 244.728 354.032 191.743 354.032 c 0
 151.624 354.032 108.573 334.194 90.3584 288.424 c 1
 147.153 256.787 l 1
 130.004 249.234 100.604 229.438 100.604 185.978 c 2
 100.604 -0.0146484 l 1
 5.82715 -0.0146484 l 1
EndSplineSet
EndChar
StartChar: uni0E21
Encoding: 241 3617 257
Width: 411
VWidth: 955
Flags: W
HStem: -5.01465 50.9824<169.964 313.658>
VStem: 48 52.92<-0.293945 78.9951 127.299 400.015> 310.641 52.92<84.602 400.015>
Fore
48 400.015 m 1
 100.92 400.015 l 1
 100.92 186.643 l 2
 100.92 127.299 181.405 45.9678 235.181 45.9678 c 0
 295.548 45.9678 310.641 98.999 310.641 146.989 c 2
 310.641 400.015 l 1
 363.561 400.015 l 1
 363.561 146.989 l 2
 363.561 65.7422 325.479 -5.01465 235.181 -5.01465 c 0
 185.014 -5.01465 135.676 34.2129 100.92 78.9951 c 1
 100.92 -0.293945 l 1
 48 -0.293945 l 1
 48 400.015 l 1
EndSplineSet
EndChar
StartChar: uni0E22
Encoding: 242 3618 258
Width: 411
VWidth: 955
Flags: W
HStem: -4.9873 50.9834<129.042 282.542> 349.004 50.983<140.105 217.71>
VStem: 43.2695 53.9004<66.1435 184.447> 311.79 51.94<66.1435 400.043>
Fore
232.873 270.697 m 1
 214.027 223.491 l 1
 205.95 223.491 l 2
 146.255 223.491 97.1699 189.125 97.1699 137.576 c 0
 97.1699 82.6279 147.016 45.9961 206.93 45.9961 c 0
 265.093 45.9961 311.79 82.6279 311.79 137.576 c 2
 311.79 400.043 l 1
 363.73 400.043 l 1
 363.73 137.576 l 2
 363.73 52.4551 291.515 -4.9873 205.95 -4.9873 c 0
 120.887 -4.9873 43.2695 49.1758 43.2695 137.576 c 0
 43.2695 173.631 58.9502 204.608 93.2422 223.491 c 1
 48.1699 223.491 l 1
 48.1699 248.982 l 2
 48.1699 332.688 119.066 399.987 205.95 399.987 c 2
 217.71 399.987 l 1
 217.71 349.004 l 1
 205.95 349.004 l 2
 155.3 349.004 113.465 316.286 103.503 270.697 c 1
 232.873 270.697 l 1
EndSplineSet
EndChar
StartChar: uni0E23
Encoding: 243 3619 259
Width: 411
VWidth: 955
Flags: W
HStem: 174.509 50.982<100.92 310.641> 353.893 50.982<130.064 281.497>
VStem: 48 52.92<225.491 325.817> 310.641 52.92<79.1829 174.509 252.871 325.815>
Fore
194.021 51.1074 m 1
 205.78 51.1074 l 2
 264.023 51.1074 310.641 96.0166 310.641 152.129 c 2
 310.641 174.509 l 1
 48 174.509 l 1
 48 252.871 l 2
 48 336.574 118.896 404.875 205.78 404.875 c 0
 292.664 404.875 363.561 336.574 363.561 252.871 c 9
 310.641 252.871 l 17
 310.641 308.982 264.024 353.893 205.78 353.893 c 0
 147.537 353.893 100.92 308.983 100.92 252.871 c 2
 100.92 225.491 l 1
 363.561 225.491 l 1
 363.561 152.129 l 2
 363.561 68.4258 292.664 0.125 205.78 0.125 c 2
 194.021 0.125 l 1
 194.021 51.1074 l 1
EndSplineSet
EndChar
StartChar: uni0E24
Encoding: 244 3620 260
Width: 397
VWidth: 951
Flags: W
HStem: -0.261719 50.9834<100.852 126.968> 353.785 50.984<139.837 260.871>
VStem: 47.9316 52.9204<50.7217 216.449> 296.852 52.92<-143.769 336.429>
Fore
144.608 50.7217 m 5
 126.968 -0.261719 l 5
 47.9316 -0.261719 l 5
 47.9316 185.731 l 6
 47.9316 209.36 60.7334 232.159 77.4307 248.634 c 5
 33.4307 271.459 l 5
 60.9297 383.449 146.938 404.769 191.992 404.769 c 4
 278.876 404.769 349.772 336.468 349.772 252.765 c 6
 349.772 -143.769 l 5
 296.852 -143.769 l 5
 296.852 252.765 l 6
 296.852 317.122 244.976 353.785 191.992 353.785 c 4
 151.873 353.785 108.822 333.947 90.6074 288.178 c 5
 147.402 256.541 l 5
 130.252 248.987 100.852 229.191 100.852 185.731 c 6
 100.852 50.7217 l 5
 144.608 50.7217 l 5
EndSplineSet
EndChar
StartChar: uni0E25
Encoding: 245 3621 261
Width: 411
VWidth: 955
Flags: W
HStem: 174.509 50.982<100.92 310.641> 353.893 50.982<130.064 281.497>
VStem: 48 52.92<79.1842 174.509 252.871 325.817> 310.641 52.92<-0.154297 174.509 225.491 308.982>
Fore
217.54 51.1074 m 1
 217.54 0.125 l 1
 205.78 0.125 l 2
 118.896 0.125 48 68.4258 48 152.129 c 2
 48 225.491 l 1
 310.641 225.491 l 1
 310.641 252.871 l 2
 310.641 308.982 264.024 353.893 205.78 353.893 c 0
 147.537 353.893 100.92 308.983 100.92 252.871 c 9
 48 252.871 l 17
 48 336.574 118.896 404.875 205.78 404.875 c 0
 292.664 404.875 363.561 336.574 363.561 252.871 c 2
 363.561 -0.154297 l 1
 310.641 -0.154297 l 1
 310.641 174.509 l 1
 100.92 174.509 l 1
 100.92 152.129 l 2
 100.92 96.0176 147.536 51.1074 205.78 51.1074 c 2
 217.54 51.1074 l 1
EndSplineSet
EndChar
StartChar: uni0E26
Encoding: 246 3622 262
Width: 397
VWidth: 951
Flags: W
HStem: 353.785 50.984<139.588 260.624>
VStem: 47.6836 52.9204<50.7217 209.36> 296.604 52.919<-143.769 336.429>
Fore
5.82715 -0.261719 m 1
 23.4678 50.7217 l 1
 47.6836 50.7217 l 1
 47.6836 185.731 l 2
 47.6836 209.36 60.4844 232.159 77.1816 248.634 c 1
 33.1816 271.459 l 1
 60.6807 383.449 146.69 404.769 191.743 404.769 c 0
 278.627 404.769 349.523 336.468 349.523 252.765 c 2
 349.523 -143.769 l 1
 296.604 -143.769 l 1
 296.604 252.765 l 2
 296.604 317.122 244.728 353.785 191.743 353.785 c 0
 151.624 353.785 108.573 333.947 90.3584 288.178 c 1
 147.153 256.541 l 1
 130.004 248.987 100.604 229.191 100.604 185.731 c 2
 100.604 -0.261719 l 1
 5.82715 -0.261719 l 1
EndSplineSet
EndChar
StartChar: uni0E27
Encoding: 247 3623 263
Width: 420
VWidth: 955
Flags: W
HStem: -4.875 50.9824<118.442 288.598> 353.893 50.982<145.864 288.892>
VStem: 330.045 52.92<84.4601 316.878>
Fore
38 123.316 m 1
 88.2393 143.344 l 1
 103.989 98.4824 135.178 46.1074 205.585 46.1074 c 0
 269.441 46.1074 330.045 111.341 330.045 200.944 c 0
 330.045 290.124 269.667 353.893 205.585 353.893 c 0
 159.646 353.893 117.747 324.726 90.7393 257.999 c 1
 41.4795 276.644 l 1
 77.291 366.875 139.943 404.875 205.585 404.875 c 0
 307.102 404.875 382.965 308.901 382.965 200 c 0
 382.965 91.1006 307.101 -4.875 205.585 -4.875 c 0
 138.552 -4.875 71.0645 30.3379 38 123.316 c 1
EndSplineSet
EndChar
StartChar: uni0E28
Encoding: 248 3624 264
Width: 411
VWidth: 955
Flags: W
HStem: 174.762 50.982<100.92 204.456> 355.09 50.982<130.253 249.429>
VStem: 48 52.92<0.0986328 174.762 225.744 326.131> 310.641 52.92<0.0986328 296.605>
Fore
222.096 225.744 m 1
 204.456 174.762 l 1
 100.92 174.762 l 1
 100.92 0.0986328 l 1
 48 0.0986328 l 1
 48 254.068 l 2
 48 337.771 118.896 406.072 205.78 406.072 c 0
 239.356 406.072 270.444 395.983 295.73 378.843 c 1
 335.057 408.957 l 1
 372.258 373.118 l 1
 333.85 342.932 l 1
 352.689 317.743 363.561 286.571 363.561 253.124 c 2
 363.561 0.0986328 l 1
 310.641 0.0986328 l 1
 310.641 253.124 l 2
 310.641 309.283 263.879 355.09 205.78 355.09 c 0
 147.682 355.09 100.92 309.283 100.92 253.124 c 2
 100.92 225.744 l 1
 222.096 225.744 l 1
EndSplineSet
EndChar
StartChar: uni0E29
Encoding: 249 3625 265
Width: 410
VWidth: 955
Flags: W
HStem: -5.01465 50.9824<128.754 280.122> 211.189 50.984<228.906 309.267 363.166 383.402>
VStem: 47.6064 52.9196<73.8618 400.015> 309.267 52.921<90.877 211.189 262.173 400.015>
Fore
175.986 275.059 m 1
 228.906 292.053 l 1
 228.906 262.173 l 1
 309.267 262.173 l 1
 309.267 400.015 l 1
 362.188 400.015 l 1
 362.188 262.173 l 1
 401.043 262.173 l 1
 383.402 211.189 l 1
 363.166 211.189 l 1
 363.166 146.989 l 2
 363.166 63.2861 292.271 -5.01465 205.387 -5.01465 c 0
 118.503 -5.01465 47.6064 63.2861 47.6064 146.989 c 2
 47.6064 400.015 l 1
 100.526 400.015 l 1
 100.526 146.989 l 2
 100.526 90.7373 146.212 45.9678 204.406 45.9678 c 0
 262.649 45.9678 309.267 90.877 309.267 146.989 c 2
 309.267 211.189 l 1
 175.986 211.189 l 1
 175.986 275.059 l 1
EndSplineSet
EndChar
StartChar: uni0E2A
Encoding: 250 3626 266
Width: 411
VWidth: 955
Flags: W
HStem: 0.238281 50.9824<130.063 217.54> 174.622 50.982<100.92 310.641> 354.006 51.927<129.874 249.429>
VStem: 48 52.92<96.1309 174.622 253.929 326.811> 310.641 52.92<-0.0410156 174.622 225.604 296.466>
Fore
335.057 408.817 m 1
 372.258 372.979 l 1
 333.85 342.792 l 1
 352.689 317.604 363.561 286.432 363.561 252.984 c 2
 363.561 -0.0410156 l 1
 310.641 -0.0410156 l 1
 310.641 174.622 l 1
 100.92 174.622 l 1
 100.92 152.242 l 2
 100.92 96.1309 147.536 51.2207 205.78 51.2207 c 2
 217.54 51.2207 l 1
 217.54 0.238281 l 1
 205.78 0.238281 l 2
 118.896 0.238281 48 68.5391 48 152.242 c 2
 48 225.604 l 1
 310.641 225.604 l 1
 310.641 252.984 l 2
 310.641 309.096 264.024 354.006 205.78 354.006 c 0
 147.391 354.006 100.92 309.992 100.92 253.929 c 9
 48 253.929 l 17
 48 337.632 118.896 405.933 205.78 405.933 c 0
 239.356 405.933 270.444 395.844 295.73 378.703 c 1
 335.057 408.817 l 1
EndSplineSet
EndChar
StartChar: uni0E2B
Encoding: 251 3627 267
Width: 411
VWidth: 955
Flags: W
VStem: 48 52.92<-0.113281 209.2 256.72 400.195> 310.64 52.921<-0.113281 248.456>
Fore
100.92 256.72 m 1
 153.802 329.771 249.239 393.125 306.434 405.575 c 1
 367 364 l 1
 343 365 288 348 274.506 334.616 c 1
 331.229 316.584 363.561 256.385 363.561 192.488 c 2
 363.561 -0.113281 l 1
 310.64 -0.113281 l 1
 310.64 192.488 l 2
 310.64 235.54 295.352 300.118 234.2 300.118 c 0
 191.413 300.118 101.821 192.251 100.919 135.754 c 2
 100.92 -0.113281 l 1
 48 -0.113281 l 1
 48 400.195 l 1
 100.92 400.195 l 1
 100.92 256.72 l 1
EndSplineSet
EndChar
StartChar: uni0E2C
Encoding: 252 3628 268
Width: 458
VWidth: 957
Flags: W
HStem: -5.05957 50.9834<98.8803 191.876 266.724 359.717> 348.987 50.984<255.76 351.627>
VStem: 48 52.92<83.0791 399.971> 202.84 52.92<81.4771 314.999> 357.68 52.92<72.4165 327.356 413.001 466.06>
Fore
48 399.971 m 1
 100.92 399.971 l 1
 100.92 118.621 l 2
 100.92 83.0791 111.111 45.9238 151.88 45.9238 c 0
 195 45.9238 202.84 90.0488 202.84 118.621 c 2
 202.84 314.999 l 1
 255.76 314.999 l 1
 255.76 118.621 l 2
 255.76 83.0791 265.952 45.9238 306.72 45.9238 c 0
 347.487 45.9238 357.68 83.0791 357.68 118.621 c 2
 357.68 298.949 l 2
 357.68 327.423 343.332 348.987 315.54 348.987 c 2
 255.76 348.987 l 1
 255.76 399.971 l 1
 315.54 399.971 l 2
 343.299 399.971 357.68 421.541 357.68 450.009 c 2
 357.68 466.06 l 1
 410.6 466.06 l 1
 410.6 450.009 l 2
 410.6 419.713 397.323 392.273 375.868 373.535 c 1
 397.32 354.797 410.6 327.356 410.6 297.061 c 2
 410.6 118.621 l 2
 410.6 33.9951 363.827 -5.05957 306.72 -5.05957 c 0
 275.954 -5.05957 248.383 6.54492 229.3 30.4502 c 1
 210.216 6.54199 182.646 -5.05957 151.88 -5.05957 c 0
 94.7627 -5.05957 48 33.998 48 118.621 c 2
 48 399.971 l 1
EndSplineSet
EndChar
StartChar: uni0E2D
Encoding: 253 3629 269
Width: 456
VWidth: 955
Flags: W
HStem: -3.93066 50.9825<141.899 321.517> 174.509 50.982<92.3086 225.554> 352.948 50.983<158.522 322.443>
VStem: 363.36 54.88<87.7047 312.425>
Fore
244.957 225.491 m 1
 225.554 174.509 l 1
 92.3086 174.509 l 1
 103.622 100.633 161.57 47.0518 227.14 47.0518 c 0
 299.738 47.0518 363.36 113.619 363.36 200 c 0
 363.36 286.481 300.676 352.948 228.12 352.948 c 0
 174.583 352.948 117.717 327.749 94.2764 244.589 c 1
 43.1582 258.174 l 1
 76.1191 374.146 162.353 403.931 228.12 403.931 c 0
 335.695 403.931 418.24 310.038 418.24 200 c 0
 418.24 89.9629 335.694 -3.93066 228.12 -3.93066 c 0
 120.544 -3.93066 38 89.9619 38 200 c 2
 38 225.491 l 1
 244.957 225.491 l 1
EndSplineSet
EndChar
StartChar: uni0E2E
Encoding: 254 3630 270
Width: 456
VWidth: 955
Flags: W
HStem: -3.90723 50.9834<141.899 321.517> 174.533 49.983<92.3086 225.554> 352.973 50.982<158.522 273.286>
VStem: 363.36 54.88<87.73 271.597>
Back
244.957 224.516 m 1
 225.554 174.533 l 1
 92.3086 174.533 l 1
 103.622 100.657 161.57 47.0762 227.14 47.0762 c 0
 299.738 47.0762 363.36 113.644 363.36 200.024 c 0
 363.36 286.506 300.676 352.973 228.12 352.973 c 0
 174.583 352.973 117.717 327.772 94.2764 244.613 c 1
 43.1582 258.198 l 1
 76.1191 374.171 162.353 403.955 228.12 403.955 c 0
 262.863 403.955 294.872 393.7 322.345 377.372 c 1
 356.88 404.771 l 1
 392.878 368.617 l 1
 362.86 343.629 l 1
 397.291 306.714 418.24 255.08 418.24 200.024 c 0
 418.24 89.9863 335.694 -3.90723 228.12 -3.90723 c 0
 120.544 -3.90723 38 89.9863 38 200.024 c 2
 38 224.516 l 1
 244.957 224.516 l 1
EndSplineSet
Fore
244.957 224.516 m 1
 225.554 174.533 l 1
 92.3086 174.533 l 1
 103.622 100.657 161.57 47.0762 227.14 47.0762 c 0
 299.738 47.0762 363.36 113.644 363.36 200.024 c 0
 363.36 286.506 300.676 352.973 228.12 352.973 c 0
 174.583 352.973 117.717 327.772 94.2764 244.613 c 1
 43.1582 258.198 l 1
 76.1191 374.171 162.353 403.955 228.12 403.955 c 0
 262.863 403.955 294.872 393.7 322.345 377.372 c 1
 356.88 404.771 l 1
 392.878 368.617 l 1
 362.86 343.629 l 1
 397.291 306.714 418.24 255.08 418.24 200.024 c 0
 418.24 89.9863 335.694 -3.90723 228.12 -3.90723 c 0
 120.544 -3.90723 38 89.9863 38 200.024 c 2
 38 224.516 l 1
 244.957 224.516 l 1
EndSplineSet
EndChar
StartChar: uni0E2F
Encoding: 255 3631 271
Width: 384
VWidth: 955
Flags: W
HStem: 241.653 50.983<112.783 220.856> 354.004 50.983<101.151 152.66>
VStem: 38 51.9404<295.298 336.785> 283.98 52.92<0.0126953 306.28>
Fore
286.758 400.322 m 1
 336.9 400.322 l 1
 336.9 0.0126953 l 1
 283.98 0.0126953 l 1
 283.98 306.28 l 1
 252.05 275.367 202.631 241.653 141.88 241.653 c 0
 87.4277 241.653 38 272.106 38 318.127 c 0
 38 364.514 86.209 404.987 140.9 404.987 c 2
 152.66 404.987 l 1
 152.66 354.004 l 1
 140.9 354.004 l 2
 110.324 354.004 89.9404 332.479 89.9404 318.127 c 0
 89.9404 300.566 123.555 292.636 140.9 292.636 c 0
 205.825 292.636 274.468 356.967 286.758 400.322 c 1
EndSplineSet
EndChar
StartChar: uni0E30
Encoding: 256 3632 272
Width: 219
Flags: W
HStem: 28 54<102 177.649> 279 54<102 177.649>
VStem: 48 54<82 107.649 333 358.649>
Fore
195.649 333 m 1
 177.649 279 l 1
 48 279 l 1
 48 358.649 l 1
 102 376.649 l 1
 102 333 l 1
 195.649 333 l 1
195.649 82 m 1
 177.649 28 l 1
 48 28 l 1
 48 107.649 l 1
 102 125.649 l 1
 102 82 l 1
 195.649 82 l 1
EndSplineSet
LCarets2: 1 0 
EndChar
StartChar: uni0E31
Encoding: 257 3633 273
Width: 0
Flags: W
HStem: 440 54<-143 80.4222>
Fore
116.422 494 m 1
 80.4222 440 l 1
 -197 440 l 1
 -197 519.649 l 1
 -143 537.649 l 1
 -143 494 l 1
 116.422 494 l 1
EndSplineSet
LCarets2: 1 0 
EndChar
StartChar: uni0E32
Encoding: 258 3634 274
Width: 304
Flags: W
HStem: 354.032 50.983<81.2767 206.637>
VStem: 203.619 52.92<-0.0146484 315.399>
Fore
38 367.974 m 1
 60.1064 385.013 91.1445 405.015 128.159 405.015 c 0
 218.468 405.015 256.539 334.26 256.539 253.011 c 2
 256.539 -0.0146484 l 1
 203.619 -0.0146484 l 1
 203.619 253.011 l 2
 203.619 301.002 188.527 354.032 128.159 354.032 c 0
 92.0957 354.032 57.1738 321.631 38 306.002 c 1
 38 367.974 l 1
EndSplineSet
LCarets2: 1 0 
EndChar
StartChar: uni0E33
Encoding: 259 3635 275
Width: 304
Flags: W
HStem: 354.032 50.983<81.2767 206.637> 419.92 36.813<-77.8318 -46.5239> 492.625 36.813<-74.7964 -43.4885>
VStem: -117.5 38.2119<461.518 491.223> -42.0322 38.2119<458.136 487.84> 203.619 52.92<-0.0146484 315.399>
Fore
38 367.974 m 1
 60.1064 385.013 91.1445 405.015 128.159 405.015 c 0
 218.468 405.015 256.539 334.26 256.539 253.011 c 2
 256.539 -0.0146484 l 1
 203.619 -0.0146484 l 1
 203.619 253.011 l 2
 203.619 301.002 188.527 354.032 128.159 354.032 c 0
 92.0957 354.032 57.1738 321.631 38 306.002 c 1
 38 367.974 l 1
-3.82031 474.68 m 0
 -3.82031 444.653 -29.4922 419.92 -60.6602 419.92 c 0
 -91.8271 419.92 -117.5 444.652 -117.5 474.68 c 0
 -117.5 504.705 -91.8281 529.438 -60.6602 529.438 c 0
 -29.4932 529.438 -3.82031 504.706 -3.82031 474.68 c 0
-79.2881 474.68 m 0
 -79.2881 466.195 -73.8691 456.733 -60.6602 456.733 c 0
 -51.8535 456.733 -42.0322 461.954 -42.0322 474.68 c 0
 -42.0322 483.163 -47.4512 492.625 -60.6602 492.625 c 0
 -69.4668 492.625 -79.2881 487.405 -79.2881 474.68 c 0
EndSplineSet
MultipleSubs2: "Multiple Substitution lookup 7" uni0E4D uni0E32
Substitution2: "Single Substitution lookup 6" uni0E32
LCarets2: 1 0 
EndChar
StartChar: uni0E34
Encoding: 260 3636 276
Width: 0
Flags: W
HStem: 440 54<-328.422 -48>
VStem: -364.422 316.422<440 494>
Fore
-364.422 440 m 1
 -328.422 494 l 1
 -48 494 l 1
 -48 440 l 1
 -364.422 440 l 1
EndSplineSet
LCarets2: 1 0 
EndChar
StartChar: uni0E35
Encoding: 261 3637 277
Width: 0
Flags: W
HStem: 440 93<-102 -48> 440 54<-328.422 -102>
VStem: -102 54<494 533>
Fore
-102 494 m 1x60
 -102 533 l 1
 -48 533 l 1
 -48 440 l 1xa0
 -364.422 440 l 1
 -328.422 494 l 1
 -102 494 l 1x60
EndSplineSet
LCarets2: 1 0 
EndChar
StartChar: uni0E36
Encoding: 262 3638 278
Width: 0
Flags: W
HStem: 440 54<-327.422 -132.875> 522 34<-75 -57.6368>
Fore
-98 498.5 m 4
 -98 485.528 -87.4717 475 -74.5 475 c 4
 -61.5283 475 -51 485.528 -51 498.5 c 4
 -51 511.472 -61.5283 522 -74.5 522 c 4
 -87.4717 522 -98 511.472 -98 498.5 c 4
-17 498 m 4
 -17 466.197 -43.1963 440 -75 440 c 6
 -363.422 440 l 5
 -327.422 494 l 5
 -132.875 494 l 5
 -132.963 495.362 -133 496.695 -133 498 c 4
 -133 529.803 -106.804 556 -75 556 c 4
 -43.1973 556 -17 529.804 -17 498 c 4
EndSplineSet
LCarets2: 1 0 
EndChar
StartChar: uni0E37
Encoding: 263 3639 279
Width: 0
Flags: W
HStem: 440 93<-177 -123 -102 -48> 440 54<-328.422 -177 -123 -102>
VStem: -177 54<494 533> -102 54<494 533>
Fore
-102 494 m 1x70
 -102 533 l 1
 -48 533 l 1
 -48 440 l 1xb0
 -364.422 440 l 1
 -328.422 494 l 1
 -177 494 l 1x70
 -177 533 l 1
 -123 533 l 1xb0
 -123 494 l 1
 -102 494 l 1x70
EndSplineSet
LCarets2: 1 0 
EndChar
StartChar: uni0E38
Encoding: 264 3640 280
Width: 0
Flags: W
VStem: -102 54<-171 -84>
Fore
-142.649 -84 m 1
 -124.649 -30 l 1
 -48 -30 l 1
 -48 -171 l 1
 -102 -171 l 1
 -102 -84 l 1
 -142.649 -84 l 1
EndSplineSet
LCarets2: 1 0 
EndChar
StartChar: uni0E39
Encoding: 265 3641 281
Width: 0
Flags: W
HStem: -176 54<-165.464 -112.54>
VStem: -230 54<-111.46 -84> -102 54<-111.464 -30>
Fore
-261.649 -84 m 1
 -243.649 -30 l 1
 -176 -30 l 1
 -176 -85 l 2
 -176 -105.354 -159.357 -122 -139 -122 c 0
 -118.646 -122 -102 -105.357 -102 -85 c 2
 -102 -30 l 1
 -48 -30 l 1
 -48 -85 l 2
 -48 -135.52 -88.4814 -176 -139 -176 c 0
 -189.52 -176 -230 -135.518 -230 -85 c 2
 -230 -84 l 1
 -261.649 -84 l 1
EndSplineSet
LCarets2: 1 0 
EndChar
StartChar: uni0E3A
Encoding: 266 3642 282
Width: 0
Flags: W
HStem: -98 74<-101.587 -48.4134>
VStem: -112 74<-87.5866 -34.4134>
Fore
-75 -24 m 0
 -54.5312 -24 -38 -40.5488 -38 -61 c 0
 -38 -81.4688 -54.5488 -98 -75 -98 c 0
 -95.4688 -98 -112 -81.4512 -112 -61 c 0
 -112 -40.5312 -95.4512 -24 -75 -24 c 0
EndSplineSet
LCarets2: 1 0 
EndChar
StartChar: uni0E3F
Encoding: 267 3647 283
Width: 435
VWidth: 965
Flags: W
HStem: -0.0791016 51.543<100.92 143 197 319.164> 250.954 51.543<100.92 143 197 232.239> 448.536 51.543<100.92 143 197 290.094>
VStem: 48 52.92<51.4639 250.954 302.497 448.536> 143 54<-44 -0.0791016 51.4639 250.954 302.497 448.536 500.079 544> 311.62 53.9<325.562 412.718> 348.859 52.92<82.874 220.43>
Fore
228.319 500.079 m 2xfa
 302.907 500.079 365.52 444.06 365.52 374.085 c 0xfc
 365.52 336.76 347.073 304.039 318.621 281.607 c 1
 368 255.866 401.779 208.008 401.779 151.687 c 0
 401.779 66.2363 324.133 -0.0791016 232.239 -0.0791016 c 2
 197 -0.0791016 l 1
 197 -44 l 1
 143 -44 l 1
 143 -0.0791016 l 1
 48 -0.0791016 l 1
 48 500.079 l 1
 143 500.079 l 1
 143 544 l 1
 197 544 l 1
 197 500.079 l 1
 228.319 500.079 l 2xfa
311.62 374.085 m 2
 311.62 375.039 l 2
 311.62 412.718 275.386 448.536 226.359 448.536 c 2
 197 448.536 l 1
 197 302.497 l 1
 226.359 302.497 l 2
 275.744 302.497 311.62 336.553 311.62 374.085 c 2
197 250.954 m 1
 197 51.4639 l 1
 232.239 51.4639 l 2
 299.104 51.4639 348.859 98.7539 348.859 151.687 c 0xfa
 348.859 204.566 299.24 250.954 232.239 250.954 c 2
 197 250.954 l 1
143 302.497 m 1
 143 448.536 l 1
 100.92 448.536 l 1
 100.92 302.497 l 1
 143 302.497 l 1
143 250.954 m 1
 100.92 250.954 l 1
 100.92 51.4639 l 1
 143 51.4639 l 1
 143 250.954 l 1
EndSplineSet
EndChar
StartChar: uni0E40
Encoding: 268 3648 284
Width: 148
VWidth: 955
Flags: W
VStem: 48 52.92<-0.154297 400.154>
Fore
100.92 -0.154297 m 1
 48 -0.154297 l 1
 48 400.154 l 1
 100.92 400.154 l 1
 100.92 -0.154297 l 1
EndSplineSet
EndChar
StartChar: uni0E41
Encoding: 269 3649 285
Width: 237
VWidth: 955
Flags: W
VStem: 48 52.92<-0.154297 400.154> 136.199 52.92<-0.154297 400.154>
Fore
100.92 -0.154297 m 1
 48 -0.154297 l 1
 48 400.154 l 1
 100.92 400.154 l 1
 100.92 -0.154297 l 1
189.119 -0.154297 m 1
 136.199 -0.154297 l 1
 136.199 400.154 l 1
 189.119 400.154 l 1
 189.119 -0.154297 l 1
EndSplineSet
EndChar
StartChar: uni0E42
Encoding: 270 3650 286
Width: 164
VWidth: 960
Flags: W
HStem: 529.836 50.982<-10.3057 66.8488 84.583 219.306>
VStem: 63.8301 52.9199<51.1641 475.641>
Fore
156.586 51.1641 m 1
 138.946 0.181641 l 1
 63.8301 0.181641 l 1
 63.8301 428.814 l 2
 63.8301 476.805 48.7383 529.836 -11.6299 529.836 c 2
 -27.9463 529.836 l 1
 -10.3057 580.818 l 1
 236.946 580.818 l 1
 219.306 529.836 l 1
 84.583 529.836 l 1
 106.069 502.894 116.75 464.835 116.75 428.814 c 2
 116.75 51.1641 l 1
 156.586 51.1641 l 1
EndSplineSet
EndChar
StartChar: uni0E43
Encoding: 271 3651 287
Width: 176
VWidth: 960
Flags: W
HStem: 533.752 51.927<44.1914 113.754>
VStem: -27.9375 52.9102<487.49 517.544> 75.96 52.92<51.3037 464.408> 123 52.92<471.327 511.562>
Fore
164.796 51.3037 m 1xe0
 147.156 0.321289 l 1
 75.96 0.321289 l 1
 75.96 393.077 l 2xe0
 75.96 465.774 123 477.671 123 498.819 c 0
 123 508.621 104.58 533.752 74 533.752 c 2
 73.0195 533.752 l 2
 44.1914 533.752 24.9727 513.492 24.9727 499.984 c 0
 24.9727 499.854 24.9814 499.464 24.9873 499.334 c 2
 25.5469 487.49 l 1
 -27.6299 487.49 l 1
 -27.917 498.536 l 2
 -27.9248 498.857 -27.9375 499.821 -27.9375 500.143 c 0
 -27.9375 545.501 19.8115 584.653 71.9199 585.678 c 2
 73.0195 585.679 l 2
 125.99 585.679 175.92 544 175.92 499.764 c 0xd0
 175.92 448.134 128.88 448.165 128.88 394.021 c 2
 128.88 51.3037 l 1
 164.796 51.3037 l 1xe0
EndSplineSet
EndChar
StartChar: uni0E44
Encoding: 272 3652 288
Width: 165
VWidth: 961
Flags: W
VStem: 64.1816 52.9214<50.8613 489.617>
Fore
154.979 50.8613 m 1
 137.338 -0.121094 l 1
 64.1816 -0.121094 l 1
 64.1816 438.896 l 2
 64.1816 477.912 81.457 507.575 99.7959 530.477 c 1
 75.0352 530.477 l 1
 35.4971 478.632 l 1
 -27.9375 534.952 l 1
 -27.9375 604.065 l 1
 30.5811 553.327 l 1
 50.0488 581.459 l 1
 173.515 581.459 l 1
 174.149 539.447 l 1
 146.336 517.438 117.103 490.328 117.103 437.952 c 2
 117.103 50.8613 l 1
 154.979 50.8613 l 1
EndSplineSet
EndChar
StartChar: uni0E45
Encoding: 273 3653 289
Width: 304
VWidth: 951
Flags: W
HStem: 349.785 50.984<81.2767 206.637>
VStem: 203.619 52.92<-147.769 311.152>
Fore
38 363.728 m 1
 60.1064 380.766 91.1445 400.769 128.159 400.769 c 0
 218.468 400.769 256.539 330.014 256.539 248.765 c 2
 256.539 -147.769 l 1
 203.619 -147.769 l 1
 203.619 248.765 l 2
 203.619 296.755 188.527 349.785 128.159 349.785 c 0
 92.0957 349.785 57.1738 317.384 38 301.755 c 1
 38 363.728 l 1
EndSplineSet
EndChar
StartChar: uni0E46
Encoding: 274 3654 290
Width: 401
VWidth: 951
Flags: W
HStem: 179.097 50.982<94.2757 174.058> 288.615 52.871<169.287 224.234>
VStem: 38 50.96<248.109 309.879> 300.641 52.92<-147.57 291.118>
Fore
175.159 234.827 m 1
 187.409 185.937 l 1
 169.231 181.559 159.504 179.097 140.9 179.097 c 0
 74.0264 179.097 38 230.129 38 283.895 c 0
 38 327.272 61.5166 374.386 111.723 394.364 c 2
 131.21 402.902 l 1
 143.801 385.568 l 2
 153.913 370.45 175.627 341.486 196.761 341.486 c 0
 217.894 341.486 239.417 370.171 249.53 385.289 c 2
 263.81 407.646 l 1
 286.813 392.303 l 2
 327.07 364.746 353.561 318.873 353.561 267.845 c 2
 353.561 -147.57 l 1
 300.641 -147.57 l 1
 300.641 265.956 l 2
 300.641 291.118 290.498 313.938 274.232 331.845 c 1
 253.346 307.4 227.767 288.615 195.78 288.615 c 0
 161.924 288.615 134.985 309.247 112.923 335.523 c 1
 97.1113 322.979 88.96 303.706 88.96 283.895 c 0
 88.96 256.367 104.809 230.079 139.92 230.079 c 0
 153.344 230.079 164.895 232.851 175.159 234.827 c 1
EndSplineSet
EndChar
